%TF.GenerationSoftware,KiCad,Pcbnew,(5.1.12)-1*%
%TF.CreationDate,2023-08-13T12:23:47+05:30*%
%TF.ProjectId,dancing led,64616e63-696e-4672-906c-65642e6b6963,rev?*%
%TF.SameCoordinates,Original*%
%TF.FileFunction,Copper,L2,Bot*%
%TF.FilePolarity,Positive*%
%FSLAX46Y46*%
G04 Gerber Fmt 4.6, Leading zero omitted, Abs format (unit mm)*
G04 Created by KiCad (PCBNEW (5.1.12)-1) date 2023-08-13 12:23:47*
%MOMM*%
%LPD*%
G01*
G04 APERTURE LIST*
%TA.AperFunction,ComponentPad*%
%ADD10O,1.200000X1.200000*%
%TD*%
%TA.AperFunction,ComponentPad*%
%ADD11O,1.200000X1.600000*%
%TD*%
%TA.AperFunction,ComponentPad*%
%ADD12C,1.800000*%
%TD*%
%TA.AperFunction,ComponentPad*%
%ADD13R,1.800000X1.800000*%
%TD*%
%TA.AperFunction,ComponentPad*%
%ADD14O,1.400000X1.400000*%
%TD*%
%TA.AperFunction,ComponentPad*%
%ADD15C,1.400000*%
%TD*%
%TA.AperFunction,ComponentPad*%
%ADD16O,2.000000X2.000000*%
%TD*%
%TA.AperFunction,ComponentPad*%
%ADD17R,2.000000X2.000000*%
%TD*%
%TA.AperFunction,ComponentPad*%
%ADD18O,1.700000X1.700000*%
%TD*%
%TA.AperFunction,ComponentPad*%
%ADD19R,1.700000X1.700000*%
%TD*%
%TA.AperFunction,ViaPad*%
%ADD20C,3.500000*%
%TD*%
%TA.AperFunction,Conductor*%
%ADD21C,0.250000*%
%TD*%
G04 APERTURE END LIST*
D10*
%TO.P,T2,3*%
%TO.N,Net-(C1-Pad1)*%
X172000000Y-95920000D03*
%TO.P,T2,2*%
%TO.N,Net-(C2-Pad1)*%
X174540000Y-98460000D03*
D11*
%TO.P,T2,1*%
%TO.N,Net-(9V1-Pad2)*%
X172000000Y-101000000D03*
%TD*%
D10*
%TO.P,T1,3*%
%TO.N,Net-(C2-Pad2)*%
X152000000Y-96920000D03*
%TO.P,T1,2*%
%TO.N,Net-(C1-Pad2)*%
X154540000Y-99460000D03*
D11*
%TO.P,T1,1*%
%TO.N,Net-(9V1-Pad2)*%
X152000000Y-102000000D03*
%TD*%
D12*
%TO.P,R7,2*%
%TO.N,Net-(G3-Pad1)*%
X177540000Y-73000000D03*
D13*
%TO.P,R7,1*%
%TO.N,Net-(G2-Pad2)*%
X175000000Y-73000000D03*
%TD*%
D12*
%TO.P,R6,2*%
%TO.N,Net-(G1-Pad1)*%
X153460000Y-73000000D03*
D13*
%TO.P,R6,1*%
%TO.N,Net-(R1-Pad1)*%
X156000000Y-73000000D03*
%TD*%
D12*
%TO.P,R5,2*%
%TO.N,Net-(9V1-Pad1)*%
X140460000Y-73000000D03*
D13*
%TO.P,R5,1*%
%TO.N,Net-(G1-Pad2)*%
X143000000Y-73000000D03*
%TD*%
D14*
%TO.P,R4,2*%
%TO.N,Net-(9V1-Pad1)*%
X180000000Y-109080000D03*
D15*
%TO.P,R4,1*%
%TO.N,Net-(C2-Pad1)*%
X180000000Y-104000000D03*
%TD*%
D14*
%TO.P,R3,2*%
%TO.N,Net-(9V1-Pad1)*%
X144000000Y-109080000D03*
D15*
%TO.P,R3,1*%
%TO.N,Net-(C1-Pad2)*%
X144000000Y-104000000D03*
%TD*%
D14*
%TO.P,R2,2*%
%TO.N,Net-(C1-Pad1)*%
X169000000Y-84080000D03*
D15*
%TO.P,R2,1*%
%TO.N,Net-(G2-Pad1)*%
X169000000Y-79000000D03*
%TD*%
D14*
%TO.P,R1,2*%
%TO.N,Net-(C2-Pad2)*%
X156000000Y-85080000D03*
D15*
%TO.P,R1,1*%
%TO.N,Net-(R1-Pad1)*%
X156000000Y-80000000D03*
%TD*%
D12*
%TO.P,G3,2*%
%TO.N,Net-(9V1-Pad1)*%
X183540000Y-73000000D03*
D13*
%TO.P,G3,1*%
%TO.N,Net-(G3-Pad1)*%
X181000000Y-73000000D03*
%TD*%
D12*
%TO.P,G2,2*%
%TO.N,Net-(G2-Pad2)*%
X171540000Y-73000000D03*
D13*
%TO.P,G2,1*%
%TO.N,Net-(G2-Pad1)*%
X169000000Y-73000000D03*
%TD*%
D12*
%TO.P,G1,2*%
%TO.N,Net-(G1-Pad2)*%
X147000000Y-73000000D03*
D13*
%TO.P,G1,1*%
%TO.N,Net-(G1-Pad1)*%
X149540000Y-73000000D03*
%TD*%
D16*
%TO.P,C2,2*%
%TO.N,Net-(C2-Pad2)*%
X168000000Y-89000000D03*
D17*
%TO.P,C2,1*%
%TO.N,Net-(C2-Pad1)*%
X183000000Y-89000000D03*
%TD*%
D16*
%TO.P,C1,2*%
%TO.N,Net-(C1-Pad2)*%
X141000000Y-90000000D03*
D17*
%TO.P,C1,1*%
%TO.N,Net-(C1-Pad1)*%
X156000000Y-90000000D03*
%TD*%
D18*
%TO.P,9V1,2*%
%TO.N,Net-(9V1-Pad2)*%
X164000000Y-107460000D03*
D19*
%TO.P,9V1,1*%
%TO.N,Net-(9V1-Pad1)*%
X164000000Y-110000000D03*
%TD*%
D20*
%TO.N,*%
X134000000Y-69000000D03*
X192000000Y-69000000D03*
X134000000Y-116000000D03*
X192000000Y-116000000D03*
%TD*%
D21*
%TO.N,Net-(9V1-Pad2)*%
X158540000Y-102000000D02*
X164000000Y-107460000D01*
X152000000Y-102000000D02*
X158540000Y-102000000D01*
X172000000Y-101000000D02*
X171000000Y-101000000D01*
X164540000Y-107460000D02*
X164000000Y-107460000D01*
X171000000Y-101000000D02*
X164540000Y-107460000D01*
%TO.N,Net-(9V1-Pad1)*%
X183540000Y-73000000D02*
X185000000Y-73000000D01*
X185000000Y-73000000D02*
X186000000Y-74000000D01*
X186000000Y-74000000D02*
X186000000Y-108000000D01*
X184920000Y-109080000D02*
X180000000Y-109080000D01*
X186000000Y-108000000D02*
X184920000Y-109080000D01*
X140460000Y-73000000D02*
X139000000Y-73000000D01*
X139000000Y-73000000D02*
X138000000Y-74000000D01*
X138000000Y-74000000D02*
X138000000Y-107000000D01*
X140080000Y-109080000D02*
X144000000Y-109080000D01*
X138000000Y-107000000D02*
X140080000Y-109080000D01*
X144000000Y-109080000D02*
X144000000Y-111000000D01*
X144000000Y-111000000D02*
X146000000Y-113000000D01*
X161000000Y-113000000D02*
X164000000Y-110000000D01*
X146000000Y-113000000D02*
X161000000Y-113000000D01*
X164000000Y-110000000D02*
X164000000Y-112000000D01*
X164000000Y-112000000D02*
X165000000Y-113000000D01*
X165000000Y-113000000D02*
X179000000Y-113000000D01*
X180000000Y-112000000D02*
X180000000Y-109080000D01*
X179000000Y-113000000D02*
X180000000Y-112000000D01*
%TO.N,Net-(C1-Pad2)*%
X141000000Y-101000000D02*
X144000000Y-104000000D01*
X141000000Y-90000000D02*
X141000000Y-101000000D01*
X148540000Y-99460000D02*
X144000000Y-104000000D01*
X154540000Y-99460000D02*
X148540000Y-99460000D01*
%TO.N,Net-(C1-Pad1)*%
X169000000Y-84080000D02*
X165920000Y-84080000D01*
X165920000Y-84080000D02*
X164000000Y-86000000D01*
X164000000Y-86000000D02*
X164000000Y-94000000D01*
X165920000Y-95920000D02*
X172000000Y-95920000D01*
X164000000Y-94000000D02*
X165920000Y-95920000D01*
X160000000Y-82000000D02*
X164000000Y-86000000D01*
X155000000Y-82000000D02*
X160000000Y-82000000D01*
X154000000Y-83000000D02*
X155000000Y-82000000D01*
X154000000Y-88000000D02*
X154000000Y-83000000D01*
X156000000Y-90000000D02*
X154000000Y-88000000D01*
%TO.N,Net-(C2-Pad2)*%
X156000000Y-85080000D02*
X158080000Y-85080000D01*
X158080000Y-85080000D02*
X160000000Y-87000000D01*
X157080000Y-96920000D02*
X152000000Y-96920000D01*
X160000000Y-94000000D02*
X157080000Y-96920000D01*
X160000000Y-87000000D02*
X160000000Y-94000000D01*
X173000000Y-89000000D02*
X168000000Y-89000000D01*
X174000000Y-90000000D02*
X173000000Y-89000000D01*
X174000000Y-96000000D02*
X174000000Y-90000000D01*
X172000000Y-98000000D02*
X174000000Y-96000000D01*
X164000000Y-98000000D02*
X172000000Y-98000000D01*
X160000000Y-94000000D02*
X164000000Y-98000000D01*
%TO.N,Net-(C2-Pad1)*%
X174540000Y-98460000D02*
X180540000Y-98460000D01*
X183000000Y-96000000D02*
X183000000Y-89000000D01*
X180540000Y-98460000D02*
X183000000Y-96000000D01*
X180000000Y-104000000D02*
X180000000Y-99000000D01*
X180000000Y-99000000D02*
X183000000Y-96000000D01*
%TO.N,Net-(G1-Pad2)*%
X143000000Y-73000000D02*
X147000000Y-73000000D01*
%TO.N,Net-(G1-Pad1)*%
X149540000Y-73000000D02*
X153460000Y-73000000D01*
%TO.N,Net-(G2-Pad2)*%
X171540000Y-73000000D02*
X175000000Y-73000000D01*
%TO.N,Net-(G2-Pad1)*%
X167000000Y-79000000D02*
X169000000Y-79000000D01*
X167000000Y-73000000D02*
X166000000Y-74000000D01*
X166000000Y-78000000D02*
X167000000Y-79000000D01*
X166000000Y-74000000D02*
X166000000Y-78000000D01*
X169000000Y-73000000D02*
X167000000Y-73000000D01*
%TO.N,Net-(G3-Pad1)*%
X177540000Y-73000000D02*
X181000000Y-73000000D01*
%TO.N,Net-(R1-Pad1)*%
X160000000Y-79000000D02*
X159000000Y-80000000D01*
X160000000Y-74000000D02*
X160000000Y-79000000D01*
X159000000Y-73000000D02*
X160000000Y-74000000D01*
X159000000Y-80000000D02*
X156000000Y-80000000D01*
X156000000Y-73000000D02*
X159000000Y-73000000D01*
%TD*%
M02*
