M48
; DRILL file {KiCad (5.1.12)-1} date 08/13/23 12:23:41
; FORMAT={-:-/ absolute / inch / decimal}
; #@! TF.CreationDate,2023-08-13T12:23:41+05:30
; #@! TF.GenerationSoftware,Kicad,Pcbnew,(5.1.12)-1
; #@! TF.FileFunction,Plated,1,2,PTH
FMAT,2
INCH
T1C0.0276
T2C0.0354
T3C0.0394
T4C0.1339
%
G90
G05
T1
X5.6693Y-4.0945
X5.6693Y-4.2945
X5.9843Y-3.8157
X5.9843Y-4.0157
X6.0843Y-3.9157
X6.1417Y-3.1496
X6.1417Y-3.3496
X6.6535Y-3.1102
X6.6535Y-3.3102
X6.7717Y-3.7764
X6.7717Y-3.9764
X6.8717Y-3.8764
X7.0866Y-4.0945
X7.0866Y-4.2945
T2
X5.5299Y-2.874
X5.6299Y-2.874
X5.7874Y-2.874
X5.8874Y-2.874
X6.0417Y-2.874
X6.1417Y-2.874
X6.6535Y-2.874
X6.7535Y-2.874
X6.8898Y-2.874
X6.9898Y-2.874
X7.126Y-2.874
X7.226Y-2.874
T3
X5.5512Y-3.5433
X6.1417Y-3.5433
X6.4567Y-4.2307
X6.4567Y-4.3307
X6.6142Y-3.5039
X7.2047Y-3.5039
T4
X5.2756Y-2.7165
X5.2756Y-4.5669
X7.5591Y-2.7165
X7.5591Y-4.5669
T0
M30
