%TF.GenerationSoftware,KiCad,Pcbnew,(5.1.12)-1*%
%TF.CreationDate,2023-08-13T12:23:47+05:30*%
%TF.ProjectId,dancing led,64616e63-696e-4672-906c-65642e6b6963,rev?*%
%TF.SameCoordinates,Original*%
%TF.FileFunction,Legend,Top*%
%TF.FilePolarity,Positive*%
%FSLAX46Y46*%
G04 Gerber Fmt 4.6, Leading zero omitted, Abs format (unit mm)*
G04 Created by KiCad (PCBNEW (5.1.12)-1) date 2023-08-13 12:23:47*
%MOMM*%
%LPD*%
G01*
G04 APERTURE LIST*
%ADD10C,0.120000*%
%ADD11C,0.150000*%
G04 APERTURE END LIST*
D10*
%TO.C,T2*%
X169002629Y-102234674D02*
G75*
G03*
X168225098Y-101457084I2997371J3774674D01*
G01*
X168225098Y-101457084D02*
X167334144Y-102348039D01*
X167334144Y-102348039D02*
X168111961Y-103125856D01*
X168111961Y-103125856D02*
X169002916Y-102234902D01*
%TO.C,T1*%
X149002629Y-103234674D02*
G75*
G03*
X148225098Y-102457084I2997371J3774674D01*
G01*
X148225098Y-102457084D02*
X147334144Y-103348039D01*
X147334144Y-103348039D02*
X148111961Y-104125856D01*
X148111961Y-104125856D02*
X149002916Y-103234902D01*
%TO.C,R7*%
X177311130Y-74079837D02*
G75*
G02*
X175229039Y-74080000I-1041130J1079837D01*
G01*
X177311130Y-71920163D02*
G75*
G03*
X175229039Y-71920000I-1041130J-1079837D01*
G01*
X177942335Y-74078608D02*
G75*
G02*
X174710000Y-74235516I-1672335J1078608D01*
G01*
X177942335Y-71921392D02*
G75*
G03*
X174710000Y-71764484I-1672335J-1078608D01*
G01*
X174710000Y-71764000D02*
X174710000Y-71920000D01*
X174710000Y-74080000D02*
X174710000Y-74236000D01*
%TO.C,R6*%
X153688870Y-71920163D02*
G75*
G02*
X155770961Y-71920000I1041130J-1079837D01*
G01*
X153688870Y-74079837D02*
G75*
G03*
X155770961Y-74080000I1041130J1079837D01*
G01*
X153057665Y-71921392D02*
G75*
G02*
X156290000Y-71764484I1672335J-1078608D01*
G01*
X153057665Y-74078608D02*
G75*
G03*
X156290000Y-74235516I1672335J1078608D01*
G01*
X156290000Y-74236000D02*
X156290000Y-74080000D01*
X156290000Y-71920000D02*
X156290000Y-71764000D01*
%TO.C,R5*%
X140688870Y-71920163D02*
G75*
G02*
X142770961Y-71920000I1041130J-1079837D01*
G01*
X140688870Y-74079837D02*
G75*
G03*
X142770961Y-74080000I1041130J1079837D01*
G01*
X140057665Y-71921392D02*
G75*
G02*
X143290000Y-71764484I1672335J-1078608D01*
G01*
X140057665Y-74078608D02*
G75*
G03*
X143290000Y-74235516I1672335J1078608D01*
G01*
X143290000Y-74236000D02*
X143290000Y-74080000D01*
X143290000Y-71920000D02*
X143290000Y-71764000D01*
%TO.C,R4*%
X180920000Y-104620000D02*
X180920000Y-108460000D01*
X179080000Y-104620000D02*
X179080000Y-108460000D01*
%TO.C,R3*%
X144920000Y-104620000D02*
X144920000Y-108460000D01*
X143080000Y-104620000D02*
X143080000Y-108460000D01*
%TO.C,R2*%
X169920000Y-79620000D02*
X169920000Y-83460000D01*
X168080000Y-79620000D02*
X168080000Y-83460000D01*
%TO.C,R1*%
X156920000Y-80620000D02*
X156920000Y-84460000D01*
X155080000Y-80620000D02*
X155080000Y-84460000D01*
%TO.C,G3*%
X183311130Y-74079837D02*
G75*
G02*
X181229039Y-74080000I-1041130J1079837D01*
G01*
X183311130Y-71920163D02*
G75*
G03*
X181229039Y-71920000I-1041130J-1079837D01*
G01*
X183942335Y-74078608D02*
G75*
G02*
X180710000Y-74235516I-1672335J1078608D01*
G01*
X183942335Y-71921392D02*
G75*
G03*
X180710000Y-71764484I-1672335J-1078608D01*
G01*
X180710000Y-71764000D02*
X180710000Y-71920000D01*
X180710000Y-74080000D02*
X180710000Y-74236000D01*
%TO.C,G2*%
X171311130Y-74079837D02*
G75*
G02*
X169229039Y-74080000I-1041130J1079837D01*
G01*
X171311130Y-71920163D02*
G75*
G03*
X169229039Y-71920000I-1041130J-1079837D01*
G01*
X171942335Y-74078608D02*
G75*
G02*
X168710000Y-74235516I-1672335J1078608D01*
G01*
X171942335Y-71921392D02*
G75*
G03*
X168710000Y-71764484I-1672335J-1078608D01*
G01*
X168710000Y-71764000D02*
X168710000Y-71920000D01*
X168710000Y-74080000D02*
X168710000Y-74236000D01*
%TO.C,G1*%
X147228870Y-71920163D02*
G75*
G02*
X149310961Y-71920000I1041130J-1079837D01*
G01*
X147228870Y-74079837D02*
G75*
G03*
X149310961Y-74080000I1041130J1079837D01*
G01*
X146597665Y-71921392D02*
G75*
G02*
X149830000Y-71764484I1672335J-1078608D01*
G01*
X146597665Y-74078608D02*
G75*
G03*
X149830000Y-74235516I1672335J1078608D01*
G01*
X149830000Y-74236000D02*
X149830000Y-74080000D01*
X149830000Y-71920000D02*
X149830000Y-71764000D01*
%TO.C,C2*%
X182370000Y-91200000D02*
X180870000Y-91200000D01*
X181620000Y-91950000D02*
X181620000Y-90450000D01*
X180620000Y-91370000D02*
X180620000Y-86630000D01*
X170380000Y-91370000D02*
X170380000Y-86630000D01*
X180620000Y-91370000D02*
X179120000Y-91370000D01*
X179120000Y-91370000D02*
X178370000Y-90620000D01*
X178370000Y-90620000D02*
X177620000Y-91370000D01*
X177620000Y-91370000D02*
X170380000Y-91370000D01*
X180620000Y-86630000D02*
X179120000Y-86630000D01*
X179120000Y-86630000D02*
X178370000Y-87380000D01*
X178370000Y-87380000D02*
X177620000Y-86630000D01*
X177620000Y-86630000D02*
X170380000Y-86630000D01*
X181760000Y-89000000D02*
X180620000Y-89000000D01*
X169240000Y-89000000D02*
X170380000Y-89000000D01*
%TO.C,C1*%
X155370000Y-92200000D02*
X153870000Y-92200000D01*
X154620000Y-92950000D02*
X154620000Y-91450000D01*
X153620000Y-92370000D02*
X153620000Y-87630000D01*
X143380000Y-92370000D02*
X143380000Y-87630000D01*
X153620000Y-92370000D02*
X152120000Y-92370000D01*
X152120000Y-92370000D02*
X151370000Y-91620000D01*
X151370000Y-91620000D02*
X150620000Y-92370000D01*
X150620000Y-92370000D02*
X143380000Y-92370000D01*
X153620000Y-87630000D02*
X152120000Y-87630000D01*
X152120000Y-87630000D02*
X151370000Y-88380000D01*
X151370000Y-88380000D02*
X150620000Y-87630000D01*
X150620000Y-87630000D02*
X143380000Y-87630000D01*
X154760000Y-90000000D02*
X153620000Y-90000000D01*
X142240000Y-90000000D02*
X143380000Y-90000000D01*
%TO.C,9V1*%
X162560000Y-111330000D02*
X162560000Y-106130000D01*
X162560000Y-106130000D02*
X159900000Y-106130000D01*
X159900000Y-106130000D02*
X159900000Y-111330000D01*
X159900000Y-111330000D02*
X162560000Y-111330000D01*
X159900000Y-110380000D02*
X153900000Y-110380000D01*
X153900000Y-110380000D02*
X153900000Y-109620000D01*
X153900000Y-109620000D02*
X159900000Y-109620000D01*
X159900000Y-110320000D02*
X153900000Y-110320000D01*
X159900000Y-110200000D02*
X153900000Y-110200000D01*
X159900000Y-110080000D02*
X153900000Y-110080000D01*
X159900000Y-109960000D02*
X153900000Y-109960000D01*
X159900000Y-109840000D02*
X153900000Y-109840000D01*
X159900000Y-109720000D02*
X153900000Y-109720000D01*
X162890000Y-110380000D02*
X162560000Y-110380000D01*
X162890000Y-109620000D02*
X162560000Y-109620000D01*
X162560000Y-108730000D02*
X159900000Y-108730000D01*
X159900000Y-107840000D02*
X153900000Y-107840000D01*
X153900000Y-107840000D02*
X153900000Y-107080000D01*
X153900000Y-107080000D02*
X159900000Y-107080000D01*
X162957071Y-107840000D02*
X162560000Y-107840000D01*
X162957071Y-107080000D02*
X162560000Y-107080000D01*
X165270000Y-110000000D02*
X165270000Y-111270000D01*
X165270000Y-111270000D02*
X164000000Y-111270000D01*
%TO.C,T2*%
D11*
X165632380Y-99221904D02*
X165632380Y-98650476D01*
X166632380Y-98936190D02*
X165632380Y-98936190D01*
X165727619Y-98364761D02*
X165680000Y-98317142D01*
X165632380Y-98221904D01*
X165632380Y-97983809D01*
X165680000Y-97888571D01*
X165727619Y-97840952D01*
X165822857Y-97793333D01*
X165918095Y-97793333D01*
X166060952Y-97840952D01*
X166632380Y-98412380D01*
X166632380Y-97793333D01*
%TO.C,T1*%
X145632380Y-100221904D02*
X145632380Y-99650476D01*
X146632380Y-99936190D02*
X145632380Y-99936190D01*
X146632380Y-98793333D02*
X146632380Y-99364761D01*
X146632380Y-99079047D02*
X145632380Y-99079047D01*
X145775238Y-99174285D01*
X145870476Y-99269523D01*
X145918095Y-99364761D01*
%TO.C,R7*%
X176103333Y-70492380D02*
X175770000Y-70016190D01*
X175531904Y-70492380D02*
X175531904Y-69492380D01*
X175912857Y-69492380D01*
X176008095Y-69540000D01*
X176055714Y-69587619D01*
X176103333Y-69682857D01*
X176103333Y-69825714D01*
X176055714Y-69920952D01*
X176008095Y-69968571D01*
X175912857Y-70016190D01*
X175531904Y-70016190D01*
X176436666Y-69492380D02*
X177103333Y-69492380D01*
X176674761Y-70492380D01*
%TO.C,R6*%
X154563333Y-76412380D02*
X154230000Y-75936190D01*
X153991904Y-76412380D02*
X153991904Y-75412380D01*
X154372857Y-75412380D01*
X154468095Y-75460000D01*
X154515714Y-75507619D01*
X154563333Y-75602857D01*
X154563333Y-75745714D01*
X154515714Y-75840952D01*
X154468095Y-75888571D01*
X154372857Y-75936190D01*
X153991904Y-75936190D01*
X155420476Y-75412380D02*
X155230000Y-75412380D01*
X155134761Y-75460000D01*
X155087142Y-75507619D01*
X154991904Y-75650476D01*
X154944285Y-75840952D01*
X154944285Y-76221904D01*
X154991904Y-76317142D01*
X155039523Y-76364761D01*
X155134761Y-76412380D01*
X155325238Y-76412380D01*
X155420476Y-76364761D01*
X155468095Y-76317142D01*
X155515714Y-76221904D01*
X155515714Y-75983809D01*
X155468095Y-75888571D01*
X155420476Y-75840952D01*
X155325238Y-75793333D01*
X155134761Y-75793333D01*
X155039523Y-75840952D01*
X154991904Y-75888571D01*
X154944285Y-75983809D01*
%TO.C,R5*%
X141563333Y-76412380D02*
X141230000Y-75936190D01*
X140991904Y-76412380D02*
X140991904Y-75412380D01*
X141372857Y-75412380D01*
X141468095Y-75460000D01*
X141515714Y-75507619D01*
X141563333Y-75602857D01*
X141563333Y-75745714D01*
X141515714Y-75840952D01*
X141468095Y-75888571D01*
X141372857Y-75936190D01*
X140991904Y-75936190D01*
X142468095Y-75412380D02*
X141991904Y-75412380D01*
X141944285Y-75888571D01*
X141991904Y-75840952D01*
X142087142Y-75793333D01*
X142325238Y-75793333D01*
X142420476Y-75840952D01*
X142468095Y-75888571D01*
X142515714Y-75983809D01*
X142515714Y-76221904D01*
X142468095Y-76317142D01*
X142420476Y-76364761D01*
X142325238Y-76412380D01*
X142087142Y-76412380D01*
X141991904Y-76364761D01*
X141944285Y-76317142D01*
%TO.C,R4*%
X182372380Y-106706666D02*
X181896190Y-107040000D01*
X182372380Y-107278095D02*
X181372380Y-107278095D01*
X181372380Y-106897142D01*
X181420000Y-106801904D01*
X181467619Y-106754285D01*
X181562857Y-106706666D01*
X181705714Y-106706666D01*
X181800952Y-106754285D01*
X181848571Y-106801904D01*
X181896190Y-106897142D01*
X181896190Y-107278095D01*
X181705714Y-105849523D02*
X182372380Y-105849523D01*
X181324761Y-106087619D02*
X182039047Y-106325714D01*
X182039047Y-105706666D01*
%TO.C,R3*%
X146372380Y-106706666D02*
X145896190Y-107040000D01*
X146372380Y-107278095D02*
X145372380Y-107278095D01*
X145372380Y-106897142D01*
X145420000Y-106801904D01*
X145467619Y-106754285D01*
X145562857Y-106706666D01*
X145705714Y-106706666D01*
X145800952Y-106754285D01*
X145848571Y-106801904D01*
X145896190Y-106897142D01*
X145896190Y-107278095D01*
X145372380Y-106373333D02*
X145372380Y-105754285D01*
X145753333Y-106087619D01*
X145753333Y-105944761D01*
X145800952Y-105849523D01*
X145848571Y-105801904D01*
X145943809Y-105754285D01*
X146181904Y-105754285D01*
X146277142Y-105801904D01*
X146324761Y-105849523D01*
X146372380Y-105944761D01*
X146372380Y-106230476D01*
X146324761Y-106325714D01*
X146277142Y-106373333D01*
%TO.C,R2*%
X171372380Y-81706666D02*
X170896190Y-82040000D01*
X171372380Y-82278095D02*
X170372380Y-82278095D01*
X170372380Y-81897142D01*
X170420000Y-81801904D01*
X170467619Y-81754285D01*
X170562857Y-81706666D01*
X170705714Y-81706666D01*
X170800952Y-81754285D01*
X170848571Y-81801904D01*
X170896190Y-81897142D01*
X170896190Y-82278095D01*
X170467619Y-81325714D02*
X170420000Y-81278095D01*
X170372380Y-81182857D01*
X170372380Y-80944761D01*
X170420000Y-80849523D01*
X170467619Y-80801904D01*
X170562857Y-80754285D01*
X170658095Y-80754285D01*
X170800952Y-80801904D01*
X171372380Y-81373333D01*
X171372380Y-80754285D01*
%TO.C,R1*%
X158372380Y-82706666D02*
X157896190Y-83040000D01*
X158372380Y-83278095D02*
X157372380Y-83278095D01*
X157372380Y-82897142D01*
X157420000Y-82801904D01*
X157467619Y-82754285D01*
X157562857Y-82706666D01*
X157705714Y-82706666D01*
X157800952Y-82754285D01*
X157848571Y-82801904D01*
X157896190Y-82897142D01*
X157896190Y-83278095D01*
X158372380Y-81754285D02*
X158372380Y-82325714D01*
X158372380Y-82040000D02*
X157372380Y-82040000D01*
X157515238Y-82135238D01*
X157610476Y-82230476D01*
X157658095Y-82325714D01*
%TO.C,G3*%
X182055714Y-69540000D02*
X181960476Y-69492380D01*
X181817619Y-69492380D01*
X181674761Y-69540000D01*
X181579523Y-69635238D01*
X181531904Y-69730476D01*
X181484285Y-69920952D01*
X181484285Y-70063809D01*
X181531904Y-70254285D01*
X181579523Y-70349523D01*
X181674761Y-70444761D01*
X181817619Y-70492380D01*
X181912857Y-70492380D01*
X182055714Y-70444761D01*
X182103333Y-70397142D01*
X182103333Y-70063809D01*
X181912857Y-70063809D01*
X182436666Y-69492380D02*
X183055714Y-69492380D01*
X182722380Y-69873333D01*
X182865238Y-69873333D01*
X182960476Y-69920952D01*
X183008095Y-69968571D01*
X183055714Y-70063809D01*
X183055714Y-70301904D01*
X183008095Y-70397142D01*
X182960476Y-70444761D01*
X182865238Y-70492380D01*
X182579523Y-70492380D01*
X182484285Y-70444761D01*
X182436666Y-70397142D01*
%TO.C,G2*%
X170055714Y-69540000D02*
X169960476Y-69492380D01*
X169817619Y-69492380D01*
X169674761Y-69540000D01*
X169579523Y-69635238D01*
X169531904Y-69730476D01*
X169484285Y-69920952D01*
X169484285Y-70063809D01*
X169531904Y-70254285D01*
X169579523Y-70349523D01*
X169674761Y-70444761D01*
X169817619Y-70492380D01*
X169912857Y-70492380D01*
X170055714Y-70444761D01*
X170103333Y-70397142D01*
X170103333Y-70063809D01*
X169912857Y-70063809D01*
X170484285Y-69587619D02*
X170531904Y-69540000D01*
X170627142Y-69492380D01*
X170865238Y-69492380D01*
X170960476Y-69540000D01*
X171008095Y-69587619D01*
X171055714Y-69682857D01*
X171055714Y-69778095D01*
X171008095Y-69920952D01*
X170436666Y-70492380D01*
X171055714Y-70492380D01*
%TO.C,G1*%
X148055714Y-75460000D02*
X147960476Y-75412380D01*
X147817619Y-75412380D01*
X147674761Y-75460000D01*
X147579523Y-75555238D01*
X147531904Y-75650476D01*
X147484285Y-75840952D01*
X147484285Y-75983809D01*
X147531904Y-76174285D01*
X147579523Y-76269523D01*
X147674761Y-76364761D01*
X147817619Y-76412380D01*
X147912857Y-76412380D01*
X148055714Y-76364761D01*
X148103333Y-76317142D01*
X148103333Y-75983809D01*
X147912857Y-75983809D01*
X149055714Y-76412380D02*
X148484285Y-76412380D01*
X148770000Y-76412380D02*
X148770000Y-75412380D01*
X148674761Y-75555238D01*
X148579523Y-75650476D01*
X148484285Y-75698095D01*
%TO.C,C2*%
X175333333Y-92727142D02*
X175285714Y-92774761D01*
X175142857Y-92822380D01*
X175047619Y-92822380D01*
X174904761Y-92774761D01*
X174809523Y-92679523D01*
X174761904Y-92584285D01*
X174714285Y-92393809D01*
X174714285Y-92250952D01*
X174761904Y-92060476D01*
X174809523Y-91965238D01*
X174904761Y-91870000D01*
X175047619Y-91822380D01*
X175142857Y-91822380D01*
X175285714Y-91870000D01*
X175333333Y-91917619D01*
X175714285Y-91917619D02*
X175761904Y-91870000D01*
X175857142Y-91822380D01*
X176095238Y-91822380D01*
X176190476Y-91870000D01*
X176238095Y-91917619D01*
X176285714Y-92012857D01*
X176285714Y-92108095D01*
X176238095Y-92250952D01*
X175666666Y-92822380D01*
X176285714Y-92822380D01*
%TO.C,C1*%
X148333333Y-93727142D02*
X148285714Y-93774761D01*
X148142857Y-93822380D01*
X148047619Y-93822380D01*
X147904761Y-93774761D01*
X147809523Y-93679523D01*
X147761904Y-93584285D01*
X147714285Y-93393809D01*
X147714285Y-93250952D01*
X147761904Y-93060476D01*
X147809523Y-92965238D01*
X147904761Y-92870000D01*
X148047619Y-92822380D01*
X148142857Y-92822380D01*
X148285714Y-92870000D01*
X148333333Y-92917619D01*
X149285714Y-93822380D02*
X148714285Y-93822380D01*
X149000000Y-93822380D02*
X149000000Y-92822380D01*
X148904761Y-92965238D01*
X148809523Y-93060476D01*
X148714285Y-93108095D01*
%TO.C,9V1*%
X158519761Y-112722380D02*
X158710238Y-112722380D01*
X158805476Y-112674761D01*
X158853095Y-112627142D01*
X158948333Y-112484285D01*
X158995952Y-112293809D01*
X158995952Y-111912857D01*
X158948333Y-111817619D01*
X158900714Y-111770000D01*
X158805476Y-111722380D01*
X158615000Y-111722380D01*
X158519761Y-111770000D01*
X158472142Y-111817619D01*
X158424523Y-111912857D01*
X158424523Y-112150952D01*
X158472142Y-112246190D01*
X158519761Y-112293809D01*
X158615000Y-112341428D01*
X158805476Y-112341428D01*
X158900714Y-112293809D01*
X158948333Y-112246190D01*
X158995952Y-112150952D01*
X159281666Y-111722380D02*
X159615000Y-112722380D01*
X159948333Y-111722380D01*
X160805476Y-112722380D02*
X160234047Y-112722380D01*
X160519761Y-112722380D02*
X160519761Y-111722380D01*
X160424523Y-111865238D01*
X160329285Y-111960476D01*
X160234047Y-112008095D01*
%TD*%
M02*
