%TF.GenerationSoftware,KiCad,Pcbnew,(5.1.12)-1*%
%TF.CreationDate,2023-08-18T21:24:08+05:30*%
%TF.ProjectId,Fire alaram,46697265-2061-46c6-9172-616d2e6b6963,rev?*%
%TF.SameCoordinates,Original*%
%TF.FileFunction,Copper,L2,Bot*%
%TF.FilePolarity,Positive*%
%FSLAX46Y46*%
G04 Gerber Fmt 4.6, Leading zero omitted, Abs format (unit mm)*
G04 Created by KiCad (PCBNEW (5.1.12)-1) date 2023-08-18 21:24:08*
%MOMM*%
%LPD*%
G01*
G04 APERTURE LIST*
%TA.AperFunction,ComponentPad*%
%ADD10C,2.340000*%
%TD*%
%TA.AperFunction,ComponentPad*%
%ADD11O,1.600000X2.400000*%
%TD*%
%TA.AperFunction,ComponentPad*%
%ADD12R,1.600000X2.400000*%
%TD*%
%TA.AperFunction,ComponentPad*%
%ADD13O,1.400000X1.400000*%
%TD*%
%TA.AperFunction,ComponentPad*%
%ADD14C,1.400000*%
%TD*%
%TA.AperFunction,ComponentPad*%
%ADD15R,1.050000X1.500000*%
%TD*%
%TA.AperFunction,ComponentPad*%
%ADD16O,1.050000X1.500000*%
%TD*%
%TA.AperFunction,ComponentPad*%
%ADD17O,1.700000X1.700000*%
%TD*%
%TA.AperFunction,ComponentPad*%
%ADD18R,1.700000X1.700000*%
%TD*%
%TA.AperFunction,ComponentPad*%
%ADD19O,1.600000X1.600000*%
%TD*%
%TA.AperFunction,ComponentPad*%
%ADD20R,1.600000X1.600000*%
%TD*%
%TA.AperFunction,ComponentPad*%
%ADD21C,1.200000*%
%TD*%
%TA.AperFunction,ComponentPad*%
%ADD22R,1.200000X1.200000*%
%TD*%
%TA.AperFunction,ViaPad*%
%ADD23C,3.500000*%
%TD*%
%TA.AperFunction,Conductor*%
%ADD24C,0.250000*%
%TD*%
%TA.AperFunction,Conductor*%
%ADD25C,0.254000*%
%TD*%
%TA.AperFunction,Conductor*%
%ADD26C,0.100000*%
%TD*%
G04 APERTURE END LIST*
D10*
%TO.P,RV1,1*%
%TO.N,Net-(BT1-Pad1)*%
X122100000Y-68060000D03*
%TO.P,RV1,2*%
%TO.N,Net-(RV1-Pad2)*%
X122100000Y-63060000D03*
%TO.P,RV1,3*%
%TO.N,Net-(R1-Pad1)*%
X122100000Y-58060000D03*
%TD*%
D11*
%TO.P,U1,8*%
%TO.N,Net-(BT1-Pad1)*%
X136652000Y-73406000D03*
%TO.P,U1,4*%
%TO.N,Net-(Q1-Pad1)*%
X144272000Y-81026000D03*
%TO.P,U1,7*%
%TO.N,Net-(R3-Pad2)*%
X139192000Y-73406000D03*
%TO.P,U1,3*%
%TO.N,Net-(C2-Pad1)*%
X141732000Y-81026000D03*
%TO.P,U1,6*%
%TO.N,Net-(R4-Pad2)*%
X141732000Y-73406000D03*
%TO.P,U1,2*%
X139192000Y-81026000D03*
%TO.P,U1,5*%
%TO.N,Net-(C1-Pad1)*%
X144272000Y-73406000D03*
D12*
%TO.P,U1,1*%
%TO.N,Earth*%
X136652000Y-81026000D03*
%TD*%
D13*
%TO.P,R4,2*%
%TO.N,Net-(R4-Pad2)*%
X133350000Y-78486000D03*
D14*
%TO.P,R4,1*%
%TO.N,Net-(R3-Pad2)*%
X133350000Y-73406000D03*
%TD*%
D13*
%TO.P,R3,2*%
%TO.N,Net-(R3-Pad2)*%
X129540000Y-73406000D03*
D14*
%TO.P,R3,1*%
%TO.N,Net-(BT1-Pad1)*%
X129540000Y-78486000D03*
%TD*%
D13*
%TO.P,R2,2*%
%TO.N,Net-(Q1-Pad1)*%
X125984000Y-78486000D03*
D14*
%TO.P,R2,1*%
%TO.N,Net-(BT1-Pad1)*%
X125984000Y-73406000D03*
%TD*%
D13*
%TO.P,R1,2*%
%TO.N,Net-(D1-Pad1)*%
X121920000Y-78232000D03*
D14*
%TO.P,R1,1*%
%TO.N,Net-(R1-Pad1)*%
X121920000Y-73152000D03*
%TD*%
D15*
%TO.P,Q1,1*%
%TO.N,Net-(Q1-Pad1)*%
X131800000Y-82920000D03*
D16*
%TO.P,Q1,3*%
%TO.N,Earth*%
X134340000Y-82920000D03*
%TO.P,Q1,2*%
%TO.N,Net-(D1-Pad1)*%
X133070000Y-82920000D03*
%TD*%
D17*
%TO.P,LS1,2*%
%TO.N,Earth*%
X153000000Y-76460000D03*
D18*
%TO.P,LS1,1*%
%TO.N,Net-(C2-Pad2)*%
X153000000Y-79000000D03*
%TD*%
D19*
%TO.P,D1,2*%
%TO.N,Earth*%
X121920000Y-81534000D03*
D20*
%TO.P,D1,1*%
%TO.N,Net-(D1-Pad1)*%
X129540000Y-81534000D03*
%TD*%
D21*
%TO.P,C2,2*%
%TO.N,Net-(C2-Pad2)*%
X150000000Y-81000000D03*
D22*
%TO.P,C2,1*%
%TO.N,Net-(C2-Pad1)*%
X148000000Y-81000000D03*
%TD*%
D21*
%TO.P,C1,2*%
%TO.N,Earth*%
X149000000Y-76000000D03*
D22*
%TO.P,C1,1*%
%TO.N,Net-(C1-Pad1)*%
X149000000Y-74000000D03*
%TD*%
D17*
%TO.P,BT1,2*%
%TO.N,Earth*%
X125700000Y-84490000D03*
D18*
%TO.P,BT1,1*%
%TO.N,Net-(BT1-Pad1)*%
X123160000Y-84490000D03*
%TD*%
D23*
%TO.N,*%
X118000000Y-54000000D03*
X156000000Y-54000000D03*
X156000000Y-88000000D03*
X118000000Y-88000000D03*
%TD*%
D24*
%TO.N,Net-(BT1-Pad1)*%
X125984000Y-73406000D02*
X127000000Y-73406000D01*
X127000000Y-73406000D02*
X127762000Y-74168000D01*
X127762000Y-74168000D02*
X127762000Y-77724000D01*
X128524000Y-78486000D02*
X129540000Y-78486000D01*
X127762000Y-77724000D02*
X128524000Y-78486000D01*
X125984000Y-72136000D02*
X125984000Y-73406000D01*
X125730000Y-71882000D02*
X125984000Y-72136000D01*
X119888000Y-71120000D02*
X120650000Y-71882000D01*
X119888000Y-68834000D02*
X119888000Y-71120000D01*
X120650000Y-68072000D02*
X119888000Y-68834000D01*
X122174000Y-68072000D02*
X120650000Y-68072000D01*
X123444000Y-71882000D02*
X125730000Y-71882000D01*
X120650000Y-71882000D02*
X123444000Y-71882000D01*
X136652000Y-73406000D02*
X135890000Y-73406000D01*
X122936000Y-74168000D02*
X123444000Y-73660000D01*
X122421002Y-74168000D02*
X122936000Y-74168000D01*
X121418998Y-74168000D02*
X121427999Y-74177001D01*
X122412001Y-74177001D02*
X122421002Y-74168000D01*
X119634000Y-74422000D02*
X119888000Y-74168000D01*
X123444000Y-73660000D02*
X123444000Y-71882000D01*
X121427999Y-74177001D02*
X122412001Y-74177001D01*
X119888000Y-74168000D02*
X121418998Y-74168000D01*
X123160000Y-84490000D02*
X120730000Y-84490000D01*
X119634000Y-83394000D02*
X119634000Y-74422000D01*
X120730000Y-84490000D02*
X119634000Y-83394000D01*
X134874000Y-73406000D02*
X136652000Y-73406000D01*
X134677990Y-76904010D02*
X134677990Y-73602010D01*
X134677990Y-73602010D02*
X134874000Y-73406000D01*
X134121001Y-77460999D02*
X134677990Y-76904010D01*
X132857999Y-77460999D02*
X134121001Y-77460999D01*
X132848998Y-77470000D02*
X132857999Y-77460999D01*
X130880000Y-77470000D02*
X132848998Y-77470000D01*
X130720000Y-77630000D02*
X130880000Y-77470000D01*
X130720000Y-78200000D02*
X130720000Y-77630000D01*
X130434000Y-78486000D02*
X130720000Y-78200000D01*
X129540000Y-78486000D02*
X130434000Y-78486000D01*
%TO.N,Net-(C1-Pad1)*%
X144272000Y-72898000D02*
X144272000Y-73406000D01*
X144272000Y-73406000D02*
X144272000Y-71348000D01*
X144272000Y-71348000D02*
X145120000Y-70500000D01*
X145120000Y-70500000D02*
X149000000Y-70500000D01*
X149000000Y-70500000D02*
X149910000Y-71410000D01*
X149910000Y-73090000D02*
X149000000Y-74000000D01*
X149910000Y-71410000D02*
X149910000Y-73090000D01*
%TO.N,Net-(C2-Pad2)*%
X150000000Y-81000000D02*
X151980000Y-81000000D01*
X153000000Y-79980000D02*
X153000000Y-79000000D01*
X151980000Y-81000000D02*
X153000000Y-79980000D01*
%TO.N,Net-(C2-Pad1)*%
X148000000Y-82310000D02*
X148000000Y-81000000D01*
X147480000Y-82830000D02*
X148000000Y-82310000D01*
X142340000Y-82830000D02*
X147480000Y-82830000D01*
X141732000Y-82222000D02*
X142340000Y-82830000D01*
X141732000Y-81026000D02*
X141732000Y-82222000D01*
%TO.N,Net-(D1-Pad1)*%
X121920000Y-79502000D02*
X121920000Y-78232000D01*
X122428000Y-80010000D02*
X121920000Y-79502000D01*
X129066000Y-80010000D02*
X122428000Y-80010000D01*
X129540000Y-81534000D02*
X129540000Y-80484000D01*
X129540000Y-80484000D02*
X129066000Y-80010000D01*
X132630000Y-85230000D02*
X133070000Y-84790000D01*
X130230000Y-85230000D02*
X132630000Y-85230000D01*
X129560000Y-84560000D02*
X130230000Y-85230000D01*
X133070000Y-84790000D02*
X133070000Y-82920000D01*
X129560000Y-81554000D02*
X129560000Y-84560000D01*
X129540000Y-81534000D02*
X129560000Y-81554000D01*
%TO.N,Net-(Q1-Pad1)*%
X132848998Y-79502000D02*
X132857999Y-79511001D01*
X130041002Y-79502000D02*
X132848998Y-79502000D01*
X129038998Y-79502000D02*
X129047999Y-79511001D01*
X126492000Y-79502000D02*
X129038998Y-79502000D01*
X125984000Y-78994000D02*
X126492000Y-79502000D01*
X130032001Y-79511001D02*
X130041002Y-79502000D01*
X129047999Y-79511001D02*
X130032001Y-79511001D01*
X125984000Y-78486000D02*
X125984000Y-78994000D01*
X132857999Y-79511001D02*
X134152999Y-79511001D01*
X144272000Y-79882000D02*
X144272000Y-81026000D01*
X141060000Y-79470000D02*
X143860000Y-79470000D01*
X140420000Y-80110000D02*
X141060000Y-79470000D01*
X140420000Y-82170000D02*
X140420000Y-80110000D01*
X139960000Y-82630000D02*
X140420000Y-82170000D01*
X138256000Y-82630000D02*
X139960000Y-82630000D01*
X143860000Y-79470000D02*
X144272000Y-79882000D01*
X137922000Y-82296000D02*
X138256000Y-82630000D01*
X137922000Y-79710998D02*
X137922000Y-82296000D01*
X137712001Y-79500999D02*
X137922000Y-79710998D01*
X135591999Y-79500999D02*
X137712001Y-79500999D01*
X135590998Y-79502000D02*
X135591999Y-79500999D01*
X134162000Y-79502000D02*
X135590998Y-79502000D01*
X131800000Y-81490000D02*
X131800000Y-82920000D01*
X133510000Y-80910000D02*
X132380000Y-80910000D01*
X133858000Y-80562000D02*
X133510000Y-80910000D01*
X132380000Y-80910000D02*
X131800000Y-81490000D01*
X133858000Y-79502000D02*
X133858000Y-80562000D01*
%TO.N,Net-(R1-Pad1)*%
X122174000Y-58072000D02*
X119474000Y-58072000D01*
X119474000Y-58072000D02*
X118618000Y-58928000D01*
X118618000Y-58928000D02*
X118618000Y-72390000D01*
X119380000Y-73152000D02*
X121920000Y-73152000D01*
X118618000Y-72390000D02*
X119380000Y-73152000D01*
%TO.N,Net-(R3-Pad2)*%
X129540000Y-73406000D02*
X133350000Y-73406000D01*
X133350000Y-71882000D02*
X133350000Y-73406000D01*
X133604000Y-71628000D02*
X133350000Y-71882000D01*
X138938000Y-71628000D02*
X133604000Y-71628000D01*
X139192000Y-71882000D02*
X138938000Y-71628000D01*
X139192000Y-73406000D02*
X139192000Y-71882000D01*
%TO.N,Net-(R4-Pad2)*%
X139700000Y-80518000D02*
X139192000Y-81026000D01*
X139700000Y-80010000D02*
X139700000Y-80518000D01*
X141478000Y-73660000D02*
X141732000Y-73406000D01*
X139192000Y-81026000D02*
X139192000Y-78994000D01*
X133858000Y-78994000D02*
X133350000Y-78486000D01*
X139192000Y-78994000D02*
X133858000Y-78994000D01*
X141732000Y-76352000D02*
X141732000Y-73406000D01*
X141750000Y-76370000D02*
X141732000Y-76352000D01*
X141750000Y-78440000D02*
X141750000Y-76370000D01*
X141196000Y-78994000D02*
X141750000Y-78440000D01*
X139192000Y-78994000D02*
X141196000Y-78994000D01*
%TD*%
D25*
%TO.N,Earth*%
X153886440Y-52870279D02*
X153706654Y-53304321D01*
X153615000Y-53765098D01*
X153615000Y-54234902D01*
X153706654Y-54695679D01*
X153886440Y-55129721D01*
X154147450Y-55520349D01*
X154479651Y-55852550D01*
X154870279Y-56113560D01*
X155304321Y-56293346D01*
X155765098Y-56385000D01*
X156234902Y-56385000D01*
X156695679Y-56293346D01*
X157129721Y-56113560D01*
X157340000Y-55973056D01*
X157340001Y-86026945D01*
X157129721Y-85886440D01*
X156695679Y-85706654D01*
X156234902Y-85615000D01*
X155765098Y-85615000D01*
X155304321Y-85706654D01*
X154870279Y-85886440D01*
X154479651Y-86147450D01*
X154147450Y-86479651D01*
X153886440Y-86870279D01*
X153706654Y-87304321D01*
X153615000Y-87765098D01*
X153615000Y-88234902D01*
X153706654Y-88695679D01*
X153886440Y-89129721D01*
X154026944Y-89340000D01*
X119973056Y-89340000D01*
X120113560Y-89129721D01*
X120293346Y-88695679D01*
X120385000Y-88234902D01*
X120385000Y-87765098D01*
X120293346Y-87304321D01*
X120239287Y-87173810D01*
X131498036Y-87173810D01*
X131506728Y-87235337D01*
X131599725Y-87444882D01*
X131731816Y-87632258D01*
X131897924Y-87790264D01*
X132091666Y-87912828D01*
X132305596Y-87995239D01*
X132531493Y-88034331D01*
X132715000Y-87874598D01*
X132715000Y-86995000D01*
X132969000Y-86995000D01*
X132969000Y-87874598D01*
X133152507Y-88034331D01*
X133378404Y-87995239D01*
X133592334Y-87912828D01*
X133786076Y-87790264D01*
X133952184Y-87632258D01*
X134084275Y-87444882D01*
X134177272Y-87235337D01*
X134185964Y-87173810D01*
X134060163Y-86995000D01*
X132969000Y-86995000D01*
X132715000Y-86995000D01*
X131623837Y-86995000D01*
X131498036Y-87173810D01*
X120239287Y-87173810D01*
X120113560Y-86870279D01*
X119852550Y-86479651D01*
X119520349Y-86147450D01*
X119129721Y-85886440D01*
X118695679Y-85706654D01*
X118234902Y-85615000D01*
X117765098Y-85615000D01*
X117304321Y-85706654D01*
X116870279Y-85886440D01*
X116660000Y-86026944D01*
X116660000Y-58928000D01*
X117854324Y-58928000D01*
X117858000Y-58965322D01*
X117858001Y-72352668D01*
X117854324Y-72390000D01*
X117868998Y-72538985D01*
X117912454Y-72682246D01*
X117983026Y-72814276D01*
X118041070Y-72885002D01*
X118078000Y-72930001D01*
X118106998Y-72953799D01*
X118816201Y-73663002D01*
X118839999Y-73692001D01*
X118955724Y-73786974D01*
X119087753Y-73857546D01*
X119114069Y-73865529D01*
X119094000Y-73881999D01*
X119070202Y-73910997D01*
X119070201Y-73910998D01*
X118999026Y-73997724D01*
X118928454Y-74129754D01*
X118905251Y-74206247D01*
X118884998Y-74273014D01*
X118874001Y-74384667D01*
X118870324Y-74422000D01*
X118874001Y-74459332D01*
X118874000Y-84290678D01*
X118870324Y-84328000D01*
X118874000Y-84365322D01*
X118874000Y-84365332D01*
X118884997Y-84476985D01*
X118924517Y-84607267D01*
X118928454Y-84620246D01*
X118999026Y-84752276D01*
X119016681Y-84773788D01*
X119093999Y-84868001D01*
X119123002Y-84891803D01*
X119832201Y-85601002D01*
X119855999Y-85630001D01*
X119971724Y-85724974D01*
X120103753Y-85795546D01*
X120247014Y-85839003D01*
X120358667Y-85850000D01*
X120358675Y-85850000D01*
X120396000Y-85853676D01*
X120433325Y-85850000D01*
X121193928Y-85850000D01*
X121193928Y-85940000D01*
X121206188Y-86064482D01*
X121242498Y-86184180D01*
X121301463Y-86294494D01*
X121380815Y-86391185D01*
X121477506Y-86470537D01*
X121587820Y-86529502D01*
X121707518Y-86565812D01*
X121832000Y-86578072D01*
X123532000Y-86578072D01*
X123656482Y-86565812D01*
X123776180Y-86529502D01*
X123886494Y-86470537D01*
X123983185Y-86391185D01*
X124062537Y-86294494D01*
X124121502Y-86184180D01*
X124145966Y-86103534D01*
X124221731Y-86187588D01*
X124455080Y-86361641D01*
X124717901Y-86486825D01*
X124865110Y-86531476D01*
X125095000Y-86410155D01*
X125095000Y-85217000D01*
X125349000Y-85217000D01*
X125349000Y-86410155D01*
X125578890Y-86531476D01*
X125726099Y-86486825D01*
X125988920Y-86361641D01*
X126222269Y-86187588D01*
X126417178Y-85971355D01*
X126566157Y-85721252D01*
X126663481Y-85446891D01*
X126542814Y-85217000D01*
X125349000Y-85217000D01*
X125095000Y-85217000D01*
X125075000Y-85217000D01*
X125075000Y-84963000D01*
X125095000Y-84963000D01*
X125095000Y-83769845D01*
X125349000Y-83769845D01*
X125349000Y-84963000D01*
X126542814Y-84963000D01*
X126663481Y-84733109D01*
X126566157Y-84458748D01*
X126417178Y-84208645D01*
X126222269Y-83992412D01*
X125988920Y-83818359D01*
X125726099Y-83693175D01*
X125578890Y-83648524D01*
X125349000Y-83769845D01*
X125095000Y-83769845D01*
X124865110Y-83648524D01*
X124717901Y-83693175D01*
X124455080Y-83818359D01*
X124221731Y-83992412D01*
X124145966Y-84076466D01*
X124121502Y-83995820D01*
X124062537Y-83885506D01*
X123983185Y-83788815D01*
X123886494Y-83709463D01*
X123776180Y-83650498D01*
X123656482Y-83614188D01*
X123532000Y-83601928D01*
X121832000Y-83601928D01*
X121707518Y-83614188D01*
X121587820Y-83650498D01*
X121477506Y-83709463D01*
X121380815Y-83788815D01*
X121301463Y-83885506D01*
X121242498Y-83995820D01*
X121206188Y-84115518D01*
X121193928Y-84240000D01*
X121193928Y-84330000D01*
X120710802Y-84330000D01*
X120394000Y-84013199D01*
X120394000Y-81883039D01*
X120528096Y-81883039D01*
X120568754Y-82017087D01*
X120688963Y-82271420D01*
X120856481Y-82497414D01*
X121064869Y-82686385D01*
X121306119Y-82831070D01*
X121570960Y-82925909D01*
X121793000Y-82804624D01*
X121793000Y-81661000D01*
X122047000Y-81661000D01*
X122047000Y-82804624D01*
X122269040Y-82925909D01*
X122533881Y-82831070D01*
X122775131Y-82686385D01*
X122983519Y-82497414D01*
X123151037Y-82271420D01*
X123271246Y-82017087D01*
X123311904Y-81883039D01*
X123189915Y-81661000D01*
X122047000Y-81661000D01*
X121793000Y-81661000D01*
X120650085Y-81661000D01*
X120528096Y-81883039D01*
X120394000Y-81883039D01*
X120394000Y-74928000D01*
X121299278Y-74928000D01*
X121390666Y-74937001D01*
X121390676Y-74937001D01*
X121427998Y-74940677D01*
X121465321Y-74937001D01*
X122374679Y-74937001D01*
X122412001Y-74940677D01*
X122449323Y-74937001D01*
X122449334Y-74937001D01*
X122540722Y-74928000D01*
X122898678Y-74928000D01*
X122936000Y-74931676D01*
X122973322Y-74928000D01*
X122973333Y-74928000D01*
X123084986Y-74917003D01*
X123228247Y-74873546D01*
X123360276Y-74802974D01*
X123476001Y-74708001D01*
X123499803Y-74678998D01*
X123955003Y-74223798D01*
X123984001Y-74200001D01*
X124078974Y-74084276D01*
X124149546Y-73952247D01*
X124193003Y-73808986D01*
X124204000Y-73697333D01*
X124204000Y-73697324D01*
X124207676Y-73660001D01*
X124204000Y-73622678D01*
X124204000Y-72642000D01*
X124888898Y-72642000D01*
X124800939Y-72773641D01*
X124700304Y-73016595D01*
X124649000Y-73274514D01*
X124649000Y-73537486D01*
X124700304Y-73795405D01*
X124800939Y-74038359D01*
X124947038Y-74257013D01*
X125132987Y-74442962D01*
X125351641Y-74589061D01*
X125594595Y-74689696D01*
X125852514Y-74741000D01*
X126115486Y-74741000D01*
X126373405Y-74689696D01*
X126616359Y-74589061D01*
X126835013Y-74442962D01*
X126898587Y-74379388D01*
X127002000Y-74482802D01*
X127002001Y-77616026D01*
X126835013Y-77449038D01*
X126616359Y-77302939D01*
X126373405Y-77202304D01*
X126115486Y-77151000D01*
X125852514Y-77151000D01*
X125594595Y-77202304D01*
X125351641Y-77302939D01*
X125132987Y-77449038D01*
X124947038Y-77634987D01*
X124800939Y-77853641D01*
X124700304Y-78096595D01*
X124649000Y-78354514D01*
X124649000Y-78617486D01*
X124700304Y-78875405D01*
X124800939Y-79118359D01*
X124888898Y-79250000D01*
X122789975Y-79250000D01*
X122956962Y-79083013D01*
X123103061Y-78864359D01*
X123203696Y-78621405D01*
X123255000Y-78363486D01*
X123255000Y-78100514D01*
X123203696Y-77842595D01*
X123103061Y-77599641D01*
X122956962Y-77380987D01*
X122771013Y-77195038D01*
X122552359Y-77048939D01*
X122309405Y-76948304D01*
X122051486Y-76897000D01*
X121788514Y-76897000D01*
X121530595Y-76948304D01*
X121287641Y-77048939D01*
X121068987Y-77195038D01*
X120883038Y-77380987D01*
X120736939Y-77599641D01*
X120636304Y-77842595D01*
X120585000Y-78100514D01*
X120585000Y-78363486D01*
X120636304Y-78621405D01*
X120736939Y-78864359D01*
X120883038Y-79083013D01*
X121068987Y-79268962D01*
X121160000Y-79329775D01*
X121160000Y-79464677D01*
X121156324Y-79502000D01*
X121160000Y-79539322D01*
X121160000Y-79539332D01*
X121170997Y-79650985D01*
X121196704Y-79735730D01*
X121214454Y-79794246D01*
X121285026Y-79926276D01*
X121307944Y-79954201D01*
X121379999Y-80042001D01*
X121409002Y-80065803D01*
X121507879Y-80164680D01*
X121306119Y-80236930D01*
X121064869Y-80381615D01*
X120856481Y-80570586D01*
X120688963Y-80796580D01*
X120568754Y-81050913D01*
X120528096Y-81184961D01*
X120650085Y-81407000D01*
X121793000Y-81407000D01*
X121793000Y-81387000D01*
X122047000Y-81387000D01*
X122047000Y-81407000D01*
X123189915Y-81407000D01*
X123311904Y-81184961D01*
X123271246Y-81050913D01*
X123151037Y-80796580D01*
X123131335Y-80770000D01*
X128101928Y-80770000D01*
X128101928Y-82334000D01*
X128114188Y-82458482D01*
X128150498Y-82578180D01*
X128209463Y-82688494D01*
X128288815Y-82785185D01*
X128385506Y-82864537D01*
X128495820Y-82923502D01*
X128615518Y-82959812D01*
X128740000Y-82972072D01*
X128780000Y-82972072D01*
X128780001Y-85052668D01*
X128776324Y-85090000D01*
X128790998Y-85238985D01*
X128834454Y-85382246D01*
X128905026Y-85514276D01*
X128973737Y-85598000D01*
X129000000Y-85630001D01*
X129028998Y-85653799D01*
X129484200Y-86109002D01*
X129507999Y-86138001D01*
X129623724Y-86232974D01*
X129755753Y-86303546D01*
X129899014Y-86347003D01*
X130010667Y-86358000D01*
X130010676Y-86358000D01*
X130047999Y-86361676D01*
X130085322Y-86358000D01*
X131570042Y-86358000D01*
X131506728Y-86500663D01*
X131498036Y-86562190D01*
X131623837Y-86741000D01*
X132388891Y-86741000D01*
X132389600Y-86741215D01*
X132560021Y-86758000D01*
X133123979Y-86758000D01*
X133294400Y-86741215D01*
X133295109Y-86741000D01*
X134060163Y-86741000D01*
X134185964Y-86562190D01*
X134177272Y-86500663D01*
X134084275Y-86291118D01*
X134043071Y-86232669D01*
X134143885Y-86044060D01*
X134210215Y-85825400D01*
X134232612Y-85598000D01*
X134210215Y-85370600D01*
X134146907Y-85161902D01*
X134181502Y-85097180D01*
X134217812Y-84977482D01*
X134230072Y-84853000D01*
X134230072Y-83803000D01*
X134217812Y-83678518D01*
X134181502Y-83558820D01*
X134122537Y-83448506D01*
X134043185Y-83351815D01*
X133946494Y-83272463D01*
X133836180Y-83213498D01*
X133716482Y-83177188D01*
X133602000Y-83165913D01*
X133602000Y-82226000D01*
X135213928Y-82226000D01*
X135226188Y-82350482D01*
X135262498Y-82470180D01*
X135321463Y-82580494D01*
X135400815Y-82677185D01*
X135497506Y-82756537D01*
X135607820Y-82815502D01*
X135727518Y-82851812D01*
X135852000Y-82864072D01*
X136366250Y-82861000D01*
X136525000Y-82702250D01*
X136525000Y-81153000D01*
X135375750Y-81153000D01*
X135217000Y-81311750D01*
X135213928Y-82226000D01*
X133602000Y-82226000D01*
X133602000Y-80832801D01*
X134172802Y-80262000D01*
X135215393Y-80262000D01*
X135217000Y-80740250D01*
X135375750Y-80899000D01*
X136525000Y-80899000D01*
X136525000Y-80879000D01*
X136779000Y-80879000D01*
X136779000Y-80899000D01*
X136799000Y-80899000D01*
X136799000Y-81153000D01*
X136779000Y-81153000D01*
X136779000Y-82702250D01*
X136937750Y-82861000D01*
X137415050Y-82863851D01*
X137613206Y-83062007D01*
X137637009Y-83091011D01*
X137752734Y-83185984D01*
X137884763Y-83256556D01*
X137945388Y-83274946D01*
X138028024Y-83300013D01*
X138177010Y-83314687D01*
X138214343Y-83311010D01*
X140433632Y-83311010D01*
X140458004Y-83318403D01*
X140606990Y-83333077D01*
X140755975Y-83318403D01*
X140899236Y-83274946D01*
X140989050Y-83226939D01*
X141016795Y-83318403D01*
X141026454Y-83350246D01*
X141097026Y-83482276D01*
X141134348Y-83527753D01*
X141191999Y-83598001D01*
X141221002Y-83621803D01*
X141930201Y-84331002D01*
X141953999Y-84360001D01*
X142069724Y-84454974D01*
X142201753Y-84525546D01*
X142345014Y-84569003D01*
X142456667Y-84580000D01*
X142456675Y-84580000D01*
X142494000Y-84583676D01*
X142531325Y-84580000D01*
X148136962Y-84580000D01*
X148162498Y-84664180D01*
X148221463Y-84774494D01*
X148300815Y-84871185D01*
X148397506Y-84950537D01*
X148507820Y-85009502D01*
X148627518Y-85045812D01*
X148752000Y-85058072D01*
X149952000Y-85058072D01*
X150076482Y-85045812D01*
X150196180Y-85009502D01*
X150306494Y-84950537D01*
X150403185Y-84871185D01*
X150482537Y-84774494D01*
X150509499Y-84724053D01*
X150564733Y-84779287D01*
X150767008Y-84914443D01*
X150991764Y-85007540D01*
X151230363Y-85055000D01*
X151473637Y-85055000D01*
X151712236Y-85007540D01*
X151936992Y-84914443D01*
X152139267Y-84779287D01*
X152311287Y-84607267D01*
X152446443Y-84404992D01*
X152539540Y-84180236D01*
X152587000Y-83941637D01*
X152587000Y-83698363D01*
X152539540Y-83459764D01*
X152446443Y-83235008D01*
X152311287Y-83032733D01*
X152139267Y-82860713D01*
X152112000Y-82842494D01*
X152112000Y-81031325D01*
X152115676Y-80994000D01*
X152112000Y-80956675D01*
X152112000Y-80956667D01*
X152107341Y-80909368D01*
X152142099Y-80898825D01*
X152404920Y-80773641D01*
X152638269Y-80599588D01*
X152833178Y-80383355D01*
X152982157Y-80133252D01*
X153079481Y-79858891D01*
X152958814Y-79629000D01*
X151765000Y-79629000D01*
X151765000Y-79649000D01*
X151511000Y-79649000D01*
X151511000Y-79629000D01*
X151491000Y-79629000D01*
X151491000Y-79375000D01*
X151511000Y-79375000D01*
X151511000Y-78181845D01*
X151765000Y-78181845D01*
X151765000Y-79375000D01*
X152958814Y-79375000D01*
X153079481Y-79145109D01*
X152982157Y-78870748D01*
X152833178Y-78620645D01*
X152638269Y-78404412D01*
X152404920Y-78230359D01*
X152142099Y-78105175D01*
X151994890Y-78060524D01*
X151765000Y-78181845D01*
X151511000Y-78181845D01*
X151281110Y-78060524D01*
X151133901Y-78105175D01*
X150871080Y-78230359D01*
X150637731Y-78404412D01*
X150561966Y-78488466D01*
X150537502Y-78407820D01*
X150478537Y-78297506D01*
X150399185Y-78200815D01*
X150302494Y-78121463D01*
X150192180Y-78062498D01*
X150072482Y-78026188D01*
X149948000Y-78013928D01*
X148248000Y-78013928D01*
X148123518Y-78026188D01*
X148003820Y-78062498D01*
X147893506Y-78121463D01*
X147796815Y-78200815D01*
X147717463Y-78297506D01*
X147658498Y-78407820D01*
X147622188Y-78527518D01*
X147609928Y-78652000D01*
X147609928Y-80352000D01*
X147622188Y-80476482D01*
X147658498Y-80596180D01*
X147717463Y-80706494D01*
X147796815Y-80803185D01*
X147893506Y-80882537D01*
X148003820Y-80941502D01*
X148123518Y-80977812D01*
X148248000Y-80990072D01*
X149948000Y-80990072D01*
X150072482Y-80977812D01*
X150192180Y-80941502D01*
X150213373Y-80930174D01*
X150592000Y-81308802D01*
X150592001Y-82842493D01*
X150564733Y-82860713D01*
X150509499Y-82915947D01*
X150482537Y-82865506D01*
X150403185Y-82768815D01*
X150306494Y-82689463D01*
X150196180Y-82630498D01*
X150076482Y-82594188D01*
X149952000Y-82581928D01*
X148752000Y-82581928D01*
X148627518Y-82594188D01*
X148507820Y-82630498D01*
X148397506Y-82689463D01*
X148300815Y-82768815D01*
X148221463Y-82865506D01*
X148162498Y-82975820D01*
X148136962Y-83060000D01*
X142808802Y-83060000D01*
X142492000Y-82743199D01*
X142492000Y-82646901D01*
X142533101Y-82624932D01*
X142751608Y-82445608D01*
X142930932Y-82227101D01*
X143002000Y-82094142D01*
X143073068Y-82227101D01*
X143252393Y-82445608D01*
X143470900Y-82624932D01*
X143720193Y-82758182D01*
X143990692Y-82840236D01*
X144272000Y-82867943D01*
X144553309Y-82840236D01*
X144823808Y-82758182D01*
X145073101Y-82624932D01*
X145291608Y-82445608D01*
X145470932Y-82227101D01*
X145604182Y-81977808D01*
X145686236Y-81707309D01*
X145707000Y-81496491D01*
X145707000Y-80555508D01*
X145686236Y-80344691D01*
X145604182Y-80074192D01*
X145470932Y-79824899D01*
X145291607Y-79606392D01*
X145073100Y-79427068D01*
X144823807Y-79293818D01*
X144553308Y-79211764D01*
X144272000Y-79184057D01*
X143990691Y-79211764D01*
X143720192Y-79293818D01*
X143651393Y-79330592D01*
X143310794Y-78989993D01*
X143286991Y-78960989D01*
X143171266Y-78866016D01*
X143039237Y-78795444D01*
X142895976Y-78751987D01*
X142784323Y-78740990D01*
X142784312Y-78740990D01*
X142746990Y-78737314D01*
X142709668Y-78740990D01*
X141303328Y-78740990D01*
X141266005Y-78737314D01*
X141228682Y-78740990D01*
X141228673Y-78740990D01*
X141117020Y-78751987D01*
X140973759Y-78795444D01*
X140841730Y-78866016D01*
X140726005Y-78960989D01*
X140702206Y-78989988D01*
X140230221Y-79461973D01*
X140124275Y-79375026D01*
X139992246Y-79304454D01*
X139964702Y-79296099D01*
X142243009Y-77017794D01*
X142272001Y-76994001D01*
X142295795Y-76965008D01*
X142295799Y-76965004D01*
X142366973Y-76878277D01*
X142366974Y-76878276D01*
X142428182Y-76763764D01*
X148935841Y-76763764D01*
X148983148Y-76987348D01*
X149204516Y-77088237D01*
X149441313Y-77144000D01*
X149684438Y-77152495D01*
X149924549Y-77113395D01*
X150152418Y-77028202D01*
X150228852Y-76987348D01*
X150276159Y-76763764D01*
X149606000Y-76093605D01*
X148935841Y-76763764D01*
X142428182Y-76763764D01*
X142437546Y-76746247D01*
X142481003Y-76602986D01*
X142492000Y-76491333D01*
X142492000Y-76491324D01*
X142495676Y-76454001D01*
X142492000Y-76416678D01*
X142492000Y-75026901D01*
X142533101Y-75004932D01*
X142751608Y-74825608D01*
X142930932Y-74607101D01*
X143002000Y-74474142D01*
X143073068Y-74607101D01*
X143252393Y-74825608D01*
X143470900Y-75004932D01*
X143720193Y-75138182D01*
X143990692Y-75220236D01*
X144272000Y-75247943D01*
X144553309Y-75220236D01*
X144823808Y-75138182D01*
X145073101Y-75004932D01*
X145291608Y-74825608D01*
X145470932Y-74607101D01*
X145604182Y-74357808D01*
X145686236Y-74087309D01*
X145707000Y-73876491D01*
X145707000Y-72935508D01*
X145703109Y-72896000D01*
X148527581Y-72896000D01*
X148475463Y-72959506D01*
X148416498Y-73069820D01*
X148380188Y-73189518D01*
X148367928Y-73314000D01*
X148367928Y-74514000D01*
X148380188Y-74638482D01*
X148416498Y-74758180D01*
X148475463Y-74868494D01*
X148554815Y-74965185D01*
X148651506Y-75044537D01*
X148697006Y-75068858D01*
X148639128Y-75126736D01*
X148756234Y-75243842D01*
X148532652Y-75291148D01*
X148431763Y-75512516D01*
X148376000Y-75749313D01*
X148367505Y-75992438D01*
X148406605Y-76232549D01*
X148491798Y-76460418D01*
X148532652Y-76536852D01*
X148756236Y-76584159D01*
X149426395Y-75914000D01*
X149412253Y-75899858D01*
X149591858Y-75720253D01*
X149606000Y-75734395D01*
X149620143Y-75720253D01*
X149799748Y-75899858D01*
X149785605Y-75914000D01*
X150455764Y-76584159D01*
X150679348Y-76536852D01*
X150780237Y-76315484D01*
X150836000Y-76078687D01*
X150844495Y-75835562D01*
X150805395Y-75595451D01*
X150720202Y-75367582D01*
X150679348Y-75291148D01*
X150455766Y-75243842D01*
X150572872Y-75126736D01*
X150514994Y-75068858D01*
X150560494Y-75044537D01*
X150657185Y-74965185D01*
X150736537Y-74868494D01*
X150795502Y-74758180D01*
X150831812Y-74638482D01*
X150844072Y-74514000D01*
X150844072Y-73314000D01*
X150831812Y-73189518D01*
X150795502Y-73069820D01*
X150736537Y-72959506D01*
X150657185Y-72862815D01*
X150560494Y-72783463D01*
X150450180Y-72724498D01*
X150366000Y-72698962D01*
X150366000Y-72681322D01*
X150369676Y-72643999D01*
X150366000Y-72606676D01*
X150366000Y-72606667D01*
X150355003Y-72495014D01*
X150311546Y-72351753D01*
X150240974Y-72219724D01*
X150146001Y-72103999D01*
X150117002Y-72080200D01*
X149661803Y-71625002D01*
X149638001Y-71595999D01*
X149522276Y-71501026D01*
X149390247Y-71430454D01*
X149246986Y-71386997D01*
X149135333Y-71376000D01*
X149135322Y-71376000D01*
X149098000Y-71372324D01*
X149060678Y-71376000D01*
X145071325Y-71376000D01*
X145034000Y-71372324D01*
X144996675Y-71376000D01*
X144996667Y-71376000D01*
X144885014Y-71386997D01*
X144741753Y-71430454D01*
X144609724Y-71501026D01*
X144504962Y-71587002D01*
X144272000Y-71564057D01*
X143990691Y-71591764D01*
X143720192Y-71673818D01*
X143470899Y-71807068D01*
X143252392Y-71986393D01*
X143073068Y-72204900D01*
X143002000Y-72337858D01*
X142930932Y-72204899D01*
X142751607Y-71986392D01*
X142533100Y-71807068D01*
X142283807Y-71673818D01*
X142013308Y-71591764D01*
X141732000Y-71564057D01*
X141450691Y-71591764D01*
X141180192Y-71673818D01*
X140930899Y-71807068D01*
X140712392Y-71986393D01*
X140533068Y-72204900D01*
X140462000Y-72337858D01*
X140390932Y-72204899D01*
X140211607Y-71986392D01*
X139993100Y-71807068D01*
X139945807Y-71781789D01*
X139941003Y-71733014D01*
X139897546Y-71589753D01*
X139826974Y-71457724D01*
X139732001Y-71341999D01*
X139702997Y-71318196D01*
X139501804Y-71117003D01*
X139478001Y-71087999D01*
X139362276Y-70993026D01*
X139230247Y-70922454D01*
X139086986Y-70878997D01*
X138975333Y-70868000D01*
X138975322Y-70868000D01*
X138938000Y-70864324D01*
X138900678Y-70868000D01*
X133641322Y-70868000D01*
X133603999Y-70864324D01*
X133566676Y-70868000D01*
X133566667Y-70868000D01*
X133455014Y-70878997D01*
X133311753Y-70922454D01*
X133179724Y-70993026D01*
X133063999Y-71087999D01*
X133040196Y-71117003D01*
X132839003Y-71318196D01*
X132809999Y-71341999D01*
X132773070Y-71386998D01*
X132715026Y-71457724D01*
X132653836Y-71572201D01*
X132644454Y-71589754D01*
X132600997Y-71733015D01*
X132590000Y-71844668D01*
X132590000Y-71844678D01*
X132586324Y-71882000D01*
X132590000Y-71919323D01*
X132590000Y-72308225D01*
X132498987Y-72369038D01*
X132313038Y-72554987D01*
X132252225Y-72646000D01*
X130637775Y-72646000D01*
X130576962Y-72554987D01*
X130391013Y-72369038D01*
X130172359Y-72222939D01*
X129929405Y-72122304D01*
X129671486Y-72071000D01*
X129408514Y-72071000D01*
X129150595Y-72122304D01*
X128907641Y-72222939D01*
X128688987Y-72369038D01*
X128503038Y-72554987D01*
X128356939Y-72773641D01*
X128256304Y-73016595D01*
X128205000Y-73274514D01*
X128205000Y-73536198D01*
X127563803Y-72895002D01*
X127540001Y-72865999D01*
X127424276Y-72771026D01*
X127292247Y-72700454D01*
X127148986Y-72656997D01*
X127084905Y-72650686D01*
X127020962Y-72554987D01*
X126835013Y-72369038D01*
X126744000Y-72308225D01*
X126744000Y-72173322D01*
X126747676Y-72135999D01*
X126744000Y-72098676D01*
X126744000Y-72098667D01*
X126733003Y-71987014D01*
X126689546Y-71843753D01*
X126618974Y-71711724D01*
X126524001Y-71595999D01*
X126494998Y-71572197D01*
X126293804Y-71371003D01*
X126270001Y-71341999D01*
X126154276Y-71247026D01*
X126022247Y-71176454D01*
X125878986Y-71132997D01*
X125767333Y-71122000D01*
X125767322Y-71122000D01*
X125730000Y-71118324D01*
X125692678Y-71122000D01*
X123481333Y-71122000D01*
X123444000Y-71118323D01*
X123406667Y-71122000D01*
X120964802Y-71122000D01*
X120648000Y-70805199D01*
X120648000Y-69148801D01*
X120692744Y-69104058D01*
X120771965Y-69222621D01*
X121023379Y-69474035D01*
X121319012Y-69671571D01*
X121647501Y-69807635D01*
X121996223Y-69877000D01*
X122351777Y-69877000D01*
X122700499Y-69807635D01*
X123028988Y-69671571D01*
X123324621Y-69474035D01*
X123576035Y-69222621D01*
X123773571Y-68926988D01*
X123909635Y-68598499D01*
X123979000Y-68249777D01*
X123979000Y-67894223D01*
X123909635Y-67545501D01*
X123773571Y-67217012D01*
X123576035Y-66921379D01*
X123324621Y-66669965D01*
X123028988Y-66472429D01*
X122700499Y-66336365D01*
X122351777Y-66267000D01*
X121996223Y-66267000D01*
X121647501Y-66336365D01*
X121319012Y-66472429D01*
X121023379Y-66669965D01*
X120771965Y-66921379D01*
X120574429Y-67217012D01*
X120531784Y-67319966D01*
X120501014Y-67322997D01*
X120357753Y-67366454D01*
X120225724Y-67437026D01*
X120109999Y-67531999D01*
X120086201Y-67560998D01*
X119378000Y-68269199D01*
X119378000Y-62894223D01*
X120369000Y-62894223D01*
X120369000Y-63249777D01*
X120438365Y-63598499D01*
X120574429Y-63926988D01*
X120771965Y-64222621D01*
X121023379Y-64474035D01*
X121319012Y-64671571D01*
X121647501Y-64807635D01*
X121996223Y-64877000D01*
X122351777Y-64877000D01*
X122700499Y-64807635D01*
X123028988Y-64671571D01*
X123324621Y-64474035D01*
X123576035Y-64222621D01*
X123773571Y-63926988D01*
X123909635Y-63598499D01*
X123979000Y-63249777D01*
X123979000Y-62894223D01*
X123909635Y-62545501D01*
X123773571Y-62217012D01*
X123576035Y-61921379D01*
X123324621Y-61669965D01*
X123028988Y-61472429D01*
X122700499Y-61336365D01*
X122351777Y-61267000D01*
X121996223Y-61267000D01*
X121647501Y-61336365D01*
X121319012Y-61472429D01*
X121023379Y-61669965D01*
X120771965Y-61921379D01*
X120574429Y-62217012D01*
X120438365Y-62545501D01*
X120369000Y-62894223D01*
X119378000Y-62894223D01*
X119378000Y-59242801D01*
X119788802Y-58832000D01*
X120535084Y-58832000D01*
X120574429Y-58926988D01*
X120771965Y-59222621D01*
X121023379Y-59474035D01*
X121319012Y-59671571D01*
X121647501Y-59807635D01*
X121996223Y-59877000D01*
X122351777Y-59877000D01*
X122700499Y-59807635D01*
X123028988Y-59671571D01*
X123324621Y-59474035D01*
X123576035Y-59222621D01*
X123773571Y-58926988D01*
X123909635Y-58598499D01*
X123979000Y-58249777D01*
X123979000Y-57894223D01*
X123909635Y-57545501D01*
X123773571Y-57217012D01*
X123576035Y-56921379D01*
X123324621Y-56669965D01*
X123028988Y-56472429D01*
X122700499Y-56336365D01*
X122351777Y-56267000D01*
X121996223Y-56267000D01*
X121647501Y-56336365D01*
X121319012Y-56472429D01*
X121023379Y-56669965D01*
X120771965Y-56921379D01*
X120574429Y-57217012D01*
X120535084Y-57312000D01*
X119511323Y-57312000D01*
X119474000Y-57308324D01*
X119436677Y-57312000D01*
X119436667Y-57312000D01*
X119325014Y-57322997D01*
X119181753Y-57366454D01*
X119049724Y-57437026D01*
X118933999Y-57531999D01*
X118910201Y-57560997D01*
X118107002Y-58364197D01*
X118077999Y-58387999D01*
X118022871Y-58455174D01*
X117983026Y-58503724D01*
X117925150Y-58612001D01*
X117912454Y-58635754D01*
X117868997Y-58779015D01*
X117858000Y-58890668D01*
X117858000Y-58890678D01*
X117854324Y-58928000D01*
X116660000Y-58928000D01*
X116660000Y-55973056D01*
X116870279Y-56113560D01*
X117304321Y-56293346D01*
X117765098Y-56385000D01*
X118234902Y-56385000D01*
X118695679Y-56293346D01*
X119129721Y-56113560D01*
X119520349Y-55852550D01*
X119852550Y-55520349D01*
X120113560Y-55129721D01*
X120293346Y-54695679D01*
X120385000Y-54234902D01*
X120385000Y-53765098D01*
X120293346Y-53304321D01*
X120113560Y-52870279D01*
X119973056Y-52660000D01*
X154026944Y-52660000D01*
X153886440Y-52870279D01*
%TA.AperFunction,Conductor*%
D26*
G36*
X153886440Y-52870279D02*
G01*
X153706654Y-53304321D01*
X153615000Y-53765098D01*
X153615000Y-54234902D01*
X153706654Y-54695679D01*
X153886440Y-55129721D01*
X154147450Y-55520349D01*
X154479651Y-55852550D01*
X154870279Y-56113560D01*
X155304321Y-56293346D01*
X155765098Y-56385000D01*
X156234902Y-56385000D01*
X156695679Y-56293346D01*
X157129721Y-56113560D01*
X157340000Y-55973056D01*
X157340001Y-86026945D01*
X157129721Y-85886440D01*
X156695679Y-85706654D01*
X156234902Y-85615000D01*
X155765098Y-85615000D01*
X155304321Y-85706654D01*
X154870279Y-85886440D01*
X154479651Y-86147450D01*
X154147450Y-86479651D01*
X153886440Y-86870279D01*
X153706654Y-87304321D01*
X153615000Y-87765098D01*
X153615000Y-88234902D01*
X153706654Y-88695679D01*
X153886440Y-89129721D01*
X154026944Y-89340000D01*
X119973056Y-89340000D01*
X120113560Y-89129721D01*
X120293346Y-88695679D01*
X120385000Y-88234902D01*
X120385000Y-87765098D01*
X120293346Y-87304321D01*
X120239287Y-87173810D01*
X131498036Y-87173810D01*
X131506728Y-87235337D01*
X131599725Y-87444882D01*
X131731816Y-87632258D01*
X131897924Y-87790264D01*
X132091666Y-87912828D01*
X132305596Y-87995239D01*
X132531493Y-88034331D01*
X132715000Y-87874598D01*
X132715000Y-86995000D01*
X132969000Y-86995000D01*
X132969000Y-87874598D01*
X133152507Y-88034331D01*
X133378404Y-87995239D01*
X133592334Y-87912828D01*
X133786076Y-87790264D01*
X133952184Y-87632258D01*
X134084275Y-87444882D01*
X134177272Y-87235337D01*
X134185964Y-87173810D01*
X134060163Y-86995000D01*
X132969000Y-86995000D01*
X132715000Y-86995000D01*
X131623837Y-86995000D01*
X131498036Y-87173810D01*
X120239287Y-87173810D01*
X120113560Y-86870279D01*
X119852550Y-86479651D01*
X119520349Y-86147450D01*
X119129721Y-85886440D01*
X118695679Y-85706654D01*
X118234902Y-85615000D01*
X117765098Y-85615000D01*
X117304321Y-85706654D01*
X116870279Y-85886440D01*
X116660000Y-86026944D01*
X116660000Y-58928000D01*
X117854324Y-58928000D01*
X117858000Y-58965322D01*
X117858001Y-72352668D01*
X117854324Y-72390000D01*
X117868998Y-72538985D01*
X117912454Y-72682246D01*
X117983026Y-72814276D01*
X118041070Y-72885002D01*
X118078000Y-72930001D01*
X118106998Y-72953799D01*
X118816201Y-73663002D01*
X118839999Y-73692001D01*
X118955724Y-73786974D01*
X119087753Y-73857546D01*
X119114069Y-73865529D01*
X119094000Y-73881999D01*
X119070202Y-73910997D01*
X119070201Y-73910998D01*
X118999026Y-73997724D01*
X118928454Y-74129754D01*
X118905251Y-74206247D01*
X118884998Y-74273014D01*
X118874001Y-74384667D01*
X118870324Y-74422000D01*
X118874001Y-74459332D01*
X118874000Y-84290678D01*
X118870324Y-84328000D01*
X118874000Y-84365322D01*
X118874000Y-84365332D01*
X118884997Y-84476985D01*
X118924517Y-84607267D01*
X118928454Y-84620246D01*
X118999026Y-84752276D01*
X119016681Y-84773788D01*
X119093999Y-84868001D01*
X119123002Y-84891803D01*
X119832201Y-85601002D01*
X119855999Y-85630001D01*
X119971724Y-85724974D01*
X120103753Y-85795546D01*
X120247014Y-85839003D01*
X120358667Y-85850000D01*
X120358675Y-85850000D01*
X120396000Y-85853676D01*
X120433325Y-85850000D01*
X121193928Y-85850000D01*
X121193928Y-85940000D01*
X121206188Y-86064482D01*
X121242498Y-86184180D01*
X121301463Y-86294494D01*
X121380815Y-86391185D01*
X121477506Y-86470537D01*
X121587820Y-86529502D01*
X121707518Y-86565812D01*
X121832000Y-86578072D01*
X123532000Y-86578072D01*
X123656482Y-86565812D01*
X123776180Y-86529502D01*
X123886494Y-86470537D01*
X123983185Y-86391185D01*
X124062537Y-86294494D01*
X124121502Y-86184180D01*
X124145966Y-86103534D01*
X124221731Y-86187588D01*
X124455080Y-86361641D01*
X124717901Y-86486825D01*
X124865110Y-86531476D01*
X125095000Y-86410155D01*
X125095000Y-85217000D01*
X125349000Y-85217000D01*
X125349000Y-86410155D01*
X125578890Y-86531476D01*
X125726099Y-86486825D01*
X125988920Y-86361641D01*
X126222269Y-86187588D01*
X126417178Y-85971355D01*
X126566157Y-85721252D01*
X126663481Y-85446891D01*
X126542814Y-85217000D01*
X125349000Y-85217000D01*
X125095000Y-85217000D01*
X125075000Y-85217000D01*
X125075000Y-84963000D01*
X125095000Y-84963000D01*
X125095000Y-83769845D01*
X125349000Y-83769845D01*
X125349000Y-84963000D01*
X126542814Y-84963000D01*
X126663481Y-84733109D01*
X126566157Y-84458748D01*
X126417178Y-84208645D01*
X126222269Y-83992412D01*
X125988920Y-83818359D01*
X125726099Y-83693175D01*
X125578890Y-83648524D01*
X125349000Y-83769845D01*
X125095000Y-83769845D01*
X124865110Y-83648524D01*
X124717901Y-83693175D01*
X124455080Y-83818359D01*
X124221731Y-83992412D01*
X124145966Y-84076466D01*
X124121502Y-83995820D01*
X124062537Y-83885506D01*
X123983185Y-83788815D01*
X123886494Y-83709463D01*
X123776180Y-83650498D01*
X123656482Y-83614188D01*
X123532000Y-83601928D01*
X121832000Y-83601928D01*
X121707518Y-83614188D01*
X121587820Y-83650498D01*
X121477506Y-83709463D01*
X121380815Y-83788815D01*
X121301463Y-83885506D01*
X121242498Y-83995820D01*
X121206188Y-84115518D01*
X121193928Y-84240000D01*
X121193928Y-84330000D01*
X120710802Y-84330000D01*
X120394000Y-84013199D01*
X120394000Y-81883039D01*
X120528096Y-81883039D01*
X120568754Y-82017087D01*
X120688963Y-82271420D01*
X120856481Y-82497414D01*
X121064869Y-82686385D01*
X121306119Y-82831070D01*
X121570960Y-82925909D01*
X121793000Y-82804624D01*
X121793000Y-81661000D01*
X122047000Y-81661000D01*
X122047000Y-82804624D01*
X122269040Y-82925909D01*
X122533881Y-82831070D01*
X122775131Y-82686385D01*
X122983519Y-82497414D01*
X123151037Y-82271420D01*
X123271246Y-82017087D01*
X123311904Y-81883039D01*
X123189915Y-81661000D01*
X122047000Y-81661000D01*
X121793000Y-81661000D01*
X120650085Y-81661000D01*
X120528096Y-81883039D01*
X120394000Y-81883039D01*
X120394000Y-74928000D01*
X121299278Y-74928000D01*
X121390666Y-74937001D01*
X121390676Y-74937001D01*
X121427998Y-74940677D01*
X121465321Y-74937001D01*
X122374679Y-74937001D01*
X122412001Y-74940677D01*
X122449323Y-74937001D01*
X122449334Y-74937001D01*
X122540722Y-74928000D01*
X122898678Y-74928000D01*
X122936000Y-74931676D01*
X122973322Y-74928000D01*
X122973333Y-74928000D01*
X123084986Y-74917003D01*
X123228247Y-74873546D01*
X123360276Y-74802974D01*
X123476001Y-74708001D01*
X123499803Y-74678998D01*
X123955003Y-74223798D01*
X123984001Y-74200001D01*
X124078974Y-74084276D01*
X124149546Y-73952247D01*
X124193003Y-73808986D01*
X124204000Y-73697333D01*
X124204000Y-73697324D01*
X124207676Y-73660001D01*
X124204000Y-73622678D01*
X124204000Y-72642000D01*
X124888898Y-72642000D01*
X124800939Y-72773641D01*
X124700304Y-73016595D01*
X124649000Y-73274514D01*
X124649000Y-73537486D01*
X124700304Y-73795405D01*
X124800939Y-74038359D01*
X124947038Y-74257013D01*
X125132987Y-74442962D01*
X125351641Y-74589061D01*
X125594595Y-74689696D01*
X125852514Y-74741000D01*
X126115486Y-74741000D01*
X126373405Y-74689696D01*
X126616359Y-74589061D01*
X126835013Y-74442962D01*
X126898587Y-74379388D01*
X127002000Y-74482802D01*
X127002001Y-77616026D01*
X126835013Y-77449038D01*
X126616359Y-77302939D01*
X126373405Y-77202304D01*
X126115486Y-77151000D01*
X125852514Y-77151000D01*
X125594595Y-77202304D01*
X125351641Y-77302939D01*
X125132987Y-77449038D01*
X124947038Y-77634987D01*
X124800939Y-77853641D01*
X124700304Y-78096595D01*
X124649000Y-78354514D01*
X124649000Y-78617486D01*
X124700304Y-78875405D01*
X124800939Y-79118359D01*
X124888898Y-79250000D01*
X122789975Y-79250000D01*
X122956962Y-79083013D01*
X123103061Y-78864359D01*
X123203696Y-78621405D01*
X123255000Y-78363486D01*
X123255000Y-78100514D01*
X123203696Y-77842595D01*
X123103061Y-77599641D01*
X122956962Y-77380987D01*
X122771013Y-77195038D01*
X122552359Y-77048939D01*
X122309405Y-76948304D01*
X122051486Y-76897000D01*
X121788514Y-76897000D01*
X121530595Y-76948304D01*
X121287641Y-77048939D01*
X121068987Y-77195038D01*
X120883038Y-77380987D01*
X120736939Y-77599641D01*
X120636304Y-77842595D01*
X120585000Y-78100514D01*
X120585000Y-78363486D01*
X120636304Y-78621405D01*
X120736939Y-78864359D01*
X120883038Y-79083013D01*
X121068987Y-79268962D01*
X121160000Y-79329775D01*
X121160000Y-79464677D01*
X121156324Y-79502000D01*
X121160000Y-79539322D01*
X121160000Y-79539332D01*
X121170997Y-79650985D01*
X121196704Y-79735730D01*
X121214454Y-79794246D01*
X121285026Y-79926276D01*
X121307944Y-79954201D01*
X121379999Y-80042001D01*
X121409002Y-80065803D01*
X121507879Y-80164680D01*
X121306119Y-80236930D01*
X121064869Y-80381615D01*
X120856481Y-80570586D01*
X120688963Y-80796580D01*
X120568754Y-81050913D01*
X120528096Y-81184961D01*
X120650085Y-81407000D01*
X121793000Y-81407000D01*
X121793000Y-81387000D01*
X122047000Y-81387000D01*
X122047000Y-81407000D01*
X123189915Y-81407000D01*
X123311904Y-81184961D01*
X123271246Y-81050913D01*
X123151037Y-80796580D01*
X123131335Y-80770000D01*
X128101928Y-80770000D01*
X128101928Y-82334000D01*
X128114188Y-82458482D01*
X128150498Y-82578180D01*
X128209463Y-82688494D01*
X128288815Y-82785185D01*
X128385506Y-82864537D01*
X128495820Y-82923502D01*
X128615518Y-82959812D01*
X128740000Y-82972072D01*
X128780000Y-82972072D01*
X128780001Y-85052668D01*
X128776324Y-85090000D01*
X128790998Y-85238985D01*
X128834454Y-85382246D01*
X128905026Y-85514276D01*
X128973737Y-85598000D01*
X129000000Y-85630001D01*
X129028998Y-85653799D01*
X129484200Y-86109002D01*
X129507999Y-86138001D01*
X129623724Y-86232974D01*
X129755753Y-86303546D01*
X129899014Y-86347003D01*
X130010667Y-86358000D01*
X130010676Y-86358000D01*
X130047999Y-86361676D01*
X130085322Y-86358000D01*
X131570042Y-86358000D01*
X131506728Y-86500663D01*
X131498036Y-86562190D01*
X131623837Y-86741000D01*
X132388891Y-86741000D01*
X132389600Y-86741215D01*
X132560021Y-86758000D01*
X133123979Y-86758000D01*
X133294400Y-86741215D01*
X133295109Y-86741000D01*
X134060163Y-86741000D01*
X134185964Y-86562190D01*
X134177272Y-86500663D01*
X134084275Y-86291118D01*
X134043071Y-86232669D01*
X134143885Y-86044060D01*
X134210215Y-85825400D01*
X134232612Y-85598000D01*
X134210215Y-85370600D01*
X134146907Y-85161902D01*
X134181502Y-85097180D01*
X134217812Y-84977482D01*
X134230072Y-84853000D01*
X134230072Y-83803000D01*
X134217812Y-83678518D01*
X134181502Y-83558820D01*
X134122537Y-83448506D01*
X134043185Y-83351815D01*
X133946494Y-83272463D01*
X133836180Y-83213498D01*
X133716482Y-83177188D01*
X133602000Y-83165913D01*
X133602000Y-82226000D01*
X135213928Y-82226000D01*
X135226188Y-82350482D01*
X135262498Y-82470180D01*
X135321463Y-82580494D01*
X135400815Y-82677185D01*
X135497506Y-82756537D01*
X135607820Y-82815502D01*
X135727518Y-82851812D01*
X135852000Y-82864072D01*
X136366250Y-82861000D01*
X136525000Y-82702250D01*
X136525000Y-81153000D01*
X135375750Y-81153000D01*
X135217000Y-81311750D01*
X135213928Y-82226000D01*
X133602000Y-82226000D01*
X133602000Y-80832801D01*
X134172802Y-80262000D01*
X135215393Y-80262000D01*
X135217000Y-80740250D01*
X135375750Y-80899000D01*
X136525000Y-80899000D01*
X136525000Y-80879000D01*
X136779000Y-80879000D01*
X136779000Y-80899000D01*
X136799000Y-80899000D01*
X136799000Y-81153000D01*
X136779000Y-81153000D01*
X136779000Y-82702250D01*
X136937750Y-82861000D01*
X137415050Y-82863851D01*
X137613206Y-83062007D01*
X137637009Y-83091011D01*
X137752734Y-83185984D01*
X137884763Y-83256556D01*
X137945388Y-83274946D01*
X138028024Y-83300013D01*
X138177010Y-83314687D01*
X138214343Y-83311010D01*
X140433632Y-83311010D01*
X140458004Y-83318403D01*
X140606990Y-83333077D01*
X140755975Y-83318403D01*
X140899236Y-83274946D01*
X140989050Y-83226939D01*
X141016795Y-83318403D01*
X141026454Y-83350246D01*
X141097026Y-83482276D01*
X141134348Y-83527753D01*
X141191999Y-83598001D01*
X141221002Y-83621803D01*
X141930201Y-84331002D01*
X141953999Y-84360001D01*
X142069724Y-84454974D01*
X142201753Y-84525546D01*
X142345014Y-84569003D01*
X142456667Y-84580000D01*
X142456675Y-84580000D01*
X142494000Y-84583676D01*
X142531325Y-84580000D01*
X148136962Y-84580000D01*
X148162498Y-84664180D01*
X148221463Y-84774494D01*
X148300815Y-84871185D01*
X148397506Y-84950537D01*
X148507820Y-85009502D01*
X148627518Y-85045812D01*
X148752000Y-85058072D01*
X149952000Y-85058072D01*
X150076482Y-85045812D01*
X150196180Y-85009502D01*
X150306494Y-84950537D01*
X150403185Y-84871185D01*
X150482537Y-84774494D01*
X150509499Y-84724053D01*
X150564733Y-84779287D01*
X150767008Y-84914443D01*
X150991764Y-85007540D01*
X151230363Y-85055000D01*
X151473637Y-85055000D01*
X151712236Y-85007540D01*
X151936992Y-84914443D01*
X152139267Y-84779287D01*
X152311287Y-84607267D01*
X152446443Y-84404992D01*
X152539540Y-84180236D01*
X152587000Y-83941637D01*
X152587000Y-83698363D01*
X152539540Y-83459764D01*
X152446443Y-83235008D01*
X152311287Y-83032733D01*
X152139267Y-82860713D01*
X152112000Y-82842494D01*
X152112000Y-81031325D01*
X152115676Y-80994000D01*
X152112000Y-80956675D01*
X152112000Y-80956667D01*
X152107341Y-80909368D01*
X152142099Y-80898825D01*
X152404920Y-80773641D01*
X152638269Y-80599588D01*
X152833178Y-80383355D01*
X152982157Y-80133252D01*
X153079481Y-79858891D01*
X152958814Y-79629000D01*
X151765000Y-79629000D01*
X151765000Y-79649000D01*
X151511000Y-79649000D01*
X151511000Y-79629000D01*
X151491000Y-79629000D01*
X151491000Y-79375000D01*
X151511000Y-79375000D01*
X151511000Y-78181845D01*
X151765000Y-78181845D01*
X151765000Y-79375000D01*
X152958814Y-79375000D01*
X153079481Y-79145109D01*
X152982157Y-78870748D01*
X152833178Y-78620645D01*
X152638269Y-78404412D01*
X152404920Y-78230359D01*
X152142099Y-78105175D01*
X151994890Y-78060524D01*
X151765000Y-78181845D01*
X151511000Y-78181845D01*
X151281110Y-78060524D01*
X151133901Y-78105175D01*
X150871080Y-78230359D01*
X150637731Y-78404412D01*
X150561966Y-78488466D01*
X150537502Y-78407820D01*
X150478537Y-78297506D01*
X150399185Y-78200815D01*
X150302494Y-78121463D01*
X150192180Y-78062498D01*
X150072482Y-78026188D01*
X149948000Y-78013928D01*
X148248000Y-78013928D01*
X148123518Y-78026188D01*
X148003820Y-78062498D01*
X147893506Y-78121463D01*
X147796815Y-78200815D01*
X147717463Y-78297506D01*
X147658498Y-78407820D01*
X147622188Y-78527518D01*
X147609928Y-78652000D01*
X147609928Y-80352000D01*
X147622188Y-80476482D01*
X147658498Y-80596180D01*
X147717463Y-80706494D01*
X147796815Y-80803185D01*
X147893506Y-80882537D01*
X148003820Y-80941502D01*
X148123518Y-80977812D01*
X148248000Y-80990072D01*
X149948000Y-80990072D01*
X150072482Y-80977812D01*
X150192180Y-80941502D01*
X150213373Y-80930174D01*
X150592000Y-81308802D01*
X150592001Y-82842493D01*
X150564733Y-82860713D01*
X150509499Y-82915947D01*
X150482537Y-82865506D01*
X150403185Y-82768815D01*
X150306494Y-82689463D01*
X150196180Y-82630498D01*
X150076482Y-82594188D01*
X149952000Y-82581928D01*
X148752000Y-82581928D01*
X148627518Y-82594188D01*
X148507820Y-82630498D01*
X148397506Y-82689463D01*
X148300815Y-82768815D01*
X148221463Y-82865506D01*
X148162498Y-82975820D01*
X148136962Y-83060000D01*
X142808802Y-83060000D01*
X142492000Y-82743199D01*
X142492000Y-82646901D01*
X142533101Y-82624932D01*
X142751608Y-82445608D01*
X142930932Y-82227101D01*
X143002000Y-82094142D01*
X143073068Y-82227101D01*
X143252393Y-82445608D01*
X143470900Y-82624932D01*
X143720193Y-82758182D01*
X143990692Y-82840236D01*
X144272000Y-82867943D01*
X144553309Y-82840236D01*
X144823808Y-82758182D01*
X145073101Y-82624932D01*
X145291608Y-82445608D01*
X145470932Y-82227101D01*
X145604182Y-81977808D01*
X145686236Y-81707309D01*
X145707000Y-81496491D01*
X145707000Y-80555508D01*
X145686236Y-80344691D01*
X145604182Y-80074192D01*
X145470932Y-79824899D01*
X145291607Y-79606392D01*
X145073100Y-79427068D01*
X144823807Y-79293818D01*
X144553308Y-79211764D01*
X144272000Y-79184057D01*
X143990691Y-79211764D01*
X143720192Y-79293818D01*
X143651393Y-79330592D01*
X143310794Y-78989993D01*
X143286991Y-78960989D01*
X143171266Y-78866016D01*
X143039237Y-78795444D01*
X142895976Y-78751987D01*
X142784323Y-78740990D01*
X142784312Y-78740990D01*
X142746990Y-78737314D01*
X142709668Y-78740990D01*
X141303328Y-78740990D01*
X141266005Y-78737314D01*
X141228682Y-78740990D01*
X141228673Y-78740990D01*
X141117020Y-78751987D01*
X140973759Y-78795444D01*
X140841730Y-78866016D01*
X140726005Y-78960989D01*
X140702206Y-78989988D01*
X140230221Y-79461973D01*
X140124275Y-79375026D01*
X139992246Y-79304454D01*
X139964702Y-79296099D01*
X142243009Y-77017794D01*
X142272001Y-76994001D01*
X142295795Y-76965008D01*
X142295799Y-76965004D01*
X142366973Y-76878277D01*
X142366974Y-76878276D01*
X142428182Y-76763764D01*
X148935841Y-76763764D01*
X148983148Y-76987348D01*
X149204516Y-77088237D01*
X149441313Y-77144000D01*
X149684438Y-77152495D01*
X149924549Y-77113395D01*
X150152418Y-77028202D01*
X150228852Y-76987348D01*
X150276159Y-76763764D01*
X149606000Y-76093605D01*
X148935841Y-76763764D01*
X142428182Y-76763764D01*
X142437546Y-76746247D01*
X142481003Y-76602986D01*
X142492000Y-76491333D01*
X142492000Y-76491324D01*
X142495676Y-76454001D01*
X142492000Y-76416678D01*
X142492000Y-75026901D01*
X142533101Y-75004932D01*
X142751608Y-74825608D01*
X142930932Y-74607101D01*
X143002000Y-74474142D01*
X143073068Y-74607101D01*
X143252393Y-74825608D01*
X143470900Y-75004932D01*
X143720193Y-75138182D01*
X143990692Y-75220236D01*
X144272000Y-75247943D01*
X144553309Y-75220236D01*
X144823808Y-75138182D01*
X145073101Y-75004932D01*
X145291608Y-74825608D01*
X145470932Y-74607101D01*
X145604182Y-74357808D01*
X145686236Y-74087309D01*
X145707000Y-73876491D01*
X145707000Y-72935508D01*
X145703109Y-72896000D01*
X148527581Y-72896000D01*
X148475463Y-72959506D01*
X148416498Y-73069820D01*
X148380188Y-73189518D01*
X148367928Y-73314000D01*
X148367928Y-74514000D01*
X148380188Y-74638482D01*
X148416498Y-74758180D01*
X148475463Y-74868494D01*
X148554815Y-74965185D01*
X148651506Y-75044537D01*
X148697006Y-75068858D01*
X148639128Y-75126736D01*
X148756234Y-75243842D01*
X148532652Y-75291148D01*
X148431763Y-75512516D01*
X148376000Y-75749313D01*
X148367505Y-75992438D01*
X148406605Y-76232549D01*
X148491798Y-76460418D01*
X148532652Y-76536852D01*
X148756236Y-76584159D01*
X149426395Y-75914000D01*
X149412253Y-75899858D01*
X149591858Y-75720253D01*
X149606000Y-75734395D01*
X149620143Y-75720253D01*
X149799748Y-75899858D01*
X149785605Y-75914000D01*
X150455764Y-76584159D01*
X150679348Y-76536852D01*
X150780237Y-76315484D01*
X150836000Y-76078687D01*
X150844495Y-75835562D01*
X150805395Y-75595451D01*
X150720202Y-75367582D01*
X150679348Y-75291148D01*
X150455766Y-75243842D01*
X150572872Y-75126736D01*
X150514994Y-75068858D01*
X150560494Y-75044537D01*
X150657185Y-74965185D01*
X150736537Y-74868494D01*
X150795502Y-74758180D01*
X150831812Y-74638482D01*
X150844072Y-74514000D01*
X150844072Y-73314000D01*
X150831812Y-73189518D01*
X150795502Y-73069820D01*
X150736537Y-72959506D01*
X150657185Y-72862815D01*
X150560494Y-72783463D01*
X150450180Y-72724498D01*
X150366000Y-72698962D01*
X150366000Y-72681322D01*
X150369676Y-72643999D01*
X150366000Y-72606676D01*
X150366000Y-72606667D01*
X150355003Y-72495014D01*
X150311546Y-72351753D01*
X150240974Y-72219724D01*
X150146001Y-72103999D01*
X150117002Y-72080200D01*
X149661803Y-71625002D01*
X149638001Y-71595999D01*
X149522276Y-71501026D01*
X149390247Y-71430454D01*
X149246986Y-71386997D01*
X149135333Y-71376000D01*
X149135322Y-71376000D01*
X149098000Y-71372324D01*
X149060678Y-71376000D01*
X145071325Y-71376000D01*
X145034000Y-71372324D01*
X144996675Y-71376000D01*
X144996667Y-71376000D01*
X144885014Y-71386997D01*
X144741753Y-71430454D01*
X144609724Y-71501026D01*
X144504962Y-71587002D01*
X144272000Y-71564057D01*
X143990691Y-71591764D01*
X143720192Y-71673818D01*
X143470899Y-71807068D01*
X143252392Y-71986393D01*
X143073068Y-72204900D01*
X143002000Y-72337858D01*
X142930932Y-72204899D01*
X142751607Y-71986392D01*
X142533100Y-71807068D01*
X142283807Y-71673818D01*
X142013308Y-71591764D01*
X141732000Y-71564057D01*
X141450691Y-71591764D01*
X141180192Y-71673818D01*
X140930899Y-71807068D01*
X140712392Y-71986393D01*
X140533068Y-72204900D01*
X140462000Y-72337858D01*
X140390932Y-72204899D01*
X140211607Y-71986392D01*
X139993100Y-71807068D01*
X139945807Y-71781789D01*
X139941003Y-71733014D01*
X139897546Y-71589753D01*
X139826974Y-71457724D01*
X139732001Y-71341999D01*
X139702997Y-71318196D01*
X139501804Y-71117003D01*
X139478001Y-71087999D01*
X139362276Y-70993026D01*
X139230247Y-70922454D01*
X139086986Y-70878997D01*
X138975333Y-70868000D01*
X138975322Y-70868000D01*
X138938000Y-70864324D01*
X138900678Y-70868000D01*
X133641322Y-70868000D01*
X133603999Y-70864324D01*
X133566676Y-70868000D01*
X133566667Y-70868000D01*
X133455014Y-70878997D01*
X133311753Y-70922454D01*
X133179724Y-70993026D01*
X133063999Y-71087999D01*
X133040196Y-71117003D01*
X132839003Y-71318196D01*
X132809999Y-71341999D01*
X132773070Y-71386998D01*
X132715026Y-71457724D01*
X132653836Y-71572201D01*
X132644454Y-71589754D01*
X132600997Y-71733015D01*
X132590000Y-71844668D01*
X132590000Y-71844678D01*
X132586324Y-71882000D01*
X132590000Y-71919323D01*
X132590000Y-72308225D01*
X132498987Y-72369038D01*
X132313038Y-72554987D01*
X132252225Y-72646000D01*
X130637775Y-72646000D01*
X130576962Y-72554987D01*
X130391013Y-72369038D01*
X130172359Y-72222939D01*
X129929405Y-72122304D01*
X129671486Y-72071000D01*
X129408514Y-72071000D01*
X129150595Y-72122304D01*
X128907641Y-72222939D01*
X128688987Y-72369038D01*
X128503038Y-72554987D01*
X128356939Y-72773641D01*
X128256304Y-73016595D01*
X128205000Y-73274514D01*
X128205000Y-73536198D01*
X127563803Y-72895002D01*
X127540001Y-72865999D01*
X127424276Y-72771026D01*
X127292247Y-72700454D01*
X127148986Y-72656997D01*
X127084905Y-72650686D01*
X127020962Y-72554987D01*
X126835013Y-72369038D01*
X126744000Y-72308225D01*
X126744000Y-72173322D01*
X126747676Y-72135999D01*
X126744000Y-72098676D01*
X126744000Y-72098667D01*
X126733003Y-71987014D01*
X126689546Y-71843753D01*
X126618974Y-71711724D01*
X126524001Y-71595999D01*
X126494998Y-71572197D01*
X126293804Y-71371003D01*
X126270001Y-71341999D01*
X126154276Y-71247026D01*
X126022247Y-71176454D01*
X125878986Y-71132997D01*
X125767333Y-71122000D01*
X125767322Y-71122000D01*
X125730000Y-71118324D01*
X125692678Y-71122000D01*
X123481333Y-71122000D01*
X123444000Y-71118323D01*
X123406667Y-71122000D01*
X120964802Y-71122000D01*
X120648000Y-70805199D01*
X120648000Y-69148801D01*
X120692744Y-69104058D01*
X120771965Y-69222621D01*
X121023379Y-69474035D01*
X121319012Y-69671571D01*
X121647501Y-69807635D01*
X121996223Y-69877000D01*
X122351777Y-69877000D01*
X122700499Y-69807635D01*
X123028988Y-69671571D01*
X123324621Y-69474035D01*
X123576035Y-69222621D01*
X123773571Y-68926988D01*
X123909635Y-68598499D01*
X123979000Y-68249777D01*
X123979000Y-67894223D01*
X123909635Y-67545501D01*
X123773571Y-67217012D01*
X123576035Y-66921379D01*
X123324621Y-66669965D01*
X123028988Y-66472429D01*
X122700499Y-66336365D01*
X122351777Y-66267000D01*
X121996223Y-66267000D01*
X121647501Y-66336365D01*
X121319012Y-66472429D01*
X121023379Y-66669965D01*
X120771965Y-66921379D01*
X120574429Y-67217012D01*
X120531784Y-67319966D01*
X120501014Y-67322997D01*
X120357753Y-67366454D01*
X120225724Y-67437026D01*
X120109999Y-67531999D01*
X120086201Y-67560998D01*
X119378000Y-68269199D01*
X119378000Y-62894223D01*
X120369000Y-62894223D01*
X120369000Y-63249777D01*
X120438365Y-63598499D01*
X120574429Y-63926988D01*
X120771965Y-64222621D01*
X121023379Y-64474035D01*
X121319012Y-64671571D01*
X121647501Y-64807635D01*
X121996223Y-64877000D01*
X122351777Y-64877000D01*
X122700499Y-64807635D01*
X123028988Y-64671571D01*
X123324621Y-64474035D01*
X123576035Y-64222621D01*
X123773571Y-63926988D01*
X123909635Y-63598499D01*
X123979000Y-63249777D01*
X123979000Y-62894223D01*
X123909635Y-62545501D01*
X123773571Y-62217012D01*
X123576035Y-61921379D01*
X123324621Y-61669965D01*
X123028988Y-61472429D01*
X122700499Y-61336365D01*
X122351777Y-61267000D01*
X121996223Y-61267000D01*
X121647501Y-61336365D01*
X121319012Y-61472429D01*
X121023379Y-61669965D01*
X120771965Y-61921379D01*
X120574429Y-62217012D01*
X120438365Y-62545501D01*
X120369000Y-62894223D01*
X119378000Y-62894223D01*
X119378000Y-59242801D01*
X119788802Y-58832000D01*
X120535084Y-58832000D01*
X120574429Y-58926988D01*
X120771965Y-59222621D01*
X121023379Y-59474035D01*
X121319012Y-59671571D01*
X121647501Y-59807635D01*
X121996223Y-59877000D01*
X122351777Y-59877000D01*
X122700499Y-59807635D01*
X123028988Y-59671571D01*
X123324621Y-59474035D01*
X123576035Y-59222621D01*
X123773571Y-58926988D01*
X123909635Y-58598499D01*
X123979000Y-58249777D01*
X123979000Y-57894223D01*
X123909635Y-57545501D01*
X123773571Y-57217012D01*
X123576035Y-56921379D01*
X123324621Y-56669965D01*
X123028988Y-56472429D01*
X122700499Y-56336365D01*
X122351777Y-56267000D01*
X121996223Y-56267000D01*
X121647501Y-56336365D01*
X121319012Y-56472429D01*
X121023379Y-56669965D01*
X120771965Y-56921379D01*
X120574429Y-57217012D01*
X120535084Y-57312000D01*
X119511323Y-57312000D01*
X119474000Y-57308324D01*
X119436677Y-57312000D01*
X119436667Y-57312000D01*
X119325014Y-57322997D01*
X119181753Y-57366454D01*
X119049724Y-57437026D01*
X118933999Y-57531999D01*
X118910201Y-57560997D01*
X118107002Y-58364197D01*
X118077999Y-58387999D01*
X118022871Y-58455174D01*
X117983026Y-58503724D01*
X117925150Y-58612001D01*
X117912454Y-58635754D01*
X117868997Y-58779015D01*
X117858000Y-58890668D01*
X117858000Y-58890678D01*
X117854324Y-58928000D01*
X116660000Y-58928000D01*
X116660000Y-55973056D01*
X116870279Y-56113560D01*
X117304321Y-56293346D01*
X117765098Y-56385000D01*
X118234902Y-56385000D01*
X118695679Y-56293346D01*
X119129721Y-56113560D01*
X119520349Y-55852550D01*
X119852550Y-55520349D01*
X120113560Y-55129721D01*
X120293346Y-54695679D01*
X120385000Y-54234902D01*
X120385000Y-53765098D01*
X120293346Y-53304321D01*
X120113560Y-52870279D01*
X119973056Y-52660000D01*
X154026944Y-52660000D01*
X153886440Y-52870279D01*
G37*
%TD.AperFunction*%
%TD*%
M02*
