%TF.GenerationSoftware,KiCad,Pcbnew,(5.1.12)-1*%
%TF.CreationDate,2023-08-18T14:03:13+05:30*%
%TF.ProjectId,BURGLAR  ALARAM,42555247-4c41-4522-9020-414c4152414d,rev?*%
%TF.SameCoordinates,Original*%
%TF.FileFunction,Copper,L2,Bot*%
%TF.FilePolarity,Positive*%
%FSLAX46Y46*%
G04 Gerber Fmt 4.6, Leading zero omitted, Abs format (unit mm)*
G04 Created by KiCad (PCBNEW (5.1.12)-1) date 2023-08-18 14:03:13*
%MOMM*%
%LPD*%
G01*
G04 APERTURE LIST*
%TA.AperFunction,ComponentPad*%
%ADD10O,1.700000X1.700000*%
%TD*%
%TA.AperFunction,ComponentPad*%
%ADD11R,1.700000X1.700000*%
%TD*%
%TA.AperFunction,ComponentPad*%
%ADD12C,1.498000*%
%TD*%
%TA.AperFunction,ComponentPad*%
%ADD13R,1.498000X1.498000*%
%TD*%
%TA.AperFunction,ComponentPad*%
%ADD14O,1.400000X1.400000*%
%TD*%
%TA.AperFunction,ComponentPad*%
%ADD15C,1.400000*%
%TD*%
%TA.AperFunction,ComponentPad*%
%ADD16R,1.050000X1.500000*%
%TD*%
%TA.AperFunction,ComponentPad*%
%ADD17O,1.050000X1.500000*%
%TD*%
%TA.AperFunction,ComponentPad*%
%ADD18C,1.200000*%
%TD*%
%TA.AperFunction,ComponentPad*%
%ADD19R,1.200000X1.200000*%
%TD*%
%TA.AperFunction,ViaPad*%
%ADD20C,3.500000*%
%TD*%
%TA.AperFunction,Conductor*%
%ADD21C,0.250000*%
%TD*%
%TA.AperFunction,Conductor*%
%ADD22C,0.254000*%
%TD*%
%TA.AperFunction,Conductor*%
%ADD23C,0.100000*%
%TD*%
G04 APERTURE END LIST*
D10*
%TO.P,SP1,2*%
%TO.N,Earth*%
X131826000Y-71882000D03*
D11*
%TO.P,SP1,1*%
%TO.N,Net-(C1-Pad1)*%
X131826000Y-69342000D03*
%TD*%
D12*
%TO.P,S1,4*%
%TO.N,Net-(C1-Pad2)*%
X121464000Y-68616000D03*
%TO.P,S1,2*%
%TO.N,Earth*%
X127964000Y-68616000D03*
%TO.P,S1,3*%
%TO.N,Net-(C1-Pad2)*%
X121464000Y-73116000D03*
D13*
%TO.P,S1,1*%
%TO.N,Earth*%
X127964000Y-73116000D03*
%TD*%
D14*
%TO.P,R2,2*%
%TO.N,Net-(Q1-Pad3)*%
X130556000Y-80264000D03*
D15*
%TO.P,R2,1*%
%TO.N,Earth*%
X130556000Y-75184000D03*
%TD*%
D14*
%TO.P,R1,2*%
%TO.N,Net-(C1-Pad2)*%
X137668000Y-73660000D03*
D15*
%TO.P,R1,1*%
%TO.N,Net-(3V1-Pad1)*%
X142748000Y-73660000D03*
%TD*%
D16*
%TO.P,Q2,1*%
%TO.N,Net-(C1-Pad1)*%
X133604000Y-78486000D03*
D17*
%TO.P,Q2,3*%
%TO.N,Net-(3V1-Pad1)*%
X136144000Y-78486000D03*
%TO.P,Q2,2*%
%TO.N,Net-(Q1-Pad1)*%
X134874000Y-78486000D03*
%TD*%
D16*
%TO.P,Q1,1*%
%TO.N,Net-(Q1-Pad1)*%
X124460000Y-77470000D03*
D17*
%TO.P,Q1,3*%
%TO.N,Net-(Q1-Pad3)*%
X127000000Y-77470000D03*
%TO.P,Q1,2*%
%TO.N,Net-(C1-Pad2)*%
X125730000Y-77470000D03*
%TD*%
D18*
%TO.P,C2,2*%
%TO.N,Earth*%
X141986000Y-68612000D03*
D19*
%TO.P,C2,1*%
%TO.N,Net-(3V1-Pad1)*%
X141986000Y-70612000D03*
%TD*%
D18*
%TO.P,C1,2*%
%TO.N,Net-(C1-Pad2)*%
X137636000Y-69850000D03*
D19*
%TO.P,C1,1*%
%TO.N,Net-(C1-Pad1)*%
X135636000Y-69850000D03*
%TD*%
D10*
%TO.P,3V1,2*%
%TO.N,Earth*%
X145796000Y-73914000D03*
D11*
%TO.P,3V1,1*%
%TO.N,Net-(3V1-Pad1)*%
X145796000Y-76454000D03*
%TD*%
D20*
%TO.N,*%
X121000000Y-64000000D03*
X147000000Y-64000000D03*
X147000000Y-81000000D03*
X121000000Y-81000000D03*
%TD*%
D21*
%TO.N,Earth*%
X127964000Y-73116000D02*
X127964000Y-68616000D01*
X141986000Y-68612000D02*
X144812000Y-68612000D01*
X145796000Y-69596000D02*
X145796000Y-73914000D01*
X144812000Y-68612000D02*
X145796000Y-69596000D01*
X131826000Y-73914000D02*
X130556000Y-75184000D01*
X131826000Y-71882000D02*
X131826000Y-73914000D01*
X128488000Y-73116000D02*
X127964000Y-73116000D01*
X130556000Y-75184000D02*
X128488000Y-73116000D01*
X130048000Y-71882000D02*
X131826000Y-71882000D01*
X129540000Y-71374000D02*
X130048000Y-71882000D01*
X139192000Y-74168000D02*
X138674999Y-74685001D01*
X138674999Y-74685001D02*
X137175999Y-74685001D01*
X139192000Y-68834000D02*
X139192000Y-74168000D01*
X137175999Y-74685001D02*
X136642999Y-74152001D01*
X136642999Y-74152001D02*
X136642999Y-73167999D01*
X136642999Y-73167999D02*
X136652000Y-73158998D01*
X136652000Y-73158998D02*
X136652000Y-66737795D01*
X136652000Y-66737795D02*
X136012195Y-66097990D01*
X139414000Y-68612000D02*
X139192000Y-68834000D01*
X136012195Y-66097990D02*
X130244010Y-66097990D01*
X130244010Y-66097990D02*
X129540000Y-66802000D01*
X141986000Y-68612000D02*
X139414000Y-68612000D01*
X129540000Y-66802000D02*
X129540000Y-71374000D01*
%TO.N,Net-(3V1-Pad1)*%
X145542000Y-76454000D02*
X145796000Y-76454000D01*
X142748000Y-73660000D02*
X145542000Y-76454000D01*
X141986000Y-72898000D02*
X142748000Y-73660000D01*
X141986000Y-70612000D02*
X141986000Y-72898000D01*
X136144000Y-78486000D02*
X143764000Y-78486000D01*
X143764000Y-78486000D02*
X145796000Y-76454000D01*
%TO.N,Net-(C1-Pad2)*%
X121464000Y-73116000D02*
X121464000Y-68616000D01*
X137668000Y-69882000D02*
X137636000Y-69850000D01*
X137668000Y-73660000D02*
X137668000Y-69882000D01*
X122936000Y-65024000D02*
X135890000Y-65024000D01*
X121464000Y-68616000D02*
X121464000Y-66496000D01*
X121464000Y-66496000D02*
X122936000Y-65024000D01*
X135890000Y-65024000D02*
X137636000Y-66770000D01*
X137636000Y-66770000D02*
X137636000Y-69850000D01*
X125530000Y-77470000D02*
X125730000Y-77470000D01*
X125310001Y-77689999D02*
X125530000Y-77470000D01*
X122000000Y-79000000D02*
X125000000Y-79000000D01*
X121464000Y-78464000D02*
X122000000Y-79000000D01*
X121464000Y-73116000D02*
X121464000Y-78464000D01*
X125730000Y-78270000D02*
X125730000Y-77470000D01*
X125000000Y-79000000D02*
X125730000Y-78270000D01*
%TO.N,Net-(C1-Pad1)*%
X131826000Y-69342000D02*
X131826000Y-67056000D01*
X131826000Y-67056000D02*
X132334000Y-66548000D01*
X132334000Y-66548000D02*
X135128000Y-66548000D01*
X135636000Y-67056000D02*
X135636000Y-69850000D01*
X135128000Y-66548000D02*
X135636000Y-67056000D01*
X133604000Y-71882000D02*
X135636000Y-69850000D01*
X133604000Y-78486000D02*
X133604000Y-71882000D01*
%TO.N,Net-(Q1-Pad1)*%
X134874000Y-79486000D02*
X134874000Y-78486000D01*
X134604000Y-79756000D02*
X134874000Y-79486000D01*
X124460000Y-77470000D02*
X124460000Y-75692000D01*
X124460000Y-75692000D02*
X125222000Y-74930000D01*
X125222000Y-74930000D02*
X128016000Y-74930000D01*
X128778000Y-75692000D02*
X128778000Y-78743499D01*
X128778000Y-78743499D02*
X129282501Y-79248000D01*
X130054998Y-79248000D02*
X130063999Y-79238999D01*
X132334000Y-79248000D02*
X132842000Y-79756000D01*
X130063999Y-79238999D02*
X131048001Y-79238999D01*
X131048001Y-79238999D02*
X131057002Y-79248000D01*
X128016000Y-74930000D02*
X128778000Y-75692000D01*
X129282501Y-79248000D02*
X130054998Y-79248000D01*
X132842000Y-79756000D02*
X134604000Y-79756000D01*
X131057002Y-79248000D02*
X132334000Y-79248000D01*
%TO.N,Net-(Q1-Pad3)*%
X128794000Y-80264000D02*
X130556000Y-80264000D01*
X127000000Y-77470000D02*
X127000000Y-78470000D01*
X127000000Y-78470000D02*
X128794000Y-80264000D01*
%TD*%
D22*
%TO.N,Earth*%
X145479651Y-62147450D02*
X145147450Y-62479651D01*
X144886440Y-62870279D01*
X144706654Y-63304321D01*
X144615000Y-63765098D01*
X144615000Y-64234902D01*
X144706654Y-64695679D01*
X144886440Y-65129721D01*
X145147450Y-65520349D01*
X145479651Y-65852550D01*
X145870279Y-66113560D01*
X146304321Y-66293346D01*
X146765098Y-66385000D01*
X147234902Y-66385000D01*
X147695679Y-66293346D01*
X148129721Y-66113560D01*
X148520349Y-65852550D01*
X148852550Y-65520349D01*
X148873000Y-65489743D01*
X148873000Y-79510257D01*
X148852550Y-79479651D01*
X148520349Y-79147450D01*
X148129721Y-78886440D01*
X147695679Y-78706654D01*
X147234902Y-78615000D01*
X146765098Y-78615000D01*
X146304321Y-78706654D01*
X145870279Y-78886440D01*
X145479651Y-79147450D01*
X145147450Y-79479651D01*
X144886440Y-79870279D01*
X144706654Y-80304321D01*
X144615000Y-80765098D01*
X144615000Y-81234902D01*
X144706654Y-81695679D01*
X144886440Y-82129721D01*
X145147450Y-82520349D01*
X145479651Y-82852550D01*
X145510257Y-82873000D01*
X122489743Y-82873000D01*
X122520349Y-82852550D01*
X122852550Y-82520349D01*
X123113560Y-82129721D01*
X123293346Y-81695679D01*
X123385000Y-81234902D01*
X123385000Y-80765098D01*
X123293346Y-80304321D01*
X123113560Y-79870279D01*
X123039874Y-79760000D01*
X124962678Y-79760000D01*
X125000000Y-79763676D01*
X125037322Y-79760000D01*
X125037333Y-79760000D01*
X125148986Y-79749003D01*
X125292247Y-79705546D01*
X125424276Y-79634974D01*
X125540001Y-79540001D01*
X125563803Y-79510998D01*
X126241004Y-78833798D01*
X126270001Y-78810001D01*
X126300267Y-78773122D01*
X126365026Y-78894276D01*
X126435628Y-78980304D01*
X126460000Y-79010001D01*
X126488998Y-79033799D01*
X128230201Y-80775003D01*
X128253999Y-80804001D01*
X128282997Y-80827799D01*
X128369723Y-80898974D01*
X128501753Y-80969546D01*
X128645014Y-81013003D01*
X128756667Y-81024000D01*
X128756676Y-81024000D01*
X128793999Y-81027676D01*
X128831322Y-81024000D01*
X129458225Y-81024000D01*
X129519038Y-81115013D01*
X129704987Y-81300962D01*
X129923641Y-81447061D01*
X130166595Y-81547696D01*
X130424514Y-81599000D01*
X130687486Y-81599000D01*
X130945405Y-81547696D01*
X131188359Y-81447061D01*
X131407013Y-81300962D01*
X131592962Y-81115013D01*
X131739061Y-80896359D01*
X131839696Y-80653405D01*
X131891000Y-80395486D01*
X131891000Y-80132514D01*
X131866232Y-80008000D01*
X132019199Y-80008000D01*
X132278200Y-80267002D01*
X132301999Y-80296001D01*
X132417724Y-80390974D01*
X132549753Y-80461546D01*
X132693014Y-80505003D01*
X132804667Y-80516000D01*
X132804676Y-80516000D01*
X132841999Y-80519676D01*
X132879322Y-80516000D01*
X134566678Y-80516000D01*
X134604000Y-80519676D01*
X134641322Y-80516000D01*
X134641333Y-80516000D01*
X134752986Y-80505003D01*
X134896247Y-80461546D01*
X135028276Y-80390974D01*
X135144001Y-80296001D01*
X135167804Y-80266997D01*
X135384998Y-80049803D01*
X135414001Y-80026001D01*
X135508974Y-79910276D01*
X135579546Y-79778247D01*
X135593549Y-79732086D01*
X135697941Y-79787885D01*
X135916601Y-79854215D01*
X136144000Y-79876612D01*
X136371400Y-79854215D01*
X136590060Y-79787885D01*
X136791579Y-79680171D01*
X136968212Y-79535212D01*
X137113171Y-79358579D01*
X137173345Y-79246000D01*
X143726678Y-79246000D01*
X143764000Y-79249676D01*
X143801322Y-79246000D01*
X143801333Y-79246000D01*
X143912986Y-79235003D01*
X144056247Y-79191546D01*
X144188276Y-79120974D01*
X144304001Y-79026001D01*
X144327804Y-78996997D01*
X145382730Y-77942072D01*
X146646000Y-77942072D01*
X146770482Y-77929812D01*
X146890180Y-77893502D01*
X147000494Y-77834537D01*
X147097185Y-77755185D01*
X147176537Y-77658494D01*
X147235502Y-77548180D01*
X147271812Y-77428482D01*
X147284072Y-77304000D01*
X147284072Y-75604000D01*
X147271812Y-75479518D01*
X147235502Y-75359820D01*
X147176537Y-75249506D01*
X147097185Y-75152815D01*
X147000494Y-75073463D01*
X146890180Y-75014498D01*
X146809534Y-74990034D01*
X146893588Y-74914269D01*
X147067641Y-74680920D01*
X147192825Y-74418099D01*
X147237476Y-74270890D01*
X147116155Y-74041000D01*
X145923000Y-74041000D01*
X145923000Y-74061000D01*
X145669000Y-74061000D01*
X145669000Y-74041000D01*
X144475845Y-74041000D01*
X144381871Y-74219070D01*
X144061645Y-73898844D01*
X144083000Y-73791486D01*
X144083000Y-73557110D01*
X144354524Y-73557110D01*
X144475845Y-73787000D01*
X145669000Y-73787000D01*
X145669000Y-72593186D01*
X145923000Y-72593186D01*
X145923000Y-73787000D01*
X147116155Y-73787000D01*
X147237476Y-73557110D01*
X147192825Y-73409901D01*
X147067641Y-73147080D01*
X146893588Y-72913731D01*
X146677355Y-72718822D01*
X146427252Y-72569843D01*
X146152891Y-72472519D01*
X145923000Y-72593186D01*
X145669000Y-72593186D01*
X145439109Y-72472519D01*
X145164748Y-72569843D01*
X144914645Y-72718822D01*
X144698412Y-72913731D01*
X144524359Y-73147080D01*
X144399175Y-73409901D01*
X144354524Y-73557110D01*
X144083000Y-73557110D01*
X144083000Y-73528514D01*
X144031696Y-73270595D01*
X143931061Y-73027641D01*
X143784962Y-72808987D01*
X143599013Y-72623038D01*
X143380359Y-72476939D01*
X143137405Y-72376304D01*
X142879486Y-72325000D01*
X142746000Y-72325000D01*
X142746000Y-71827038D01*
X142830180Y-71801502D01*
X142940494Y-71742537D01*
X143037185Y-71663185D01*
X143116537Y-71566494D01*
X143175502Y-71456180D01*
X143211812Y-71336482D01*
X143224072Y-71212000D01*
X143224072Y-70012000D01*
X143211812Y-69887518D01*
X143175502Y-69767820D01*
X143116537Y-69657506D01*
X143037185Y-69560815D01*
X142940494Y-69481463D01*
X142894994Y-69457142D01*
X142952872Y-69399264D01*
X142835766Y-69282158D01*
X143059348Y-69234852D01*
X143160237Y-69013484D01*
X143216000Y-68776687D01*
X143224495Y-68533562D01*
X143185395Y-68293451D01*
X143100202Y-68065582D01*
X143059348Y-67989148D01*
X142835764Y-67941841D01*
X142165605Y-68612000D01*
X142179748Y-68626143D01*
X142000143Y-68805748D01*
X141986000Y-68791605D01*
X141971858Y-68805748D01*
X141792253Y-68626143D01*
X141806395Y-68612000D01*
X141136236Y-67941841D01*
X140912652Y-67989148D01*
X140811763Y-68210516D01*
X140756000Y-68447313D01*
X140747505Y-68690438D01*
X140786605Y-68930549D01*
X140871798Y-69158418D01*
X140912652Y-69234852D01*
X141136234Y-69282158D01*
X141019128Y-69399264D01*
X141077006Y-69457142D01*
X141031506Y-69481463D01*
X140934815Y-69560815D01*
X140855463Y-69657506D01*
X140796498Y-69767820D01*
X140760188Y-69887518D01*
X140747928Y-70012000D01*
X140747928Y-71212000D01*
X140760188Y-71336482D01*
X140796498Y-71456180D01*
X140855463Y-71566494D01*
X140934815Y-71663185D01*
X141031506Y-71742537D01*
X141141820Y-71801502D01*
X141226001Y-71827038D01*
X141226001Y-72860668D01*
X141222324Y-72898000D01*
X141226001Y-72935333D01*
X141236998Y-73046986D01*
X141250180Y-73090442D01*
X141280454Y-73190246D01*
X141351026Y-73322276D01*
X141422201Y-73409002D01*
X141433930Y-73423294D01*
X141413000Y-73528514D01*
X141413000Y-73791486D01*
X141464304Y-74049405D01*
X141564939Y-74292359D01*
X141711038Y-74511013D01*
X141896987Y-74696962D01*
X142115641Y-74843061D01*
X142358595Y-74943696D01*
X142616514Y-74995000D01*
X142879486Y-74995000D01*
X142986844Y-74973645D01*
X144307928Y-76294730D01*
X144307928Y-76867270D01*
X143449199Y-77726000D01*
X137173346Y-77726000D01*
X137113171Y-77613421D01*
X136968212Y-77436788D01*
X136791578Y-77291829D01*
X136590059Y-77184115D01*
X136371399Y-77117785D01*
X136144000Y-77095388D01*
X135916600Y-77117785D01*
X135697940Y-77184115D01*
X135509000Y-77285106D01*
X135320059Y-77184115D01*
X135101399Y-77117785D01*
X134874000Y-77095388D01*
X134646600Y-77117785D01*
X134437902Y-77181093D01*
X134373180Y-77146498D01*
X134364000Y-77143713D01*
X134364000Y-72196801D01*
X135472730Y-71088072D01*
X136236000Y-71088072D01*
X136360482Y-71075812D01*
X136480180Y-71039502D01*
X136590494Y-70980537D01*
X136687185Y-70901185D01*
X136766537Y-70804494D01*
X136793499Y-70754053D01*
X136848733Y-70809287D01*
X136908001Y-70848888D01*
X136908000Y-72562225D01*
X136816987Y-72623038D01*
X136631038Y-72808987D01*
X136484939Y-73027641D01*
X136384304Y-73270595D01*
X136333000Y-73528514D01*
X136333000Y-73791486D01*
X136384304Y-74049405D01*
X136484939Y-74292359D01*
X136631038Y-74511013D01*
X136816987Y-74696962D01*
X137035641Y-74843061D01*
X137278595Y-74943696D01*
X137536514Y-74995000D01*
X137799486Y-74995000D01*
X138057405Y-74943696D01*
X138300359Y-74843061D01*
X138519013Y-74696962D01*
X138704962Y-74511013D01*
X138851061Y-74292359D01*
X138951696Y-74049405D01*
X139003000Y-73791486D01*
X139003000Y-73528514D01*
X138951696Y-73270595D01*
X138851061Y-73027641D01*
X138704962Y-72808987D01*
X138519013Y-72623038D01*
X138428000Y-72562225D01*
X138428000Y-70804554D01*
X138595287Y-70637267D01*
X138730443Y-70434992D01*
X138823540Y-70210236D01*
X138871000Y-69971637D01*
X138871000Y-69728363D01*
X138823540Y-69489764D01*
X138730443Y-69265008D01*
X138595287Y-69062733D01*
X138423267Y-68890713D01*
X138396000Y-68872494D01*
X138396000Y-67762236D01*
X141315841Y-67762236D01*
X141986000Y-68432395D01*
X142656159Y-67762236D01*
X142608852Y-67538652D01*
X142387484Y-67437763D01*
X142150687Y-67382000D01*
X141907562Y-67373505D01*
X141667451Y-67412605D01*
X141439582Y-67497798D01*
X141363148Y-67538652D01*
X141315841Y-67762236D01*
X138396000Y-67762236D01*
X138396000Y-66807323D01*
X138399676Y-66770000D01*
X138396000Y-66732677D01*
X138396000Y-66732667D01*
X138385003Y-66621014D01*
X138341546Y-66477753D01*
X138331344Y-66458667D01*
X138270974Y-66345723D01*
X138199799Y-66258997D01*
X138176001Y-66229999D01*
X138147004Y-66206202D01*
X136453804Y-64513003D01*
X136430001Y-64483999D01*
X136314276Y-64389026D01*
X136182247Y-64318454D01*
X136038986Y-64274997D01*
X135927333Y-64264000D01*
X135927322Y-64264000D01*
X135890000Y-64260324D01*
X135852678Y-64264000D01*
X123379212Y-64264000D01*
X123385000Y-64234902D01*
X123385000Y-63765098D01*
X123293346Y-63304321D01*
X123113560Y-62870279D01*
X122852550Y-62479651D01*
X122520349Y-62147450D01*
X122489743Y-62127000D01*
X145510257Y-62127000D01*
X145479651Y-62147450D01*
%TA.AperFunction,Conductor*%
D23*
G36*
X145479651Y-62147450D02*
G01*
X145147450Y-62479651D01*
X144886440Y-62870279D01*
X144706654Y-63304321D01*
X144615000Y-63765098D01*
X144615000Y-64234902D01*
X144706654Y-64695679D01*
X144886440Y-65129721D01*
X145147450Y-65520349D01*
X145479651Y-65852550D01*
X145870279Y-66113560D01*
X146304321Y-66293346D01*
X146765098Y-66385000D01*
X147234902Y-66385000D01*
X147695679Y-66293346D01*
X148129721Y-66113560D01*
X148520349Y-65852550D01*
X148852550Y-65520349D01*
X148873000Y-65489743D01*
X148873000Y-79510257D01*
X148852550Y-79479651D01*
X148520349Y-79147450D01*
X148129721Y-78886440D01*
X147695679Y-78706654D01*
X147234902Y-78615000D01*
X146765098Y-78615000D01*
X146304321Y-78706654D01*
X145870279Y-78886440D01*
X145479651Y-79147450D01*
X145147450Y-79479651D01*
X144886440Y-79870279D01*
X144706654Y-80304321D01*
X144615000Y-80765098D01*
X144615000Y-81234902D01*
X144706654Y-81695679D01*
X144886440Y-82129721D01*
X145147450Y-82520349D01*
X145479651Y-82852550D01*
X145510257Y-82873000D01*
X122489743Y-82873000D01*
X122520349Y-82852550D01*
X122852550Y-82520349D01*
X123113560Y-82129721D01*
X123293346Y-81695679D01*
X123385000Y-81234902D01*
X123385000Y-80765098D01*
X123293346Y-80304321D01*
X123113560Y-79870279D01*
X123039874Y-79760000D01*
X124962678Y-79760000D01*
X125000000Y-79763676D01*
X125037322Y-79760000D01*
X125037333Y-79760000D01*
X125148986Y-79749003D01*
X125292247Y-79705546D01*
X125424276Y-79634974D01*
X125540001Y-79540001D01*
X125563803Y-79510998D01*
X126241004Y-78833798D01*
X126270001Y-78810001D01*
X126300267Y-78773122D01*
X126365026Y-78894276D01*
X126435628Y-78980304D01*
X126460000Y-79010001D01*
X126488998Y-79033799D01*
X128230201Y-80775003D01*
X128253999Y-80804001D01*
X128282997Y-80827799D01*
X128369723Y-80898974D01*
X128501753Y-80969546D01*
X128645014Y-81013003D01*
X128756667Y-81024000D01*
X128756676Y-81024000D01*
X128793999Y-81027676D01*
X128831322Y-81024000D01*
X129458225Y-81024000D01*
X129519038Y-81115013D01*
X129704987Y-81300962D01*
X129923641Y-81447061D01*
X130166595Y-81547696D01*
X130424514Y-81599000D01*
X130687486Y-81599000D01*
X130945405Y-81547696D01*
X131188359Y-81447061D01*
X131407013Y-81300962D01*
X131592962Y-81115013D01*
X131739061Y-80896359D01*
X131839696Y-80653405D01*
X131891000Y-80395486D01*
X131891000Y-80132514D01*
X131866232Y-80008000D01*
X132019199Y-80008000D01*
X132278200Y-80267002D01*
X132301999Y-80296001D01*
X132417724Y-80390974D01*
X132549753Y-80461546D01*
X132693014Y-80505003D01*
X132804667Y-80516000D01*
X132804676Y-80516000D01*
X132841999Y-80519676D01*
X132879322Y-80516000D01*
X134566678Y-80516000D01*
X134604000Y-80519676D01*
X134641322Y-80516000D01*
X134641333Y-80516000D01*
X134752986Y-80505003D01*
X134896247Y-80461546D01*
X135028276Y-80390974D01*
X135144001Y-80296001D01*
X135167804Y-80266997D01*
X135384998Y-80049803D01*
X135414001Y-80026001D01*
X135508974Y-79910276D01*
X135579546Y-79778247D01*
X135593549Y-79732086D01*
X135697941Y-79787885D01*
X135916601Y-79854215D01*
X136144000Y-79876612D01*
X136371400Y-79854215D01*
X136590060Y-79787885D01*
X136791579Y-79680171D01*
X136968212Y-79535212D01*
X137113171Y-79358579D01*
X137173345Y-79246000D01*
X143726678Y-79246000D01*
X143764000Y-79249676D01*
X143801322Y-79246000D01*
X143801333Y-79246000D01*
X143912986Y-79235003D01*
X144056247Y-79191546D01*
X144188276Y-79120974D01*
X144304001Y-79026001D01*
X144327804Y-78996997D01*
X145382730Y-77942072D01*
X146646000Y-77942072D01*
X146770482Y-77929812D01*
X146890180Y-77893502D01*
X147000494Y-77834537D01*
X147097185Y-77755185D01*
X147176537Y-77658494D01*
X147235502Y-77548180D01*
X147271812Y-77428482D01*
X147284072Y-77304000D01*
X147284072Y-75604000D01*
X147271812Y-75479518D01*
X147235502Y-75359820D01*
X147176537Y-75249506D01*
X147097185Y-75152815D01*
X147000494Y-75073463D01*
X146890180Y-75014498D01*
X146809534Y-74990034D01*
X146893588Y-74914269D01*
X147067641Y-74680920D01*
X147192825Y-74418099D01*
X147237476Y-74270890D01*
X147116155Y-74041000D01*
X145923000Y-74041000D01*
X145923000Y-74061000D01*
X145669000Y-74061000D01*
X145669000Y-74041000D01*
X144475845Y-74041000D01*
X144381871Y-74219070D01*
X144061645Y-73898844D01*
X144083000Y-73791486D01*
X144083000Y-73557110D01*
X144354524Y-73557110D01*
X144475845Y-73787000D01*
X145669000Y-73787000D01*
X145669000Y-72593186D01*
X145923000Y-72593186D01*
X145923000Y-73787000D01*
X147116155Y-73787000D01*
X147237476Y-73557110D01*
X147192825Y-73409901D01*
X147067641Y-73147080D01*
X146893588Y-72913731D01*
X146677355Y-72718822D01*
X146427252Y-72569843D01*
X146152891Y-72472519D01*
X145923000Y-72593186D01*
X145669000Y-72593186D01*
X145439109Y-72472519D01*
X145164748Y-72569843D01*
X144914645Y-72718822D01*
X144698412Y-72913731D01*
X144524359Y-73147080D01*
X144399175Y-73409901D01*
X144354524Y-73557110D01*
X144083000Y-73557110D01*
X144083000Y-73528514D01*
X144031696Y-73270595D01*
X143931061Y-73027641D01*
X143784962Y-72808987D01*
X143599013Y-72623038D01*
X143380359Y-72476939D01*
X143137405Y-72376304D01*
X142879486Y-72325000D01*
X142746000Y-72325000D01*
X142746000Y-71827038D01*
X142830180Y-71801502D01*
X142940494Y-71742537D01*
X143037185Y-71663185D01*
X143116537Y-71566494D01*
X143175502Y-71456180D01*
X143211812Y-71336482D01*
X143224072Y-71212000D01*
X143224072Y-70012000D01*
X143211812Y-69887518D01*
X143175502Y-69767820D01*
X143116537Y-69657506D01*
X143037185Y-69560815D01*
X142940494Y-69481463D01*
X142894994Y-69457142D01*
X142952872Y-69399264D01*
X142835766Y-69282158D01*
X143059348Y-69234852D01*
X143160237Y-69013484D01*
X143216000Y-68776687D01*
X143224495Y-68533562D01*
X143185395Y-68293451D01*
X143100202Y-68065582D01*
X143059348Y-67989148D01*
X142835764Y-67941841D01*
X142165605Y-68612000D01*
X142179748Y-68626143D01*
X142000143Y-68805748D01*
X141986000Y-68791605D01*
X141971858Y-68805748D01*
X141792253Y-68626143D01*
X141806395Y-68612000D01*
X141136236Y-67941841D01*
X140912652Y-67989148D01*
X140811763Y-68210516D01*
X140756000Y-68447313D01*
X140747505Y-68690438D01*
X140786605Y-68930549D01*
X140871798Y-69158418D01*
X140912652Y-69234852D01*
X141136234Y-69282158D01*
X141019128Y-69399264D01*
X141077006Y-69457142D01*
X141031506Y-69481463D01*
X140934815Y-69560815D01*
X140855463Y-69657506D01*
X140796498Y-69767820D01*
X140760188Y-69887518D01*
X140747928Y-70012000D01*
X140747928Y-71212000D01*
X140760188Y-71336482D01*
X140796498Y-71456180D01*
X140855463Y-71566494D01*
X140934815Y-71663185D01*
X141031506Y-71742537D01*
X141141820Y-71801502D01*
X141226001Y-71827038D01*
X141226001Y-72860668D01*
X141222324Y-72898000D01*
X141226001Y-72935333D01*
X141236998Y-73046986D01*
X141250180Y-73090442D01*
X141280454Y-73190246D01*
X141351026Y-73322276D01*
X141422201Y-73409002D01*
X141433930Y-73423294D01*
X141413000Y-73528514D01*
X141413000Y-73791486D01*
X141464304Y-74049405D01*
X141564939Y-74292359D01*
X141711038Y-74511013D01*
X141896987Y-74696962D01*
X142115641Y-74843061D01*
X142358595Y-74943696D01*
X142616514Y-74995000D01*
X142879486Y-74995000D01*
X142986844Y-74973645D01*
X144307928Y-76294730D01*
X144307928Y-76867270D01*
X143449199Y-77726000D01*
X137173346Y-77726000D01*
X137113171Y-77613421D01*
X136968212Y-77436788D01*
X136791578Y-77291829D01*
X136590059Y-77184115D01*
X136371399Y-77117785D01*
X136144000Y-77095388D01*
X135916600Y-77117785D01*
X135697940Y-77184115D01*
X135509000Y-77285106D01*
X135320059Y-77184115D01*
X135101399Y-77117785D01*
X134874000Y-77095388D01*
X134646600Y-77117785D01*
X134437902Y-77181093D01*
X134373180Y-77146498D01*
X134364000Y-77143713D01*
X134364000Y-72196801D01*
X135472730Y-71088072D01*
X136236000Y-71088072D01*
X136360482Y-71075812D01*
X136480180Y-71039502D01*
X136590494Y-70980537D01*
X136687185Y-70901185D01*
X136766537Y-70804494D01*
X136793499Y-70754053D01*
X136848733Y-70809287D01*
X136908001Y-70848888D01*
X136908000Y-72562225D01*
X136816987Y-72623038D01*
X136631038Y-72808987D01*
X136484939Y-73027641D01*
X136384304Y-73270595D01*
X136333000Y-73528514D01*
X136333000Y-73791486D01*
X136384304Y-74049405D01*
X136484939Y-74292359D01*
X136631038Y-74511013D01*
X136816987Y-74696962D01*
X137035641Y-74843061D01*
X137278595Y-74943696D01*
X137536514Y-74995000D01*
X137799486Y-74995000D01*
X138057405Y-74943696D01*
X138300359Y-74843061D01*
X138519013Y-74696962D01*
X138704962Y-74511013D01*
X138851061Y-74292359D01*
X138951696Y-74049405D01*
X139003000Y-73791486D01*
X139003000Y-73528514D01*
X138951696Y-73270595D01*
X138851061Y-73027641D01*
X138704962Y-72808987D01*
X138519013Y-72623038D01*
X138428000Y-72562225D01*
X138428000Y-70804554D01*
X138595287Y-70637267D01*
X138730443Y-70434992D01*
X138823540Y-70210236D01*
X138871000Y-69971637D01*
X138871000Y-69728363D01*
X138823540Y-69489764D01*
X138730443Y-69265008D01*
X138595287Y-69062733D01*
X138423267Y-68890713D01*
X138396000Y-68872494D01*
X138396000Y-67762236D01*
X141315841Y-67762236D01*
X141986000Y-68432395D01*
X142656159Y-67762236D01*
X142608852Y-67538652D01*
X142387484Y-67437763D01*
X142150687Y-67382000D01*
X141907562Y-67373505D01*
X141667451Y-67412605D01*
X141439582Y-67497798D01*
X141363148Y-67538652D01*
X141315841Y-67762236D01*
X138396000Y-67762236D01*
X138396000Y-66807323D01*
X138399676Y-66770000D01*
X138396000Y-66732677D01*
X138396000Y-66732667D01*
X138385003Y-66621014D01*
X138341546Y-66477753D01*
X138331344Y-66458667D01*
X138270974Y-66345723D01*
X138199799Y-66258997D01*
X138176001Y-66229999D01*
X138147004Y-66206202D01*
X136453804Y-64513003D01*
X136430001Y-64483999D01*
X136314276Y-64389026D01*
X136182247Y-64318454D01*
X136038986Y-64274997D01*
X135927333Y-64264000D01*
X135927322Y-64264000D01*
X135890000Y-64260324D01*
X135852678Y-64264000D01*
X123379212Y-64264000D01*
X123385000Y-64234902D01*
X123385000Y-63765098D01*
X123293346Y-63304321D01*
X123113560Y-62870279D01*
X122852550Y-62479651D01*
X122520349Y-62147450D01*
X122489743Y-62127000D01*
X145510257Y-62127000D01*
X145479651Y-62147450D01*
G37*
%TD.AperFunction*%
D22*
X136876000Y-67084802D02*
X136876001Y-68872493D01*
X136848733Y-68890713D01*
X136793499Y-68945947D01*
X136766537Y-68895506D01*
X136687185Y-68798815D01*
X136590494Y-68719463D01*
X136480180Y-68660498D01*
X136396000Y-68634962D01*
X136396000Y-67093322D01*
X136399676Y-67055999D01*
X136396000Y-67018676D01*
X136396000Y-67018667D01*
X136385003Y-66907014D01*
X136341546Y-66763753D01*
X136270974Y-66631724D01*
X136176001Y-66515999D01*
X136147003Y-66492202D01*
X135691803Y-66037002D01*
X135668001Y-66007999D01*
X135552276Y-65913026D01*
X135420247Y-65842454D01*
X135276986Y-65798997D01*
X135165333Y-65788000D01*
X135165322Y-65788000D01*
X135128000Y-65784324D01*
X135090678Y-65788000D01*
X132371322Y-65788000D01*
X132333999Y-65784324D01*
X132296676Y-65788000D01*
X132296667Y-65788000D01*
X132185014Y-65798997D01*
X132041753Y-65842454D01*
X131909724Y-65913026D01*
X131793999Y-66007999D01*
X131770200Y-66036998D01*
X131314998Y-66492201D01*
X131286000Y-66515999D01*
X131262202Y-66544997D01*
X131262201Y-66544998D01*
X131191026Y-66631724D01*
X131120454Y-66763754D01*
X131097251Y-66840247D01*
X131076999Y-66907013D01*
X131076998Y-66907015D01*
X131062324Y-67056000D01*
X131066001Y-67093332D01*
X131066001Y-67853928D01*
X130976000Y-67853928D01*
X130851518Y-67866188D01*
X130731820Y-67902498D01*
X130621506Y-67961463D01*
X130524815Y-68040815D01*
X130445463Y-68137506D01*
X130386498Y-68247820D01*
X130350188Y-68367518D01*
X130337928Y-68492000D01*
X130337928Y-70192000D01*
X130350188Y-70316482D01*
X130386498Y-70436180D01*
X130445463Y-70546494D01*
X130524815Y-70643185D01*
X130621506Y-70722537D01*
X130731820Y-70781502D01*
X130812466Y-70805966D01*
X130728412Y-70881731D01*
X130554359Y-71115080D01*
X130429175Y-71377901D01*
X130384524Y-71525110D01*
X130505845Y-71755000D01*
X131699000Y-71755000D01*
X131699000Y-71735000D01*
X131953000Y-71735000D01*
X131953000Y-71755000D01*
X131973000Y-71755000D01*
X131973000Y-72009000D01*
X131953000Y-72009000D01*
X131953000Y-73202814D01*
X132182891Y-73323481D01*
X132457252Y-73226157D01*
X132707355Y-73077178D01*
X132844001Y-72954008D01*
X132844000Y-77143713D01*
X132834820Y-77146498D01*
X132724506Y-77205463D01*
X132627815Y-77284815D01*
X132548463Y-77381506D01*
X132489498Y-77491820D01*
X132453188Y-77611518D01*
X132440928Y-77736000D01*
X132440928Y-78494855D01*
X132371333Y-78488000D01*
X132371322Y-78488000D01*
X132334000Y-78484324D01*
X132296678Y-78488000D01*
X131176722Y-78488000D01*
X131085334Y-78478999D01*
X131085323Y-78478999D01*
X131048001Y-78475323D01*
X131010679Y-78478999D01*
X130101321Y-78478999D01*
X130063998Y-78475323D01*
X130026676Y-78478999D01*
X130026666Y-78478999D01*
X129935278Y-78488000D01*
X129597302Y-78488000D01*
X129538000Y-78428698D01*
X129538000Y-76105269D01*
X129814336Y-76105269D01*
X129873797Y-76339037D01*
X130112242Y-76449934D01*
X130367740Y-76512183D01*
X130630473Y-76523390D01*
X130890344Y-76483125D01*
X131137366Y-76392935D01*
X131238203Y-76339037D01*
X131297664Y-76105269D01*
X130556000Y-75363605D01*
X129814336Y-76105269D01*
X129538000Y-76105269D01*
X129538000Y-75901060D01*
X129634731Y-75925664D01*
X130376395Y-75184000D01*
X130735605Y-75184000D01*
X131477269Y-75925664D01*
X131711037Y-75866203D01*
X131821934Y-75627758D01*
X131884183Y-75372260D01*
X131895390Y-75109527D01*
X131855125Y-74849656D01*
X131764935Y-74602634D01*
X131711037Y-74501797D01*
X131477269Y-74442336D01*
X130735605Y-75184000D01*
X130376395Y-75184000D01*
X129634731Y-74442336D01*
X129400963Y-74501797D01*
X129290066Y-74740242D01*
X129227817Y-74995740D01*
X129224901Y-75064099D01*
X128663545Y-74502744D01*
X128713000Y-74503072D01*
X128837482Y-74490812D01*
X128957180Y-74454502D01*
X129067494Y-74395537D01*
X129164185Y-74316185D01*
X129208053Y-74262731D01*
X129814336Y-74262731D01*
X130556000Y-75004395D01*
X131297664Y-74262731D01*
X131238203Y-74028963D01*
X130999758Y-73918066D01*
X130744260Y-73855817D01*
X130481527Y-73844610D01*
X130221656Y-73884875D01*
X129974634Y-73975065D01*
X129873797Y-74028963D01*
X129814336Y-74262731D01*
X129208053Y-74262731D01*
X129243537Y-74219494D01*
X129302502Y-74109180D01*
X129338812Y-73989482D01*
X129351072Y-73865000D01*
X129348000Y-73401750D01*
X129189250Y-73243000D01*
X128091000Y-73243000D01*
X128091000Y-73263000D01*
X127837000Y-73263000D01*
X127837000Y-73243000D01*
X126738750Y-73243000D01*
X126580000Y-73401750D01*
X126576928Y-73865000D01*
X126589188Y-73989482D01*
X126625498Y-74109180D01*
X126658007Y-74170000D01*
X125259325Y-74170000D01*
X125222000Y-74166324D01*
X125184675Y-74170000D01*
X125184667Y-74170000D01*
X125073014Y-74180997D01*
X124929753Y-74224454D01*
X124797724Y-74295026D01*
X124681999Y-74389999D01*
X124658201Y-74418998D01*
X123948998Y-75128201D01*
X123920000Y-75151999D01*
X123896202Y-75180997D01*
X123896201Y-75180998D01*
X123825026Y-75267724D01*
X123754454Y-75399754D01*
X123741942Y-75441002D01*
X123718482Y-75518344D01*
X123710998Y-75543015D01*
X123696324Y-75692000D01*
X123700001Y-75729332D01*
X123700001Y-76127713D01*
X123690820Y-76130498D01*
X123580506Y-76189463D01*
X123483815Y-76268815D01*
X123404463Y-76365506D01*
X123345498Y-76475820D01*
X123309188Y-76595518D01*
X123296928Y-76720000D01*
X123296928Y-78220000D01*
X123298898Y-78240000D01*
X122314802Y-78240000D01*
X122224000Y-78149198D01*
X122224000Y-74272707D01*
X122346249Y-74191023D01*
X122539023Y-73998249D01*
X122690485Y-73771570D01*
X122794814Y-73519698D01*
X122848000Y-73252312D01*
X122848000Y-72979688D01*
X122794814Y-72712302D01*
X122690485Y-72460430D01*
X122628058Y-72367000D01*
X126576928Y-72367000D01*
X126580000Y-72830250D01*
X126738750Y-72989000D01*
X127837000Y-72989000D01*
X127837000Y-71890750D01*
X128091000Y-71890750D01*
X128091000Y-72989000D01*
X129189250Y-72989000D01*
X129348000Y-72830250D01*
X129351072Y-72367000D01*
X129338812Y-72242518D01*
X129337712Y-72238890D01*
X130384524Y-72238890D01*
X130429175Y-72386099D01*
X130554359Y-72648920D01*
X130728412Y-72882269D01*
X130944645Y-73077178D01*
X131194748Y-73226157D01*
X131469109Y-73323481D01*
X131699000Y-73202814D01*
X131699000Y-72009000D01*
X130505845Y-72009000D01*
X130384524Y-72238890D01*
X129337712Y-72238890D01*
X129302502Y-72122820D01*
X129243537Y-72012506D01*
X129164185Y-71915815D01*
X129067494Y-71836463D01*
X128957180Y-71777498D01*
X128837482Y-71741188D01*
X128713000Y-71728928D01*
X128249750Y-71732000D01*
X128091000Y-71890750D01*
X127837000Y-71890750D01*
X127678250Y-71732000D01*
X127215000Y-71728928D01*
X127090518Y-71741188D01*
X126970820Y-71777498D01*
X126860506Y-71836463D01*
X126763815Y-71915815D01*
X126684463Y-72012506D01*
X126625498Y-72122820D01*
X126589188Y-72242518D01*
X126576928Y-72367000D01*
X122628058Y-72367000D01*
X122539023Y-72233751D01*
X122346249Y-72040977D01*
X122224000Y-71959293D01*
X122224000Y-69772707D01*
X122346249Y-69691023D01*
X122464993Y-69572279D01*
X127187326Y-69572279D01*
X127252729Y-69811045D01*
X127499538Y-69926845D01*
X127764195Y-69992270D01*
X128036531Y-70004805D01*
X128306081Y-69963970D01*
X128562484Y-69871332D01*
X128675271Y-69811045D01*
X128740674Y-69572279D01*
X127964000Y-68795605D01*
X127187326Y-69572279D01*
X122464993Y-69572279D01*
X122539023Y-69498249D01*
X122690485Y-69271570D01*
X122794814Y-69019698D01*
X122848000Y-68752312D01*
X122848000Y-68688531D01*
X126575195Y-68688531D01*
X126616030Y-68958081D01*
X126708668Y-69214484D01*
X126768955Y-69327271D01*
X127007721Y-69392674D01*
X127784395Y-68616000D01*
X128143605Y-68616000D01*
X128920279Y-69392674D01*
X129159045Y-69327271D01*
X129274845Y-69080462D01*
X129340270Y-68815805D01*
X129352805Y-68543469D01*
X129311970Y-68273919D01*
X129219332Y-68017516D01*
X129159045Y-67904729D01*
X128920279Y-67839326D01*
X128143605Y-68616000D01*
X127784395Y-68616000D01*
X127007721Y-67839326D01*
X126768955Y-67904729D01*
X126653155Y-68151538D01*
X126587730Y-68416195D01*
X126575195Y-68688531D01*
X122848000Y-68688531D01*
X122848000Y-68479688D01*
X122794814Y-68212302D01*
X122690485Y-67960430D01*
X122539023Y-67733751D01*
X122464993Y-67659721D01*
X127187326Y-67659721D01*
X127964000Y-68436395D01*
X128740674Y-67659721D01*
X128675271Y-67420955D01*
X128428462Y-67305155D01*
X128163805Y-67239730D01*
X127891469Y-67227195D01*
X127621919Y-67268030D01*
X127365516Y-67360668D01*
X127252729Y-67420955D01*
X127187326Y-67659721D01*
X122464993Y-67659721D01*
X122346249Y-67540977D01*
X122224000Y-67459293D01*
X122224000Y-66810801D01*
X123250802Y-65784000D01*
X135575199Y-65784000D01*
X136876000Y-67084802D01*
%TA.AperFunction,Conductor*%
D23*
G36*
X136876000Y-67084802D02*
G01*
X136876001Y-68872493D01*
X136848733Y-68890713D01*
X136793499Y-68945947D01*
X136766537Y-68895506D01*
X136687185Y-68798815D01*
X136590494Y-68719463D01*
X136480180Y-68660498D01*
X136396000Y-68634962D01*
X136396000Y-67093322D01*
X136399676Y-67055999D01*
X136396000Y-67018676D01*
X136396000Y-67018667D01*
X136385003Y-66907014D01*
X136341546Y-66763753D01*
X136270974Y-66631724D01*
X136176001Y-66515999D01*
X136147003Y-66492202D01*
X135691803Y-66037002D01*
X135668001Y-66007999D01*
X135552276Y-65913026D01*
X135420247Y-65842454D01*
X135276986Y-65798997D01*
X135165333Y-65788000D01*
X135165322Y-65788000D01*
X135128000Y-65784324D01*
X135090678Y-65788000D01*
X132371322Y-65788000D01*
X132333999Y-65784324D01*
X132296676Y-65788000D01*
X132296667Y-65788000D01*
X132185014Y-65798997D01*
X132041753Y-65842454D01*
X131909724Y-65913026D01*
X131793999Y-66007999D01*
X131770200Y-66036998D01*
X131314998Y-66492201D01*
X131286000Y-66515999D01*
X131262202Y-66544997D01*
X131262201Y-66544998D01*
X131191026Y-66631724D01*
X131120454Y-66763754D01*
X131097251Y-66840247D01*
X131076999Y-66907013D01*
X131076998Y-66907015D01*
X131062324Y-67056000D01*
X131066001Y-67093332D01*
X131066001Y-67853928D01*
X130976000Y-67853928D01*
X130851518Y-67866188D01*
X130731820Y-67902498D01*
X130621506Y-67961463D01*
X130524815Y-68040815D01*
X130445463Y-68137506D01*
X130386498Y-68247820D01*
X130350188Y-68367518D01*
X130337928Y-68492000D01*
X130337928Y-70192000D01*
X130350188Y-70316482D01*
X130386498Y-70436180D01*
X130445463Y-70546494D01*
X130524815Y-70643185D01*
X130621506Y-70722537D01*
X130731820Y-70781502D01*
X130812466Y-70805966D01*
X130728412Y-70881731D01*
X130554359Y-71115080D01*
X130429175Y-71377901D01*
X130384524Y-71525110D01*
X130505845Y-71755000D01*
X131699000Y-71755000D01*
X131699000Y-71735000D01*
X131953000Y-71735000D01*
X131953000Y-71755000D01*
X131973000Y-71755000D01*
X131973000Y-72009000D01*
X131953000Y-72009000D01*
X131953000Y-73202814D01*
X132182891Y-73323481D01*
X132457252Y-73226157D01*
X132707355Y-73077178D01*
X132844001Y-72954008D01*
X132844000Y-77143713D01*
X132834820Y-77146498D01*
X132724506Y-77205463D01*
X132627815Y-77284815D01*
X132548463Y-77381506D01*
X132489498Y-77491820D01*
X132453188Y-77611518D01*
X132440928Y-77736000D01*
X132440928Y-78494855D01*
X132371333Y-78488000D01*
X132371322Y-78488000D01*
X132334000Y-78484324D01*
X132296678Y-78488000D01*
X131176722Y-78488000D01*
X131085334Y-78478999D01*
X131085323Y-78478999D01*
X131048001Y-78475323D01*
X131010679Y-78478999D01*
X130101321Y-78478999D01*
X130063998Y-78475323D01*
X130026676Y-78478999D01*
X130026666Y-78478999D01*
X129935278Y-78488000D01*
X129597302Y-78488000D01*
X129538000Y-78428698D01*
X129538000Y-76105269D01*
X129814336Y-76105269D01*
X129873797Y-76339037D01*
X130112242Y-76449934D01*
X130367740Y-76512183D01*
X130630473Y-76523390D01*
X130890344Y-76483125D01*
X131137366Y-76392935D01*
X131238203Y-76339037D01*
X131297664Y-76105269D01*
X130556000Y-75363605D01*
X129814336Y-76105269D01*
X129538000Y-76105269D01*
X129538000Y-75901060D01*
X129634731Y-75925664D01*
X130376395Y-75184000D01*
X130735605Y-75184000D01*
X131477269Y-75925664D01*
X131711037Y-75866203D01*
X131821934Y-75627758D01*
X131884183Y-75372260D01*
X131895390Y-75109527D01*
X131855125Y-74849656D01*
X131764935Y-74602634D01*
X131711037Y-74501797D01*
X131477269Y-74442336D01*
X130735605Y-75184000D01*
X130376395Y-75184000D01*
X129634731Y-74442336D01*
X129400963Y-74501797D01*
X129290066Y-74740242D01*
X129227817Y-74995740D01*
X129224901Y-75064099D01*
X128663545Y-74502744D01*
X128713000Y-74503072D01*
X128837482Y-74490812D01*
X128957180Y-74454502D01*
X129067494Y-74395537D01*
X129164185Y-74316185D01*
X129208053Y-74262731D01*
X129814336Y-74262731D01*
X130556000Y-75004395D01*
X131297664Y-74262731D01*
X131238203Y-74028963D01*
X130999758Y-73918066D01*
X130744260Y-73855817D01*
X130481527Y-73844610D01*
X130221656Y-73884875D01*
X129974634Y-73975065D01*
X129873797Y-74028963D01*
X129814336Y-74262731D01*
X129208053Y-74262731D01*
X129243537Y-74219494D01*
X129302502Y-74109180D01*
X129338812Y-73989482D01*
X129351072Y-73865000D01*
X129348000Y-73401750D01*
X129189250Y-73243000D01*
X128091000Y-73243000D01*
X128091000Y-73263000D01*
X127837000Y-73263000D01*
X127837000Y-73243000D01*
X126738750Y-73243000D01*
X126580000Y-73401750D01*
X126576928Y-73865000D01*
X126589188Y-73989482D01*
X126625498Y-74109180D01*
X126658007Y-74170000D01*
X125259325Y-74170000D01*
X125222000Y-74166324D01*
X125184675Y-74170000D01*
X125184667Y-74170000D01*
X125073014Y-74180997D01*
X124929753Y-74224454D01*
X124797724Y-74295026D01*
X124681999Y-74389999D01*
X124658201Y-74418998D01*
X123948998Y-75128201D01*
X123920000Y-75151999D01*
X123896202Y-75180997D01*
X123896201Y-75180998D01*
X123825026Y-75267724D01*
X123754454Y-75399754D01*
X123741942Y-75441002D01*
X123718482Y-75518344D01*
X123710998Y-75543015D01*
X123696324Y-75692000D01*
X123700001Y-75729332D01*
X123700001Y-76127713D01*
X123690820Y-76130498D01*
X123580506Y-76189463D01*
X123483815Y-76268815D01*
X123404463Y-76365506D01*
X123345498Y-76475820D01*
X123309188Y-76595518D01*
X123296928Y-76720000D01*
X123296928Y-78220000D01*
X123298898Y-78240000D01*
X122314802Y-78240000D01*
X122224000Y-78149198D01*
X122224000Y-74272707D01*
X122346249Y-74191023D01*
X122539023Y-73998249D01*
X122690485Y-73771570D01*
X122794814Y-73519698D01*
X122848000Y-73252312D01*
X122848000Y-72979688D01*
X122794814Y-72712302D01*
X122690485Y-72460430D01*
X122628058Y-72367000D01*
X126576928Y-72367000D01*
X126580000Y-72830250D01*
X126738750Y-72989000D01*
X127837000Y-72989000D01*
X127837000Y-71890750D01*
X128091000Y-71890750D01*
X128091000Y-72989000D01*
X129189250Y-72989000D01*
X129348000Y-72830250D01*
X129351072Y-72367000D01*
X129338812Y-72242518D01*
X129337712Y-72238890D01*
X130384524Y-72238890D01*
X130429175Y-72386099D01*
X130554359Y-72648920D01*
X130728412Y-72882269D01*
X130944645Y-73077178D01*
X131194748Y-73226157D01*
X131469109Y-73323481D01*
X131699000Y-73202814D01*
X131699000Y-72009000D01*
X130505845Y-72009000D01*
X130384524Y-72238890D01*
X129337712Y-72238890D01*
X129302502Y-72122820D01*
X129243537Y-72012506D01*
X129164185Y-71915815D01*
X129067494Y-71836463D01*
X128957180Y-71777498D01*
X128837482Y-71741188D01*
X128713000Y-71728928D01*
X128249750Y-71732000D01*
X128091000Y-71890750D01*
X127837000Y-71890750D01*
X127678250Y-71732000D01*
X127215000Y-71728928D01*
X127090518Y-71741188D01*
X126970820Y-71777498D01*
X126860506Y-71836463D01*
X126763815Y-71915815D01*
X126684463Y-72012506D01*
X126625498Y-72122820D01*
X126589188Y-72242518D01*
X126576928Y-72367000D01*
X122628058Y-72367000D01*
X122539023Y-72233751D01*
X122346249Y-72040977D01*
X122224000Y-71959293D01*
X122224000Y-69772707D01*
X122346249Y-69691023D01*
X122464993Y-69572279D01*
X127187326Y-69572279D01*
X127252729Y-69811045D01*
X127499538Y-69926845D01*
X127764195Y-69992270D01*
X128036531Y-70004805D01*
X128306081Y-69963970D01*
X128562484Y-69871332D01*
X128675271Y-69811045D01*
X128740674Y-69572279D01*
X127964000Y-68795605D01*
X127187326Y-69572279D01*
X122464993Y-69572279D01*
X122539023Y-69498249D01*
X122690485Y-69271570D01*
X122794814Y-69019698D01*
X122848000Y-68752312D01*
X122848000Y-68688531D01*
X126575195Y-68688531D01*
X126616030Y-68958081D01*
X126708668Y-69214484D01*
X126768955Y-69327271D01*
X127007721Y-69392674D01*
X127784395Y-68616000D01*
X128143605Y-68616000D01*
X128920279Y-69392674D01*
X129159045Y-69327271D01*
X129274845Y-69080462D01*
X129340270Y-68815805D01*
X129352805Y-68543469D01*
X129311970Y-68273919D01*
X129219332Y-68017516D01*
X129159045Y-67904729D01*
X128920279Y-67839326D01*
X128143605Y-68616000D01*
X127784395Y-68616000D01*
X127007721Y-67839326D01*
X126768955Y-67904729D01*
X126653155Y-68151538D01*
X126587730Y-68416195D01*
X126575195Y-68688531D01*
X122848000Y-68688531D01*
X122848000Y-68479688D01*
X122794814Y-68212302D01*
X122690485Y-67960430D01*
X122539023Y-67733751D01*
X122464993Y-67659721D01*
X127187326Y-67659721D01*
X127964000Y-68436395D01*
X128740674Y-67659721D01*
X128675271Y-67420955D01*
X128428462Y-67305155D01*
X128163805Y-67239730D01*
X127891469Y-67227195D01*
X127621919Y-67268030D01*
X127365516Y-67360668D01*
X127252729Y-67420955D01*
X127187326Y-67659721D01*
X122464993Y-67659721D01*
X122346249Y-67540977D01*
X122224000Y-67459293D01*
X122224000Y-66810801D01*
X123250802Y-65784000D01*
X135575199Y-65784000D01*
X136876000Y-67084802D01*
G37*
%TD.AperFunction*%
%TD*%
M02*
