%TF.GenerationSoftware,KiCad,Pcbnew,(5.1.12)-1*%
%TF.CreationDate,2023-08-17T22:23:25+05:30*%
%TF.ProjectId,clap switch,636c6170-2073-4776-9974-63682e6b6963,rev?*%
%TF.SameCoordinates,Original*%
%TF.FileFunction,Copper,L1,Top*%
%TF.FilePolarity,Positive*%
%FSLAX46Y46*%
G04 Gerber Fmt 4.6, Leading zero omitted, Abs format (unit mm)*
G04 Created by KiCad (PCBNEW (5.1.12)-1) date 2023-08-17 22:23:25*
%MOMM*%
%LPD*%
G01*
G04 APERTURE LIST*
%TA.AperFunction,ComponentPad*%
%ADD10O,2.400000X1.600000*%
%TD*%
%TA.AperFunction,ComponentPad*%
%ADD11R,2.400000X1.600000*%
%TD*%
%TA.AperFunction,ComponentPad*%
%ADD12C,1.800000*%
%TD*%
%TA.AperFunction,ComponentPad*%
%ADD13R,1.800000X1.800000*%
%TD*%
%TA.AperFunction,ComponentPad*%
%ADD14O,1.700000X1.700000*%
%TD*%
%TA.AperFunction,ComponentPad*%
%ADD15R,1.700000X1.700000*%
%TD*%
%TA.AperFunction,ComponentPad*%
%ADD16R,1.500000X1.050000*%
%TD*%
%TA.AperFunction,ComponentPad*%
%ADD17O,1.500000X1.050000*%
%TD*%
%TA.AperFunction,ComponentPad*%
%ADD18O,1.400000X1.400000*%
%TD*%
%TA.AperFunction,ComponentPad*%
%ADD19C,1.400000*%
%TD*%
%TA.AperFunction,ComponentPad*%
%ADD20R,1.050000X1.500000*%
%TD*%
%TA.AperFunction,ComponentPad*%
%ADD21O,1.050000X1.500000*%
%TD*%
%TA.AperFunction,ComponentPad*%
%ADD22C,1.200000*%
%TD*%
%TA.AperFunction,ComponentPad*%
%ADD23R,1.200000X1.200000*%
%TD*%
%TA.AperFunction,ViaPad*%
%ADD24C,3.500000*%
%TD*%
G04 APERTURE END LIST*
D10*
%TO.P,U1,8*%
%TO.N,Net-(6V1-Pad1)*%
X159120000Y-79750000D03*
%TO.P,U1,4*%
X151500000Y-87370000D03*
%TO.P,U1,7*%
%TO.N,Net-(C2-Pad1)*%
X159120000Y-82290000D03*
%TO.P,U1,3*%
%TO.N,Net-(R1-Pad1)*%
X151500000Y-84830000D03*
%TO.P,U1,6*%
%TO.N,Net-(C2-Pad1)*%
X159120000Y-84830000D03*
%TO.P,U1,2*%
%TO.N,Net-(C3-Pad1)*%
X151500000Y-82290000D03*
%TO.P,U1,5*%
%TO.N,Net-(C1-Pad1)*%
X159120000Y-87370000D03*
D11*
%TO.P,U1,1*%
%TO.N,Earth*%
X151500000Y-79750000D03*
%TD*%
D12*
%TO.P,D1,2*%
%TO.N,Net-(D1-Pad2)*%
X156710000Y-99500000D03*
D13*
%TO.P,D1,1*%
%TO.N,Earth*%
X159250000Y-99500000D03*
%TD*%
D14*
%TO.P,MK1,2*%
%TO.N,Net-(6V1-Pad1)*%
X149710000Y-92000000D03*
D15*
%TO.P,MK1,1*%
%TO.N,Net-(MK1-Pad1)*%
X152250000Y-92000000D03*
%TD*%
D14*
%TO.P,6V1,2*%
%TO.N,Earth*%
X162290000Y-75750000D03*
D15*
%TO.P,6V1,1*%
%TO.N,Net-(6V1-Pad1)*%
X159750000Y-75750000D03*
%TD*%
D16*
%TO.P,Q2,1*%
%TO.N,Net-(C3-Pad2)*%
X169000000Y-80250000D03*
D17*
%TO.P,Q2,3*%
%TO.N,Earth*%
X169000000Y-77710000D03*
%TO.P,Q2,2*%
%TO.N,Net-(Q1-Pad1)*%
X169000000Y-78980000D03*
%TD*%
D18*
%TO.P,R5,2*%
%TO.N,Earth*%
X163670000Y-97250000D03*
D19*
%TO.P,R5,1*%
%TO.N,Net-(MK1-Pad1)*%
X168750000Y-97250000D03*
%TD*%
D18*
%TO.P,R4,2*%
%TO.N,Net-(Q1-Pad1)*%
X164250000Y-86330000D03*
D19*
%TO.P,R4,1*%
%TO.N,Net-(6V1-Pad1)*%
X164250000Y-81250000D03*
%TD*%
D18*
%TO.P,R3,2*%
%TO.N,Net-(C3-Pad2)*%
X168830000Y-92000000D03*
D19*
%TO.P,R3,1*%
%TO.N,Net-(6V1-Pad1)*%
X163750000Y-92000000D03*
%TD*%
D18*
%TO.P,R2,2*%
%TO.N,Net-(C2-Pad1)*%
X147170000Y-99750000D03*
D19*
%TO.P,R2,1*%
%TO.N,Net-(6V1-Pad1)*%
X152250000Y-99750000D03*
%TD*%
D18*
%TO.P,R1,2*%
%TO.N,Net-(D1-Pad2)*%
X153080000Y-96250000D03*
D19*
%TO.P,R1,1*%
%TO.N,Net-(R1-Pad1)*%
X148000000Y-96250000D03*
%TD*%
D20*
%TO.P,Q1,1*%
%TO.N,Net-(Q1-Pad1)*%
X160500000Y-92500000D03*
D21*
%TO.P,Q1,3*%
%TO.N,Earth*%
X157960000Y-92500000D03*
%TO.P,Q1,2*%
%TO.N,Net-(MK1-Pad1)*%
X159230000Y-92500000D03*
%TD*%
D22*
%TO.P,C3,2*%
%TO.N,Net-(C3-Pad2)*%
X169500000Y-86750000D03*
D23*
%TO.P,C3,1*%
%TO.N,Net-(C3-Pad1)*%
X167500000Y-86750000D03*
%TD*%
D22*
%TO.P,C2,2*%
%TO.N,Earth*%
X147000000Y-81000000D03*
D23*
%TO.P,C2,1*%
%TO.N,Net-(C2-Pad1)*%
X147000000Y-83000000D03*
%TD*%
D22*
%TO.P,C1,2*%
%TO.N,Earth*%
X148000000Y-77750000D03*
D23*
%TO.P,C1,1*%
%TO.N,Net-(C1-Pad1)*%
X146000000Y-77750000D03*
%TD*%
D24*
%TO.N,*%
X143000000Y-73000000D03*
X178000000Y-73000000D03*
X178000000Y-103000000D03*
X143000000Y-103000000D03*
%TD*%
M02*
