%TF.GenerationSoftware,KiCad,Pcbnew,(5.1.12)-1*%
%TF.CreationDate,2023-08-17T22:23:25+05:30*%
%TF.ProjectId,clap switch,636c6170-2073-4776-9974-63682e6b6963,rev?*%
%TF.SameCoordinates,Original*%
%TF.FileFunction,Copper,L2,Bot*%
%TF.FilePolarity,Positive*%
%FSLAX46Y46*%
G04 Gerber Fmt 4.6, Leading zero omitted, Abs format (unit mm)*
G04 Created by KiCad (PCBNEW (5.1.12)-1) date 2023-08-17 22:23:25*
%MOMM*%
%LPD*%
G01*
G04 APERTURE LIST*
%TA.AperFunction,ComponentPad*%
%ADD10O,2.400000X1.600000*%
%TD*%
%TA.AperFunction,ComponentPad*%
%ADD11R,2.400000X1.600000*%
%TD*%
%TA.AperFunction,ComponentPad*%
%ADD12C,1.800000*%
%TD*%
%TA.AperFunction,ComponentPad*%
%ADD13R,1.800000X1.800000*%
%TD*%
%TA.AperFunction,ComponentPad*%
%ADD14O,1.700000X1.700000*%
%TD*%
%TA.AperFunction,ComponentPad*%
%ADD15R,1.700000X1.700000*%
%TD*%
%TA.AperFunction,ComponentPad*%
%ADD16R,1.500000X1.050000*%
%TD*%
%TA.AperFunction,ComponentPad*%
%ADD17O,1.500000X1.050000*%
%TD*%
%TA.AperFunction,ComponentPad*%
%ADD18O,1.400000X1.400000*%
%TD*%
%TA.AperFunction,ComponentPad*%
%ADD19C,1.400000*%
%TD*%
%TA.AperFunction,ComponentPad*%
%ADD20R,1.050000X1.500000*%
%TD*%
%TA.AperFunction,ComponentPad*%
%ADD21O,1.050000X1.500000*%
%TD*%
%TA.AperFunction,ComponentPad*%
%ADD22C,1.200000*%
%TD*%
%TA.AperFunction,ComponentPad*%
%ADD23R,1.200000X1.200000*%
%TD*%
%TA.AperFunction,ViaPad*%
%ADD24C,3.500000*%
%TD*%
%TA.AperFunction,Conductor*%
%ADD25C,0.250000*%
%TD*%
%TA.AperFunction,Conductor*%
%ADD26C,0.254000*%
%TD*%
%TA.AperFunction,Conductor*%
%ADD27C,0.100000*%
%TD*%
G04 APERTURE END LIST*
D10*
%TO.P,U1,8*%
%TO.N,Net-(6V1-Pad1)*%
X159120000Y-79750000D03*
%TO.P,U1,4*%
X151500000Y-87370000D03*
%TO.P,U1,7*%
%TO.N,Net-(C2-Pad1)*%
X159120000Y-82290000D03*
%TO.P,U1,3*%
%TO.N,Net-(R1-Pad1)*%
X151500000Y-84830000D03*
%TO.P,U1,6*%
%TO.N,Net-(C2-Pad1)*%
X159120000Y-84830000D03*
%TO.P,U1,2*%
%TO.N,Net-(C3-Pad1)*%
X151500000Y-82290000D03*
%TO.P,U1,5*%
%TO.N,Net-(C1-Pad1)*%
X159120000Y-87370000D03*
D11*
%TO.P,U1,1*%
%TO.N,Earth*%
X151500000Y-79750000D03*
%TD*%
D12*
%TO.P,D1,2*%
%TO.N,Net-(D1-Pad2)*%
X156710000Y-99500000D03*
D13*
%TO.P,D1,1*%
%TO.N,Earth*%
X159250000Y-99500000D03*
%TD*%
D14*
%TO.P,MK1,2*%
%TO.N,Net-(6V1-Pad1)*%
X149710000Y-92000000D03*
D15*
%TO.P,MK1,1*%
%TO.N,Net-(MK1-Pad1)*%
X152250000Y-92000000D03*
%TD*%
D14*
%TO.P,6V1,2*%
%TO.N,Earth*%
X162290000Y-75750000D03*
D15*
%TO.P,6V1,1*%
%TO.N,Net-(6V1-Pad1)*%
X159750000Y-75750000D03*
%TD*%
D16*
%TO.P,Q2,1*%
%TO.N,Net-(C3-Pad2)*%
X169000000Y-80250000D03*
D17*
%TO.P,Q2,3*%
%TO.N,Earth*%
X169000000Y-77710000D03*
%TO.P,Q2,2*%
%TO.N,Net-(Q1-Pad1)*%
X169000000Y-78980000D03*
%TD*%
D18*
%TO.P,R5,2*%
%TO.N,Earth*%
X163670000Y-97250000D03*
D19*
%TO.P,R5,1*%
%TO.N,Net-(MK1-Pad1)*%
X168750000Y-97250000D03*
%TD*%
D18*
%TO.P,R4,2*%
%TO.N,Net-(Q1-Pad1)*%
X164250000Y-86330000D03*
D19*
%TO.P,R4,1*%
%TO.N,Net-(6V1-Pad1)*%
X164250000Y-81250000D03*
%TD*%
D18*
%TO.P,R3,2*%
%TO.N,Net-(C3-Pad2)*%
X168830000Y-92000000D03*
D19*
%TO.P,R3,1*%
%TO.N,Net-(6V1-Pad1)*%
X163750000Y-92000000D03*
%TD*%
D18*
%TO.P,R2,2*%
%TO.N,Net-(C2-Pad1)*%
X147170000Y-99750000D03*
D19*
%TO.P,R2,1*%
%TO.N,Net-(6V1-Pad1)*%
X152250000Y-99750000D03*
%TD*%
D18*
%TO.P,R1,2*%
%TO.N,Net-(D1-Pad2)*%
X153080000Y-96250000D03*
D19*
%TO.P,R1,1*%
%TO.N,Net-(R1-Pad1)*%
X148000000Y-96250000D03*
%TD*%
D20*
%TO.P,Q1,1*%
%TO.N,Net-(Q1-Pad1)*%
X160500000Y-92500000D03*
D21*
%TO.P,Q1,3*%
%TO.N,Earth*%
X157960000Y-92500000D03*
%TO.P,Q1,2*%
%TO.N,Net-(MK1-Pad1)*%
X159230000Y-92500000D03*
%TD*%
D22*
%TO.P,C3,2*%
%TO.N,Net-(C3-Pad2)*%
X169500000Y-86750000D03*
D23*
%TO.P,C3,1*%
%TO.N,Net-(C3-Pad1)*%
X167500000Y-86750000D03*
%TD*%
D22*
%TO.P,C2,2*%
%TO.N,Earth*%
X147000000Y-81000000D03*
D23*
%TO.P,C2,1*%
%TO.N,Net-(C2-Pad1)*%
X147000000Y-83000000D03*
%TD*%
D22*
%TO.P,C1,2*%
%TO.N,Earth*%
X148000000Y-77750000D03*
D23*
%TO.P,C1,1*%
%TO.N,Net-(C1-Pad1)*%
X146000000Y-77750000D03*
%TD*%
D24*
%TO.N,*%
X143000000Y-73000000D03*
X178000000Y-73000000D03*
X178000000Y-103000000D03*
X143000000Y-103000000D03*
%TD*%
D25*
%TO.N,Earth*%
X148000000Y-77750000D02*
X148000000Y-79000000D01*
X149500000Y-77750000D02*
X151500000Y-79750000D01*
X148000000Y-77750000D02*
X149500000Y-77750000D01*
X161420000Y-99500000D02*
X163670000Y-97250000D01*
X159250000Y-99500000D02*
X161420000Y-99500000D01*
X157960000Y-98210000D02*
X157960000Y-92500000D01*
X159250000Y-99500000D02*
X157960000Y-98210000D01*
X174460000Y-77710000D02*
X169000000Y-77710000D01*
X177000000Y-80250000D02*
X174460000Y-77710000D01*
X177000000Y-96750000D02*
X177000000Y-80250000D01*
X174250000Y-99500000D02*
X177000000Y-96750000D01*
X159250000Y-99500000D02*
X174250000Y-99500000D01*
X167040000Y-75750000D02*
X169000000Y-77710000D01*
X162290000Y-75750000D02*
X167040000Y-75750000D01*
X162290000Y-75750000D02*
X162290000Y-73790000D01*
X162290000Y-73790000D02*
X161000000Y-72500000D01*
X161000000Y-72500000D02*
X155250000Y-72500000D01*
X151500000Y-76250000D02*
X151500000Y-79750000D01*
X155250000Y-72500000D02*
X151500000Y-76250000D01*
%TO.N,Net-(6V1-Pad1)*%
X162750000Y-79750000D02*
X164250000Y-81250000D01*
X164250000Y-81250000D02*
X165000000Y-81250000D01*
X164250000Y-81250000D02*
X165250000Y-81250000D01*
X165250000Y-81250000D02*
X166000000Y-82000000D01*
X166000000Y-82000000D02*
X166000000Y-87500000D01*
X163750000Y-89750000D02*
X163750000Y-92000000D01*
X166000000Y-87500000D02*
X163750000Y-89750000D01*
X151500000Y-87370000D02*
X149380000Y-87370000D01*
X149380000Y-87370000D02*
X148250000Y-88500000D01*
X148250000Y-90540000D02*
X149710000Y-92000000D01*
X148250000Y-88500000D02*
X148250000Y-90540000D01*
X151550001Y-99050001D02*
X151550001Y-94800001D01*
X152250000Y-99750000D02*
X151550001Y-99050001D01*
X149710000Y-92960000D02*
X149710000Y-92000000D01*
X151550001Y-94800001D02*
X149710000Y-92960000D01*
X159120000Y-76380000D02*
X159750000Y-75750000D01*
X159120000Y-79750000D02*
X159120000Y-76380000D01*
X160500000Y-79750000D02*
X162750000Y-79750000D01*
X159120000Y-79750000D02*
X160500000Y-79750000D01*
X159681013Y-88799991D02*
X162000000Y-86481004D01*
X152929991Y-88799991D02*
X159681013Y-88799991D01*
X151500000Y-87370000D02*
X152929991Y-88799991D01*
X160570000Y-79750000D02*
X159120000Y-79750000D01*
X162000000Y-81180000D02*
X160570000Y-79750000D01*
X162000000Y-86481004D02*
X162000000Y-81180000D01*
%TO.N,Net-(C1-Pad1)*%
X158240000Y-88250000D02*
X159120000Y-87370000D01*
X157250000Y-88250000D02*
X158240000Y-88250000D01*
X146000000Y-77750000D02*
X142049991Y-81700009D01*
X142049991Y-81700009D02*
X142049991Y-97686401D01*
X145138591Y-100775001D02*
X147662001Y-100775001D01*
X150344026Y-83704990D02*
X152704990Y-83704990D01*
X152704990Y-83704990D02*
X157250000Y-88250000D01*
X147662001Y-100775001D02*
X148195001Y-100242001D01*
X145500000Y-86750000D02*
X147889999Y-84360001D01*
X148195001Y-100242001D02*
X148195001Y-99257999D01*
X148195001Y-99257999D02*
X145500000Y-96562998D01*
X145500000Y-96562998D02*
X145500000Y-86750000D01*
X147889999Y-84360001D02*
X149689015Y-84360001D01*
X142049991Y-97686401D02*
X145138591Y-100775001D01*
X149689015Y-84360001D02*
X150344026Y-83704990D01*
%TO.N,Net-(C2-Pad1)*%
X159120000Y-82290000D02*
X159120000Y-84830000D01*
X155403590Y-82290000D02*
X154113590Y-81000000D01*
X159120000Y-82290000D02*
X155403590Y-82290000D01*
X149000000Y-81000000D02*
X147000000Y-83000000D01*
X154113590Y-81000000D02*
X149000000Y-81000000D01*
X147000000Y-83000000D02*
X145000000Y-83000000D01*
X145000000Y-83000000D02*
X144000000Y-84000000D01*
X144000000Y-84000000D02*
X144000000Y-98000000D01*
X145750000Y-99750000D02*
X147170000Y-99750000D01*
X144000000Y-98000000D02*
X145750000Y-99750000D01*
%TO.N,Net-(C3-Pad2)*%
X172450009Y-83700009D02*
X172450009Y-90549991D01*
X169000000Y-80250000D02*
X172450009Y-83700009D01*
X171000000Y-92000000D02*
X168830000Y-92000000D01*
X172450009Y-90549991D02*
X171000000Y-92000000D01*
X172450009Y-83799991D02*
X172450009Y-83700009D01*
X169500000Y-86750000D02*
X172450009Y-83799991D01*
%TO.N,Net-(C3-Pad1)*%
X167500000Y-86750000D02*
X167500000Y-82000000D01*
X160925001Y-74639999D02*
X159785002Y-73500000D01*
X160925001Y-76860001D02*
X160925001Y-74639999D01*
X160990001Y-76925001D02*
X160925001Y-76860001D01*
X162425001Y-76925001D02*
X160990001Y-76925001D01*
X167500000Y-82000000D02*
X162425001Y-76925001D01*
X159785002Y-73500000D02*
X156000000Y-73500000D01*
X156000000Y-73500000D02*
X153250000Y-76250000D01*
X153250000Y-76250000D02*
X153250000Y-79500000D01*
X159985994Y-81164990D02*
X161000000Y-82178996D01*
X158543986Y-81164990D02*
X159985994Y-81164990D01*
X158093976Y-80714980D02*
X158543986Y-81164990D01*
X154464980Y-80714980D02*
X158093976Y-80714980D01*
X153250000Y-79500000D02*
X154464980Y-80714980D01*
X161000000Y-82178996D02*
X161000000Y-85250000D01*
X160005010Y-86244990D02*
X157255010Y-86244990D01*
X161000000Y-85250000D02*
X160005010Y-86244990D01*
X151926410Y-82290000D02*
X151500000Y-82290000D01*
X153136410Y-83500000D02*
X151926410Y-82290000D01*
X154510020Y-83500000D02*
X153136410Y-83500000D01*
X157255010Y-86244990D02*
X154510020Y-83500000D01*
%TO.N,Net-(D1-Pad2)*%
X153460000Y-96250000D02*
X153080000Y-96250000D01*
X156710000Y-99500000D02*
X153460000Y-96250000D01*
%TO.N,Net-(MK1-Pad1)*%
X168750000Y-97250000D02*
X168750000Y-95000000D01*
X168750000Y-95000000D02*
X168250000Y-95500000D01*
X168250000Y-95500000D02*
X160500000Y-95500000D01*
X159230000Y-94230000D02*
X159230000Y-92500000D01*
X160500000Y-95500000D02*
X159230000Y-94230000D01*
X159230000Y-92500000D02*
X159230000Y-90230000D01*
X159230000Y-90230000D02*
X158250000Y-89250000D01*
X158250000Y-89250000D02*
X153750000Y-89250000D01*
X152250000Y-90750000D02*
X152250000Y-92000000D01*
X153750000Y-89250000D02*
X152250000Y-90750000D01*
%TO.N,Net-(Q1-Pad1)*%
X160500000Y-90080000D02*
X164250000Y-86330000D01*
X160500000Y-92500000D02*
X160500000Y-90080000D01*
X160500000Y-92500000D02*
X162250000Y-94250000D01*
X162250000Y-94250000D02*
X172500000Y-94250000D01*
X172500000Y-94250000D02*
X175250000Y-91500000D01*
X175250000Y-91500000D02*
X175250000Y-81000000D01*
X173230000Y-78980000D02*
X169000000Y-78980000D01*
X175250000Y-81000000D02*
X173230000Y-78980000D01*
%TO.N,Net-(R1-Pad1)*%
X146500000Y-87000000D02*
X148670000Y-84830000D01*
X146500000Y-96000000D02*
X146500000Y-87000000D01*
X146250000Y-96250000D02*
X146500000Y-96000000D01*
X148670000Y-84830000D02*
X151500000Y-84830000D01*
X148000000Y-96250000D02*
X146250000Y-96250000D01*
%TD*%
D26*
%TO.N,Earth*%
X180873000Y-105873000D02*
X140127000Y-105873000D01*
X140127000Y-102765098D01*
X140615000Y-102765098D01*
X140615000Y-103234902D01*
X140706654Y-103695679D01*
X140886440Y-104129721D01*
X141147450Y-104520349D01*
X141479651Y-104852550D01*
X141870279Y-105113560D01*
X142304321Y-105293346D01*
X142765098Y-105385000D01*
X143234902Y-105385000D01*
X143695679Y-105293346D01*
X144129721Y-105113560D01*
X144520349Y-104852550D01*
X144852550Y-104520349D01*
X145113560Y-104129721D01*
X145293346Y-103695679D01*
X145385000Y-103234902D01*
X145385000Y-102765098D01*
X175615000Y-102765098D01*
X175615000Y-103234902D01*
X175706654Y-103695679D01*
X175886440Y-104129721D01*
X176147450Y-104520349D01*
X176479651Y-104852550D01*
X176870279Y-105113560D01*
X177304321Y-105293346D01*
X177765098Y-105385000D01*
X178234902Y-105385000D01*
X178695679Y-105293346D01*
X179129721Y-105113560D01*
X179520349Y-104852550D01*
X179852550Y-104520349D01*
X180113560Y-104129721D01*
X180293346Y-103695679D01*
X180385000Y-103234902D01*
X180385000Y-102765098D01*
X180293346Y-102304321D01*
X180113560Y-101870279D01*
X179852550Y-101479651D01*
X179520349Y-101147450D01*
X179129721Y-100886440D01*
X178695679Y-100706654D01*
X178234902Y-100615000D01*
X177765098Y-100615000D01*
X177304321Y-100706654D01*
X176870279Y-100886440D01*
X176479651Y-101147450D01*
X176147450Y-101479651D01*
X175886440Y-101870279D01*
X175706654Y-102304321D01*
X175615000Y-102765098D01*
X145385000Y-102765098D01*
X145293346Y-102304321D01*
X145113560Y-101870279D01*
X144854879Y-101483136D01*
X144989605Y-101524004D01*
X145101258Y-101535001D01*
X145101268Y-101535001D01*
X145138590Y-101538677D01*
X145175913Y-101535001D01*
X147624679Y-101535001D01*
X147662001Y-101538677D01*
X147699323Y-101535001D01*
X147699334Y-101535001D01*
X147810987Y-101524004D01*
X147954248Y-101480547D01*
X148086277Y-101409975D01*
X148202002Y-101315002D01*
X148225804Y-101285999D01*
X148706004Y-100805799D01*
X148735002Y-100782002D01*
X148829975Y-100666277D01*
X148900547Y-100534248D01*
X148944004Y-100390987D01*
X148955001Y-100279334D01*
X148955001Y-100279324D01*
X148958677Y-100242001D01*
X148955001Y-100204678D01*
X148955001Y-99295322D01*
X148958677Y-99257999D01*
X148955001Y-99220676D01*
X148955001Y-99220666D01*
X148944004Y-99109013D01*
X148900547Y-98965752D01*
X148829975Y-98833722D01*
X148758800Y-98746996D01*
X148735002Y-98717998D01*
X148706004Y-98694200D01*
X147499470Y-97487666D01*
X147610595Y-97533696D01*
X147868514Y-97585000D01*
X148131486Y-97585000D01*
X148389405Y-97533696D01*
X148632359Y-97433061D01*
X148851013Y-97286962D01*
X149036962Y-97101013D01*
X149183061Y-96882359D01*
X149283696Y-96639405D01*
X149335000Y-96381486D01*
X149335000Y-96118514D01*
X149283696Y-95860595D01*
X149183061Y-95617641D01*
X149036962Y-95398987D01*
X148851013Y-95213038D01*
X148632359Y-95066939D01*
X148389405Y-94966304D01*
X148131486Y-94915000D01*
X147868514Y-94915000D01*
X147610595Y-94966304D01*
X147367641Y-95066939D01*
X147260000Y-95138862D01*
X147260000Y-87314801D01*
X148984803Y-85590000D01*
X149879099Y-85590000D01*
X149901068Y-85631101D01*
X150080392Y-85849608D01*
X150298899Y-86028932D01*
X150431858Y-86100000D01*
X150298899Y-86171068D01*
X150080392Y-86350392D01*
X149901068Y-86568899D01*
X149879099Y-86610000D01*
X149417322Y-86610000D01*
X149379999Y-86606324D01*
X149342676Y-86610000D01*
X149342667Y-86610000D01*
X149231014Y-86620997D01*
X149087753Y-86664454D01*
X148955724Y-86735026D01*
X148839999Y-86829999D01*
X148816201Y-86858997D01*
X147739002Y-87936196D01*
X147709999Y-87959999D01*
X147654871Y-88027174D01*
X147615026Y-88075724D01*
X147601508Y-88101015D01*
X147544454Y-88207754D01*
X147500997Y-88351015D01*
X147490000Y-88462668D01*
X147490000Y-88462678D01*
X147486324Y-88500000D01*
X147490000Y-88537323D01*
X147490001Y-90502668D01*
X147486324Y-90540000D01*
X147490001Y-90577333D01*
X147500998Y-90688986D01*
X147508182Y-90712668D01*
X147544454Y-90832246D01*
X147615026Y-90964276D01*
X147665287Y-91025518D01*
X147710000Y-91080001D01*
X147738998Y-91103799D01*
X148268791Y-91633592D01*
X148225000Y-91853740D01*
X148225000Y-92146260D01*
X148282068Y-92433158D01*
X148394010Y-92703411D01*
X148556525Y-92946632D01*
X148763368Y-93153475D01*
X149006589Y-93315990D01*
X149047608Y-93332980D01*
X149075026Y-93384276D01*
X149110854Y-93427932D01*
X149169999Y-93500001D01*
X149199003Y-93523804D01*
X150790002Y-95114804D01*
X150790001Y-99012678D01*
X150786325Y-99050001D01*
X150790001Y-99087323D01*
X150790001Y-99087333D01*
X150800998Y-99198986D01*
X150839443Y-99325723D01*
X150844455Y-99342247D01*
X150915027Y-99474277D01*
X150930392Y-99492999D01*
X150938099Y-99502389D01*
X150915000Y-99618514D01*
X150915000Y-99881486D01*
X150966304Y-100139405D01*
X151066939Y-100382359D01*
X151213038Y-100601013D01*
X151398987Y-100786962D01*
X151617641Y-100933061D01*
X151860595Y-101033696D01*
X152118514Y-101085000D01*
X152381486Y-101085000D01*
X152639405Y-101033696D01*
X152882359Y-100933061D01*
X153101013Y-100786962D01*
X153286962Y-100601013D01*
X153433061Y-100382359D01*
X153533696Y-100139405D01*
X153585000Y-99881486D01*
X153585000Y-99618514D01*
X153533696Y-99360595D01*
X153433061Y-99117641D01*
X153286962Y-98898987D01*
X153101013Y-98713038D01*
X152882359Y-98566939D01*
X152639405Y-98466304D01*
X152381486Y-98415000D01*
X152310001Y-98415000D01*
X152310001Y-97341093D01*
X152447641Y-97433061D01*
X152690595Y-97533696D01*
X152948514Y-97585000D01*
X153211486Y-97585000D01*
X153469405Y-97533696D01*
X153610466Y-97475267D01*
X155226269Y-99091070D01*
X155175000Y-99348816D01*
X155175000Y-99651184D01*
X155233989Y-99947743D01*
X155349701Y-100227095D01*
X155517688Y-100478505D01*
X155731495Y-100692312D01*
X155982905Y-100860299D01*
X156262257Y-100976011D01*
X156558816Y-101035000D01*
X156861184Y-101035000D01*
X157157743Y-100976011D01*
X157437095Y-100860299D01*
X157688505Y-100692312D01*
X157754944Y-100625873D01*
X157760498Y-100644180D01*
X157819463Y-100754494D01*
X157898815Y-100851185D01*
X157995506Y-100930537D01*
X158105820Y-100989502D01*
X158225518Y-101025812D01*
X158350000Y-101038072D01*
X158964250Y-101035000D01*
X159123000Y-100876250D01*
X159123000Y-99627000D01*
X159377000Y-99627000D01*
X159377000Y-100876250D01*
X159535750Y-101035000D01*
X160150000Y-101038072D01*
X160274482Y-101025812D01*
X160394180Y-100989502D01*
X160504494Y-100930537D01*
X160601185Y-100851185D01*
X160680537Y-100754494D01*
X160739502Y-100644180D01*
X160775812Y-100524482D01*
X160788072Y-100400000D01*
X160785000Y-99785750D01*
X160626250Y-99627000D01*
X159377000Y-99627000D01*
X159123000Y-99627000D01*
X159103000Y-99627000D01*
X159103000Y-99373000D01*
X159123000Y-99373000D01*
X159123000Y-98123750D01*
X159377000Y-98123750D01*
X159377000Y-99373000D01*
X160626250Y-99373000D01*
X160785000Y-99214250D01*
X160788072Y-98600000D01*
X160775812Y-98475518D01*
X160739502Y-98355820D01*
X160680537Y-98245506D01*
X160601185Y-98148815D01*
X160504494Y-98069463D01*
X160394180Y-98010498D01*
X160274482Y-97974188D01*
X160150000Y-97961928D01*
X159535750Y-97965000D01*
X159377000Y-98123750D01*
X159123000Y-98123750D01*
X158964250Y-97965000D01*
X158350000Y-97961928D01*
X158225518Y-97974188D01*
X158105820Y-98010498D01*
X157995506Y-98069463D01*
X157898815Y-98148815D01*
X157819463Y-98245506D01*
X157760498Y-98355820D01*
X157754944Y-98374127D01*
X157688505Y-98307688D01*
X157437095Y-98139701D01*
X157157743Y-98023989D01*
X156861184Y-97965000D01*
X156558816Y-97965000D01*
X156301070Y-98016269D01*
X155868130Y-97583329D01*
X162377284Y-97583329D01*
X162409953Y-97691044D01*
X162520208Y-97928392D01*
X162674649Y-98139670D01*
X162867340Y-98316759D01*
X163090877Y-98452853D01*
X163336670Y-98542722D01*
X163543000Y-98420201D01*
X163543000Y-97377000D01*
X163797000Y-97377000D01*
X163797000Y-98420201D01*
X164003330Y-98542722D01*
X164249123Y-98452853D01*
X164472660Y-98316759D01*
X164665351Y-98139670D01*
X164819792Y-97928392D01*
X164930047Y-97691044D01*
X164962716Y-97583329D01*
X164839374Y-97377000D01*
X163797000Y-97377000D01*
X163543000Y-97377000D01*
X162500626Y-97377000D01*
X162377284Y-97583329D01*
X155868130Y-97583329D01*
X154415000Y-96130199D01*
X154415000Y-96118514D01*
X154363696Y-95860595D01*
X154263061Y-95617641D01*
X154116962Y-95398987D01*
X153931013Y-95213038D01*
X153712359Y-95066939D01*
X153469405Y-94966304D01*
X153211486Y-94915000D01*
X152948514Y-94915000D01*
X152690595Y-94966304D01*
X152447641Y-95066939D01*
X152310001Y-95158907D01*
X152310001Y-94837323D01*
X152313677Y-94800000D01*
X152310001Y-94762677D01*
X152310001Y-94762668D01*
X152299004Y-94651015D01*
X152255547Y-94507754D01*
X152184975Y-94375725D01*
X152090002Y-94260000D01*
X152061004Y-94236202D01*
X151303355Y-93478554D01*
X151400000Y-93488072D01*
X153100000Y-93488072D01*
X153224482Y-93475812D01*
X153344180Y-93439502D01*
X153454494Y-93380537D01*
X153551185Y-93301185D01*
X153630537Y-93204494D01*
X153689502Y-93094180D01*
X153725812Y-92974482D01*
X153738072Y-92850000D01*
X153738072Y-92810507D01*
X156793669Y-92810507D01*
X156832761Y-93036404D01*
X156915172Y-93250334D01*
X157037736Y-93444076D01*
X157195742Y-93610184D01*
X157383118Y-93742275D01*
X157592663Y-93835272D01*
X157654190Y-93843964D01*
X157833000Y-93718163D01*
X157833000Y-92627000D01*
X156953402Y-92627000D01*
X156793669Y-92810507D01*
X153738072Y-92810507D01*
X153738072Y-92189493D01*
X156793669Y-92189493D01*
X156953402Y-92373000D01*
X157833000Y-92373000D01*
X157833000Y-91281837D01*
X157654190Y-91156036D01*
X157592663Y-91164728D01*
X157383118Y-91257725D01*
X157195742Y-91389816D01*
X157037736Y-91555924D01*
X156915172Y-91749666D01*
X156832761Y-91963596D01*
X156793669Y-92189493D01*
X153738072Y-92189493D01*
X153738072Y-91150000D01*
X153725812Y-91025518D01*
X153689502Y-90905820D01*
X153630537Y-90795506D01*
X153551185Y-90698815D01*
X153454958Y-90619844D01*
X154064802Y-90010000D01*
X157935199Y-90010000D01*
X158470001Y-90544803D01*
X158470001Y-91228043D01*
X158327337Y-91164728D01*
X158265810Y-91156036D01*
X158087000Y-91281837D01*
X158087000Y-92046891D01*
X158086785Y-92047600D01*
X158070000Y-92218021D01*
X158070000Y-92781978D01*
X158086785Y-92952399D01*
X158087000Y-92953108D01*
X158087000Y-93718163D01*
X158265810Y-93843964D01*
X158327337Y-93835272D01*
X158470000Y-93771957D01*
X158470000Y-94192677D01*
X158466324Y-94230000D01*
X158470000Y-94267322D01*
X158470000Y-94267332D01*
X158480997Y-94378985D01*
X158505572Y-94459999D01*
X158524454Y-94522246D01*
X158595026Y-94654276D01*
X158611440Y-94674276D01*
X158689999Y-94770001D01*
X158719003Y-94793804D01*
X159936201Y-96011003D01*
X159959999Y-96040001D01*
X160075724Y-96134974D01*
X160207753Y-96205546D01*
X160351014Y-96249003D01*
X160462667Y-96260000D01*
X160462676Y-96260000D01*
X160499999Y-96263676D01*
X160537322Y-96260000D01*
X162783818Y-96260000D01*
X162674649Y-96360330D01*
X162520208Y-96571608D01*
X162409953Y-96808956D01*
X162377284Y-96916671D01*
X162500626Y-97123000D01*
X163543000Y-97123000D01*
X163543000Y-97103000D01*
X163797000Y-97103000D01*
X163797000Y-97123000D01*
X164839374Y-97123000D01*
X164962716Y-96916671D01*
X164930047Y-96808956D01*
X164819792Y-96571608D01*
X164665351Y-96360330D01*
X164556182Y-96260000D01*
X167852025Y-96260000D01*
X167713038Y-96398987D01*
X167566939Y-96617641D01*
X167466304Y-96860595D01*
X167415000Y-97118514D01*
X167415000Y-97381486D01*
X167466304Y-97639405D01*
X167566939Y-97882359D01*
X167713038Y-98101013D01*
X167898987Y-98286962D01*
X168117641Y-98433061D01*
X168360595Y-98533696D01*
X168618514Y-98585000D01*
X168881486Y-98585000D01*
X169139405Y-98533696D01*
X169382359Y-98433061D01*
X169601013Y-98286962D01*
X169786962Y-98101013D01*
X169933061Y-97882359D01*
X170033696Y-97639405D01*
X170085000Y-97381486D01*
X170085000Y-97118514D01*
X170033696Y-96860595D01*
X169933061Y-96617641D01*
X169786962Y-96398987D01*
X169601013Y-96213038D01*
X169510000Y-96152225D01*
X169510000Y-95037325D01*
X169512691Y-95010000D01*
X172462678Y-95010000D01*
X172500000Y-95013676D01*
X172537322Y-95010000D01*
X172537333Y-95010000D01*
X172648986Y-94999003D01*
X172792247Y-94955546D01*
X172924276Y-94884974D01*
X173040001Y-94790001D01*
X173063804Y-94760997D01*
X175761004Y-92063798D01*
X175790001Y-92040001D01*
X175884974Y-91924276D01*
X175955546Y-91792247D01*
X175999003Y-91648986D01*
X176010000Y-91537333D01*
X176010000Y-91537324D01*
X176013676Y-91500001D01*
X176010000Y-91462678D01*
X176010000Y-81037322D01*
X176013676Y-80999999D01*
X176010000Y-80962676D01*
X176010000Y-80962667D01*
X175999003Y-80851014D01*
X175955546Y-80707753D01*
X175884974Y-80575724D01*
X175871811Y-80559685D01*
X175813799Y-80488996D01*
X175813795Y-80488992D01*
X175790001Y-80459999D01*
X175761008Y-80436205D01*
X173793804Y-78469002D01*
X173770001Y-78439999D01*
X173654276Y-78345026D01*
X173522247Y-78274454D01*
X173378986Y-78230997D01*
X173267333Y-78220000D01*
X173267322Y-78220000D01*
X173230000Y-78216324D01*
X173192678Y-78220000D01*
X170271958Y-78220000D01*
X170335272Y-78077337D01*
X170343964Y-78015810D01*
X170218163Y-77837000D01*
X169453109Y-77837000D01*
X169452400Y-77836785D01*
X169281979Y-77820000D01*
X168718021Y-77820000D01*
X168547600Y-77836785D01*
X168546891Y-77837000D01*
X167781837Y-77837000D01*
X167656036Y-78015810D01*
X167664728Y-78077337D01*
X167757725Y-78286882D01*
X167798929Y-78345331D01*
X167698115Y-78533940D01*
X167631785Y-78752600D01*
X167609388Y-78980000D01*
X167631785Y-79207400D01*
X167695093Y-79416098D01*
X167660498Y-79480820D01*
X167624188Y-79600518D01*
X167611928Y-79725000D01*
X167611928Y-80775000D01*
X167624188Y-80899482D01*
X167660498Y-81019180D01*
X167719463Y-81129494D01*
X167788871Y-81214068D01*
X163978992Y-77404190D01*
X167656036Y-77404190D01*
X167781837Y-77583000D01*
X168873000Y-77583000D01*
X168873000Y-76703402D01*
X169127000Y-76703402D01*
X169127000Y-77583000D01*
X170218163Y-77583000D01*
X170343964Y-77404190D01*
X170335272Y-77342663D01*
X170242275Y-77133118D01*
X170110184Y-76945742D01*
X169944076Y-76787736D01*
X169750334Y-76665172D01*
X169536404Y-76582761D01*
X169310507Y-76543669D01*
X169127000Y-76703402D01*
X168873000Y-76703402D01*
X168689493Y-76543669D01*
X168463596Y-76582761D01*
X168249666Y-76665172D01*
X168055924Y-76787736D01*
X167889816Y-76945742D01*
X167757725Y-77133118D01*
X167664728Y-77342663D01*
X167656036Y-77404190D01*
X163978992Y-77404190D01*
X163352903Y-76778102D01*
X163485178Y-76631355D01*
X163634157Y-76381252D01*
X163731481Y-76106891D01*
X163610814Y-75877000D01*
X162417000Y-75877000D01*
X162417000Y-75897000D01*
X162163000Y-75897000D01*
X162163000Y-75877000D01*
X162143000Y-75877000D01*
X162143000Y-75623000D01*
X162163000Y-75623000D01*
X162163000Y-74429845D01*
X162417000Y-74429845D01*
X162417000Y-75623000D01*
X163610814Y-75623000D01*
X163731481Y-75393109D01*
X163634157Y-75118748D01*
X163485178Y-74868645D01*
X163290269Y-74652412D01*
X163056920Y-74478359D01*
X162794099Y-74353175D01*
X162646890Y-74308524D01*
X162417000Y-74429845D01*
X162163000Y-74429845D01*
X161933110Y-74308524D01*
X161785901Y-74353175D01*
X161651597Y-74417145D01*
X161630547Y-74347752D01*
X161591226Y-74274188D01*
X161559975Y-74215722D01*
X161488800Y-74128996D01*
X161465002Y-74099998D01*
X161436004Y-74076200D01*
X160348806Y-72989002D01*
X160325003Y-72959999D01*
X160209278Y-72865026D01*
X160077249Y-72794454D01*
X159980474Y-72765098D01*
X175615000Y-72765098D01*
X175615000Y-73234902D01*
X175706654Y-73695679D01*
X175886440Y-74129721D01*
X176147450Y-74520349D01*
X176479651Y-74852550D01*
X176870279Y-75113560D01*
X177304321Y-75293346D01*
X177765098Y-75385000D01*
X178234902Y-75385000D01*
X178695679Y-75293346D01*
X179129721Y-75113560D01*
X179520349Y-74852550D01*
X179852550Y-74520349D01*
X180113560Y-74129721D01*
X180293346Y-73695679D01*
X180385000Y-73234902D01*
X180385000Y-72765098D01*
X180293346Y-72304321D01*
X180113560Y-71870279D01*
X179852550Y-71479651D01*
X179520349Y-71147450D01*
X179129721Y-70886440D01*
X178695679Y-70706654D01*
X178234902Y-70615000D01*
X177765098Y-70615000D01*
X177304321Y-70706654D01*
X176870279Y-70886440D01*
X176479651Y-71147450D01*
X176147450Y-71479651D01*
X175886440Y-71870279D01*
X175706654Y-72304321D01*
X175615000Y-72765098D01*
X159980474Y-72765098D01*
X159933988Y-72750997D01*
X159822335Y-72740000D01*
X159822324Y-72740000D01*
X159785002Y-72736324D01*
X159747680Y-72740000D01*
X156037322Y-72740000D01*
X155999999Y-72736324D01*
X155962676Y-72740000D01*
X155962667Y-72740000D01*
X155851014Y-72750997D01*
X155707753Y-72794454D01*
X155575724Y-72865026D01*
X155459999Y-72959999D01*
X155436201Y-72988997D01*
X152739003Y-75686196D01*
X152709999Y-75709999D01*
X152654871Y-75777174D01*
X152615026Y-75825724D01*
X152545539Y-75955724D01*
X152544454Y-75957754D01*
X152500997Y-76101015D01*
X152490000Y-76212668D01*
X152490000Y-76212678D01*
X152486324Y-76250000D01*
X152490000Y-76287323D01*
X152490001Y-78312634D01*
X151785750Y-78315000D01*
X151627000Y-78473750D01*
X151627000Y-79623000D01*
X151647000Y-79623000D01*
X151647000Y-79877000D01*
X151627000Y-79877000D01*
X151627000Y-79897000D01*
X151373000Y-79897000D01*
X151373000Y-79877000D01*
X149823750Y-79877000D01*
X149665000Y-80035750D01*
X149662794Y-80404990D01*
X149122333Y-80404990D01*
X149085010Y-80401314D01*
X149047687Y-80404990D01*
X149047677Y-80404990D01*
X148936024Y-80415987D01*
X148792763Y-80459444D01*
X148660734Y-80530016D01*
X148545009Y-80624989D01*
X148521211Y-80653987D01*
X146630156Y-82545042D01*
X146551185Y-82448815D01*
X146454494Y-82369463D01*
X146408994Y-82345142D01*
X146466872Y-82287264D01*
X146349766Y-82170158D01*
X146573348Y-82122852D01*
X146674237Y-81901484D01*
X146730000Y-81664687D01*
X146738495Y-81421562D01*
X146699395Y-81181451D01*
X146614202Y-80953582D01*
X146573348Y-80877148D01*
X146349764Y-80829841D01*
X145679605Y-81500000D01*
X145693748Y-81514143D01*
X145514143Y-81693748D01*
X145500000Y-81679605D01*
X145485858Y-81693748D01*
X145306253Y-81514143D01*
X145320395Y-81500000D01*
X144650236Y-80829841D01*
X144426652Y-80877148D01*
X144325763Y-81098516D01*
X144270000Y-81335313D01*
X144261505Y-81578438D01*
X144300605Y-81818549D01*
X144385798Y-82046418D01*
X144426652Y-82122852D01*
X144650234Y-82170158D01*
X144533128Y-82287264D01*
X144591006Y-82345142D01*
X144545506Y-82369463D01*
X144448815Y-82448815D01*
X144369463Y-82545506D01*
X144310498Y-82655820D01*
X144274594Y-82774178D01*
X144207753Y-82794454D01*
X144075724Y-82865026D01*
X143959999Y-82959999D01*
X143936202Y-82988996D01*
X142809991Y-84115208D01*
X142809991Y-82014810D01*
X144174565Y-80650236D01*
X144829841Y-80650236D01*
X145500000Y-81320395D01*
X146170159Y-80650236D01*
X146122852Y-80426652D01*
X145901484Y-80325763D01*
X145664687Y-80270000D01*
X145421562Y-80261505D01*
X145181451Y-80300605D01*
X144953582Y-80385798D01*
X144877148Y-80426652D01*
X144829841Y-80650236D01*
X144174565Y-80650236D01*
X145836730Y-78988072D01*
X146600000Y-78988072D01*
X146724482Y-78975812D01*
X146844180Y-78939502D01*
X146954494Y-78880537D01*
X147051185Y-78801185D01*
X147130537Y-78704494D01*
X147154858Y-78658994D01*
X147212736Y-78716872D01*
X147329842Y-78599766D01*
X147377148Y-78823348D01*
X147598516Y-78924237D01*
X147835313Y-78980000D01*
X148078438Y-78988495D01*
X148314833Y-78950000D01*
X149661928Y-78950000D01*
X149665000Y-79464250D01*
X149823750Y-79623000D01*
X151373000Y-79623000D01*
X151373000Y-78473750D01*
X151214250Y-78315000D01*
X150300000Y-78311928D01*
X150175518Y-78324188D01*
X150055820Y-78360498D01*
X149945506Y-78419463D01*
X149848815Y-78498815D01*
X149769463Y-78595506D01*
X149710498Y-78705820D01*
X149674188Y-78825518D01*
X149661928Y-78950000D01*
X148314833Y-78950000D01*
X148318549Y-78949395D01*
X148546418Y-78864202D01*
X148622852Y-78823348D01*
X148670159Y-78599764D01*
X148000000Y-77929605D01*
X147985858Y-77943748D01*
X147806253Y-77764143D01*
X147820395Y-77750000D01*
X148179605Y-77750000D01*
X148849764Y-78420159D01*
X149073348Y-78372852D01*
X149174237Y-78151484D01*
X149230000Y-77914687D01*
X149238495Y-77671562D01*
X149199395Y-77431451D01*
X149114202Y-77203582D01*
X149073348Y-77127148D01*
X148849764Y-77079841D01*
X148179605Y-77750000D01*
X147820395Y-77750000D01*
X147806253Y-77735858D01*
X147985858Y-77556253D01*
X148000000Y-77570395D01*
X148670159Y-76900236D01*
X148622852Y-76676652D01*
X148401484Y-76575763D01*
X148164687Y-76520000D01*
X147921562Y-76511505D01*
X147681451Y-76550605D01*
X147453582Y-76635798D01*
X147377148Y-76676652D01*
X147329842Y-76900234D01*
X147212736Y-76783128D01*
X147154858Y-76841006D01*
X147130537Y-76795506D01*
X147051185Y-76698815D01*
X146954494Y-76619463D01*
X146844180Y-76560498D01*
X146724482Y-76524188D01*
X146600000Y-76511928D01*
X145400000Y-76511928D01*
X145275518Y-76524188D01*
X145155820Y-76560498D01*
X145045506Y-76619463D01*
X144948815Y-76698815D01*
X144869463Y-76795506D01*
X144810498Y-76905820D01*
X144774188Y-77025518D01*
X144761928Y-77150000D01*
X144761928Y-77913270D01*
X141538994Y-81136205D01*
X141509990Y-81160008D01*
X141455847Y-81225982D01*
X141415017Y-81275733D01*
X141349137Y-81398985D01*
X141344445Y-81407763D01*
X141300988Y-81551024D01*
X141289991Y-81662677D01*
X141289991Y-81662687D01*
X141286315Y-81700009D01*
X141289991Y-81737331D01*
X141289992Y-97649068D01*
X141286315Y-97686401D01*
X141300989Y-97835386D01*
X141344445Y-97978647D01*
X141415017Y-98110677D01*
X141486192Y-98197403D01*
X141509991Y-98226402D01*
X141538989Y-98250200D01*
X144266865Y-100978077D01*
X144129721Y-100886440D01*
X143695679Y-100706654D01*
X143234902Y-100615000D01*
X142765098Y-100615000D01*
X142304321Y-100706654D01*
X141870279Y-100886440D01*
X141479651Y-101147450D01*
X141147450Y-101479651D01*
X140886440Y-101870279D01*
X140706654Y-102304321D01*
X140615000Y-102765098D01*
X140127000Y-102765098D01*
X140127000Y-72765098D01*
X140615000Y-72765098D01*
X140615000Y-73234902D01*
X140706654Y-73695679D01*
X140886440Y-74129721D01*
X141147450Y-74520349D01*
X141479651Y-74852550D01*
X141870279Y-75113560D01*
X142304321Y-75293346D01*
X142765098Y-75385000D01*
X143234902Y-75385000D01*
X143695679Y-75293346D01*
X144129721Y-75113560D01*
X144520349Y-74852550D01*
X144852550Y-74520349D01*
X145113560Y-74129721D01*
X145293346Y-73695679D01*
X145385000Y-73234902D01*
X145385000Y-72765098D01*
X145293346Y-72304321D01*
X145113560Y-71870279D01*
X144852550Y-71479651D01*
X144520349Y-71147450D01*
X144129721Y-70886440D01*
X143695679Y-70706654D01*
X143234902Y-70615000D01*
X142765098Y-70615000D01*
X142304321Y-70706654D01*
X141870279Y-70886440D01*
X141479651Y-71147450D01*
X141147450Y-71479651D01*
X140886440Y-71870279D01*
X140706654Y-72304321D01*
X140615000Y-72765098D01*
X140127000Y-72765098D01*
X140127000Y-70127000D01*
X180873000Y-70127000D01*
X180873000Y-105873000D01*
%TA.AperFunction,Conductor*%
D27*
G36*
X180873000Y-105873000D02*
G01*
X140127000Y-105873000D01*
X140127000Y-102765098D01*
X140615000Y-102765098D01*
X140615000Y-103234902D01*
X140706654Y-103695679D01*
X140886440Y-104129721D01*
X141147450Y-104520349D01*
X141479651Y-104852550D01*
X141870279Y-105113560D01*
X142304321Y-105293346D01*
X142765098Y-105385000D01*
X143234902Y-105385000D01*
X143695679Y-105293346D01*
X144129721Y-105113560D01*
X144520349Y-104852550D01*
X144852550Y-104520349D01*
X145113560Y-104129721D01*
X145293346Y-103695679D01*
X145385000Y-103234902D01*
X145385000Y-102765098D01*
X175615000Y-102765098D01*
X175615000Y-103234902D01*
X175706654Y-103695679D01*
X175886440Y-104129721D01*
X176147450Y-104520349D01*
X176479651Y-104852550D01*
X176870279Y-105113560D01*
X177304321Y-105293346D01*
X177765098Y-105385000D01*
X178234902Y-105385000D01*
X178695679Y-105293346D01*
X179129721Y-105113560D01*
X179520349Y-104852550D01*
X179852550Y-104520349D01*
X180113560Y-104129721D01*
X180293346Y-103695679D01*
X180385000Y-103234902D01*
X180385000Y-102765098D01*
X180293346Y-102304321D01*
X180113560Y-101870279D01*
X179852550Y-101479651D01*
X179520349Y-101147450D01*
X179129721Y-100886440D01*
X178695679Y-100706654D01*
X178234902Y-100615000D01*
X177765098Y-100615000D01*
X177304321Y-100706654D01*
X176870279Y-100886440D01*
X176479651Y-101147450D01*
X176147450Y-101479651D01*
X175886440Y-101870279D01*
X175706654Y-102304321D01*
X175615000Y-102765098D01*
X145385000Y-102765098D01*
X145293346Y-102304321D01*
X145113560Y-101870279D01*
X144854879Y-101483136D01*
X144989605Y-101524004D01*
X145101258Y-101535001D01*
X145101268Y-101535001D01*
X145138590Y-101538677D01*
X145175913Y-101535001D01*
X147624679Y-101535001D01*
X147662001Y-101538677D01*
X147699323Y-101535001D01*
X147699334Y-101535001D01*
X147810987Y-101524004D01*
X147954248Y-101480547D01*
X148086277Y-101409975D01*
X148202002Y-101315002D01*
X148225804Y-101285999D01*
X148706004Y-100805799D01*
X148735002Y-100782002D01*
X148829975Y-100666277D01*
X148900547Y-100534248D01*
X148944004Y-100390987D01*
X148955001Y-100279334D01*
X148955001Y-100279324D01*
X148958677Y-100242001D01*
X148955001Y-100204678D01*
X148955001Y-99295322D01*
X148958677Y-99257999D01*
X148955001Y-99220676D01*
X148955001Y-99220666D01*
X148944004Y-99109013D01*
X148900547Y-98965752D01*
X148829975Y-98833722D01*
X148758800Y-98746996D01*
X148735002Y-98717998D01*
X148706004Y-98694200D01*
X147499470Y-97487666D01*
X147610595Y-97533696D01*
X147868514Y-97585000D01*
X148131486Y-97585000D01*
X148389405Y-97533696D01*
X148632359Y-97433061D01*
X148851013Y-97286962D01*
X149036962Y-97101013D01*
X149183061Y-96882359D01*
X149283696Y-96639405D01*
X149335000Y-96381486D01*
X149335000Y-96118514D01*
X149283696Y-95860595D01*
X149183061Y-95617641D01*
X149036962Y-95398987D01*
X148851013Y-95213038D01*
X148632359Y-95066939D01*
X148389405Y-94966304D01*
X148131486Y-94915000D01*
X147868514Y-94915000D01*
X147610595Y-94966304D01*
X147367641Y-95066939D01*
X147260000Y-95138862D01*
X147260000Y-87314801D01*
X148984803Y-85590000D01*
X149879099Y-85590000D01*
X149901068Y-85631101D01*
X150080392Y-85849608D01*
X150298899Y-86028932D01*
X150431858Y-86100000D01*
X150298899Y-86171068D01*
X150080392Y-86350392D01*
X149901068Y-86568899D01*
X149879099Y-86610000D01*
X149417322Y-86610000D01*
X149379999Y-86606324D01*
X149342676Y-86610000D01*
X149342667Y-86610000D01*
X149231014Y-86620997D01*
X149087753Y-86664454D01*
X148955724Y-86735026D01*
X148839999Y-86829999D01*
X148816201Y-86858997D01*
X147739002Y-87936196D01*
X147709999Y-87959999D01*
X147654871Y-88027174D01*
X147615026Y-88075724D01*
X147601508Y-88101015D01*
X147544454Y-88207754D01*
X147500997Y-88351015D01*
X147490000Y-88462668D01*
X147490000Y-88462678D01*
X147486324Y-88500000D01*
X147490000Y-88537323D01*
X147490001Y-90502668D01*
X147486324Y-90540000D01*
X147490001Y-90577333D01*
X147500998Y-90688986D01*
X147508182Y-90712668D01*
X147544454Y-90832246D01*
X147615026Y-90964276D01*
X147665287Y-91025518D01*
X147710000Y-91080001D01*
X147738998Y-91103799D01*
X148268791Y-91633592D01*
X148225000Y-91853740D01*
X148225000Y-92146260D01*
X148282068Y-92433158D01*
X148394010Y-92703411D01*
X148556525Y-92946632D01*
X148763368Y-93153475D01*
X149006589Y-93315990D01*
X149047608Y-93332980D01*
X149075026Y-93384276D01*
X149110854Y-93427932D01*
X149169999Y-93500001D01*
X149199003Y-93523804D01*
X150790002Y-95114804D01*
X150790001Y-99012678D01*
X150786325Y-99050001D01*
X150790001Y-99087323D01*
X150790001Y-99087333D01*
X150800998Y-99198986D01*
X150839443Y-99325723D01*
X150844455Y-99342247D01*
X150915027Y-99474277D01*
X150930392Y-99492999D01*
X150938099Y-99502389D01*
X150915000Y-99618514D01*
X150915000Y-99881486D01*
X150966304Y-100139405D01*
X151066939Y-100382359D01*
X151213038Y-100601013D01*
X151398987Y-100786962D01*
X151617641Y-100933061D01*
X151860595Y-101033696D01*
X152118514Y-101085000D01*
X152381486Y-101085000D01*
X152639405Y-101033696D01*
X152882359Y-100933061D01*
X153101013Y-100786962D01*
X153286962Y-100601013D01*
X153433061Y-100382359D01*
X153533696Y-100139405D01*
X153585000Y-99881486D01*
X153585000Y-99618514D01*
X153533696Y-99360595D01*
X153433061Y-99117641D01*
X153286962Y-98898987D01*
X153101013Y-98713038D01*
X152882359Y-98566939D01*
X152639405Y-98466304D01*
X152381486Y-98415000D01*
X152310001Y-98415000D01*
X152310001Y-97341093D01*
X152447641Y-97433061D01*
X152690595Y-97533696D01*
X152948514Y-97585000D01*
X153211486Y-97585000D01*
X153469405Y-97533696D01*
X153610466Y-97475267D01*
X155226269Y-99091070D01*
X155175000Y-99348816D01*
X155175000Y-99651184D01*
X155233989Y-99947743D01*
X155349701Y-100227095D01*
X155517688Y-100478505D01*
X155731495Y-100692312D01*
X155982905Y-100860299D01*
X156262257Y-100976011D01*
X156558816Y-101035000D01*
X156861184Y-101035000D01*
X157157743Y-100976011D01*
X157437095Y-100860299D01*
X157688505Y-100692312D01*
X157754944Y-100625873D01*
X157760498Y-100644180D01*
X157819463Y-100754494D01*
X157898815Y-100851185D01*
X157995506Y-100930537D01*
X158105820Y-100989502D01*
X158225518Y-101025812D01*
X158350000Y-101038072D01*
X158964250Y-101035000D01*
X159123000Y-100876250D01*
X159123000Y-99627000D01*
X159377000Y-99627000D01*
X159377000Y-100876250D01*
X159535750Y-101035000D01*
X160150000Y-101038072D01*
X160274482Y-101025812D01*
X160394180Y-100989502D01*
X160504494Y-100930537D01*
X160601185Y-100851185D01*
X160680537Y-100754494D01*
X160739502Y-100644180D01*
X160775812Y-100524482D01*
X160788072Y-100400000D01*
X160785000Y-99785750D01*
X160626250Y-99627000D01*
X159377000Y-99627000D01*
X159123000Y-99627000D01*
X159103000Y-99627000D01*
X159103000Y-99373000D01*
X159123000Y-99373000D01*
X159123000Y-98123750D01*
X159377000Y-98123750D01*
X159377000Y-99373000D01*
X160626250Y-99373000D01*
X160785000Y-99214250D01*
X160788072Y-98600000D01*
X160775812Y-98475518D01*
X160739502Y-98355820D01*
X160680537Y-98245506D01*
X160601185Y-98148815D01*
X160504494Y-98069463D01*
X160394180Y-98010498D01*
X160274482Y-97974188D01*
X160150000Y-97961928D01*
X159535750Y-97965000D01*
X159377000Y-98123750D01*
X159123000Y-98123750D01*
X158964250Y-97965000D01*
X158350000Y-97961928D01*
X158225518Y-97974188D01*
X158105820Y-98010498D01*
X157995506Y-98069463D01*
X157898815Y-98148815D01*
X157819463Y-98245506D01*
X157760498Y-98355820D01*
X157754944Y-98374127D01*
X157688505Y-98307688D01*
X157437095Y-98139701D01*
X157157743Y-98023989D01*
X156861184Y-97965000D01*
X156558816Y-97965000D01*
X156301070Y-98016269D01*
X155868130Y-97583329D01*
X162377284Y-97583329D01*
X162409953Y-97691044D01*
X162520208Y-97928392D01*
X162674649Y-98139670D01*
X162867340Y-98316759D01*
X163090877Y-98452853D01*
X163336670Y-98542722D01*
X163543000Y-98420201D01*
X163543000Y-97377000D01*
X163797000Y-97377000D01*
X163797000Y-98420201D01*
X164003330Y-98542722D01*
X164249123Y-98452853D01*
X164472660Y-98316759D01*
X164665351Y-98139670D01*
X164819792Y-97928392D01*
X164930047Y-97691044D01*
X164962716Y-97583329D01*
X164839374Y-97377000D01*
X163797000Y-97377000D01*
X163543000Y-97377000D01*
X162500626Y-97377000D01*
X162377284Y-97583329D01*
X155868130Y-97583329D01*
X154415000Y-96130199D01*
X154415000Y-96118514D01*
X154363696Y-95860595D01*
X154263061Y-95617641D01*
X154116962Y-95398987D01*
X153931013Y-95213038D01*
X153712359Y-95066939D01*
X153469405Y-94966304D01*
X153211486Y-94915000D01*
X152948514Y-94915000D01*
X152690595Y-94966304D01*
X152447641Y-95066939D01*
X152310001Y-95158907D01*
X152310001Y-94837323D01*
X152313677Y-94800000D01*
X152310001Y-94762677D01*
X152310001Y-94762668D01*
X152299004Y-94651015D01*
X152255547Y-94507754D01*
X152184975Y-94375725D01*
X152090002Y-94260000D01*
X152061004Y-94236202D01*
X151303355Y-93478554D01*
X151400000Y-93488072D01*
X153100000Y-93488072D01*
X153224482Y-93475812D01*
X153344180Y-93439502D01*
X153454494Y-93380537D01*
X153551185Y-93301185D01*
X153630537Y-93204494D01*
X153689502Y-93094180D01*
X153725812Y-92974482D01*
X153738072Y-92850000D01*
X153738072Y-92810507D01*
X156793669Y-92810507D01*
X156832761Y-93036404D01*
X156915172Y-93250334D01*
X157037736Y-93444076D01*
X157195742Y-93610184D01*
X157383118Y-93742275D01*
X157592663Y-93835272D01*
X157654190Y-93843964D01*
X157833000Y-93718163D01*
X157833000Y-92627000D01*
X156953402Y-92627000D01*
X156793669Y-92810507D01*
X153738072Y-92810507D01*
X153738072Y-92189493D01*
X156793669Y-92189493D01*
X156953402Y-92373000D01*
X157833000Y-92373000D01*
X157833000Y-91281837D01*
X157654190Y-91156036D01*
X157592663Y-91164728D01*
X157383118Y-91257725D01*
X157195742Y-91389816D01*
X157037736Y-91555924D01*
X156915172Y-91749666D01*
X156832761Y-91963596D01*
X156793669Y-92189493D01*
X153738072Y-92189493D01*
X153738072Y-91150000D01*
X153725812Y-91025518D01*
X153689502Y-90905820D01*
X153630537Y-90795506D01*
X153551185Y-90698815D01*
X153454958Y-90619844D01*
X154064802Y-90010000D01*
X157935199Y-90010000D01*
X158470001Y-90544803D01*
X158470001Y-91228043D01*
X158327337Y-91164728D01*
X158265810Y-91156036D01*
X158087000Y-91281837D01*
X158087000Y-92046891D01*
X158086785Y-92047600D01*
X158070000Y-92218021D01*
X158070000Y-92781978D01*
X158086785Y-92952399D01*
X158087000Y-92953108D01*
X158087000Y-93718163D01*
X158265810Y-93843964D01*
X158327337Y-93835272D01*
X158470000Y-93771957D01*
X158470000Y-94192677D01*
X158466324Y-94230000D01*
X158470000Y-94267322D01*
X158470000Y-94267332D01*
X158480997Y-94378985D01*
X158505572Y-94459999D01*
X158524454Y-94522246D01*
X158595026Y-94654276D01*
X158611440Y-94674276D01*
X158689999Y-94770001D01*
X158719003Y-94793804D01*
X159936201Y-96011003D01*
X159959999Y-96040001D01*
X160075724Y-96134974D01*
X160207753Y-96205546D01*
X160351014Y-96249003D01*
X160462667Y-96260000D01*
X160462676Y-96260000D01*
X160499999Y-96263676D01*
X160537322Y-96260000D01*
X162783818Y-96260000D01*
X162674649Y-96360330D01*
X162520208Y-96571608D01*
X162409953Y-96808956D01*
X162377284Y-96916671D01*
X162500626Y-97123000D01*
X163543000Y-97123000D01*
X163543000Y-97103000D01*
X163797000Y-97103000D01*
X163797000Y-97123000D01*
X164839374Y-97123000D01*
X164962716Y-96916671D01*
X164930047Y-96808956D01*
X164819792Y-96571608D01*
X164665351Y-96360330D01*
X164556182Y-96260000D01*
X167852025Y-96260000D01*
X167713038Y-96398987D01*
X167566939Y-96617641D01*
X167466304Y-96860595D01*
X167415000Y-97118514D01*
X167415000Y-97381486D01*
X167466304Y-97639405D01*
X167566939Y-97882359D01*
X167713038Y-98101013D01*
X167898987Y-98286962D01*
X168117641Y-98433061D01*
X168360595Y-98533696D01*
X168618514Y-98585000D01*
X168881486Y-98585000D01*
X169139405Y-98533696D01*
X169382359Y-98433061D01*
X169601013Y-98286962D01*
X169786962Y-98101013D01*
X169933061Y-97882359D01*
X170033696Y-97639405D01*
X170085000Y-97381486D01*
X170085000Y-97118514D01*
X170033696Y-96860595D01*
X169933061Y-96617641D01*
X169786962Y-96398987D01*
X169601013Y-96213038D01*
X169510000Y-96152225D01*
X169510000Y-95037325D01*
X169512691Y-95010000D01*
X172462678Y-95010000D01*
X172500000Y-95013676D01*
X172537322Y-95010000D01*
X172537333Y-95010000D01*
X172648986Y-94999003D01*
X172792247Y-94955546D01*
X172924276Y-94884974D01*
X173040001Y-94790001D01*
X173063804Y-94760997D01*
X175761004Y-92063798D01*
X175790001Y-92040001D01*
X175884974Y-91924276D01*
X175955546Y-91792247D01*
X175999003Y-91648986D01*
X176010000Y-91537333D01*
X176010000Y-91537324D01*
X176013676Y-91500001D01*
X176010000Y-91462678D01*
X176010000Y-81037322D01*
X176013676Y-80999999D01*
X176010000Y-80962676D01*
X176010000Y-80962667D01*
X175999003Y-80851014D01*
X175955546Y-80707753D01*
X175884974Y-80575724D01*
X175871811Y-80559685D01*
X175813799Y-80488996D01*
X175813795Y-80488992D01*
X175790001Y-80459999D01*
X175761008Y-80436205D01*
X173793804Y-78469002D01*
X173770001Y-78439999D01*
X173654276Y-78345026D01*
X173522247Y-78274454D01*
X173378986Y-78230997D01*
X173267333Y-78220000D01*
X173267322Y-78220000D01*
X173230000Y-78216324D01*
X173192678Y-78220000D01*
X170271958Y-78220000D01*
X170335272Y-78077337D01*
X170343964Y-78015810D01*
X170218163Y-77837000D01*
X169453109Y-77837000D01*
X169452400Y-77836785D01*
X169281979Y-77820000D01*
X168718021Y-77820000D01*
X168547600Y-77836785D01*
X168546891Y-77837000D01*
X167781837Y-77837000D01*
X167656036Y-78015810D01*
X167664728Y-78077337D01*
X167757725Y-78286882D01*
X167798929Y-78345331D01*
X167698115Y-78533940D01*
X167631785Y-78752600D01*
X167609388Y-78980000D01*
X167631785Y-79207400D01*
X167695093Y-79416098D01*
X167660498Y-79480820D01*
X167624188Y-79600518D01*
X167611928Y-79725000D01*
X167611928Y-80775000D01*
X167624188Y-80899482D01*
X167660498Y-81019180D01*
X167719463Y-81129494D01*
X167788871Y-81214068D01*
X163978992Y-77404190D01*
X167656036Y-77404190D01*
X167781837Y-77583000D01*
X168873000Y-77583000D01*
X168873000Y-76703402D01*
X169127000Y-76703402D01*
X169127000Y-77583000D01*
X170218163Y-77583000D01*
X170343964Y-77404190D01*
X170335272Y-77342663D01*
X170242275Y-77133118D01*
X170110184Y-76945742D01*
X169944076Y-76787736D01*
X169750334Y-76665172D01*
X169536404Y-76582761D01*
X169310507Y-76543669D01*
X169127000Y-76703402D01*
X168873000Y-76703402D01*
X168689493Y-76543669D01*
X168463596Y-76582761D01*
X168249666Y-76665172D01*
X168055924Y-76787736D01*
X167889816Y-76945742D01*
X167757725Y-77133118D01*
X167664728Y-77342663D01*
X167656036Y-77404190D01*
X163978992Y-77404190D01*
X163352903Y-76778102D01*
X163485178Y-76631355D01*
X163634157Y-76381252D01*
X163731481Y-76106891D01*
X163610814Y-75877000D01*
X162417000Y-75877000D01*
X162417000Y-75897000D01*
X162163000Y-75897000D01*
X162163000Y-75877000D01*
X162143000Y-75877000D01*
X162143000Y-75623000D01*
X162163000Y-75623000D01*
X162163000Y-74429845D01*
X162417000Y-74429845D01*
X162417000Y-75623000D01*
X163610814Y-75623000D01*
X163731481Y-75393109D01*
X163634157Y-75118748D01*
X163485178Y-74868645D01*
X163290269Y-74652412D01*
X163056920Y-74478359D01*
X162794099Y-74353175D01*
X162646890Y-74308524D01*
X162417000Y-74429845D01*
X162163000Y-74429845D01*
X161933110Y-74308524D01*
X161785901Y-74353175D01*
X161651597Y-74417145D01*
X161630547Y-74347752D01*
X161591226Y-74274188D01*
X161559975Y-74215722D01*
X161488800Y-74128996D01*
X161465002Y-74099998D01*
X161436004Y-74076200D01*
X160348806Y-72989002D01*
X160325003Y-72959999D01*
X160209278Y-72865026D01*
X160077249Y-72794454D01*
X159980474Y-72765098D01*
X175615000Y-72765098D01*
X175615000Y-73234902D01*
X175706654Y-73695679D01*
X175886440Y-74129721D01*
X176147450Y-74520349D01*
X176479651Y-74852550D01*
X176870279Y-75113560D01*
X177304321Y-75293346D01*
X177765098Y-75385000D01*
X178234902Y-75385000D01*
X178695679Y-75293346D01*
X179129721Y-75113560D01*
X179520349Y-74852550D01*
X179852550Y-74520349D01*
X180113560Y-74129721D01*
X180293346Y-73695679D01*
X180385000Y-73234902D01*
X180385000Y-72765098D01*
X180293346Y-72304321D01*
X180113560Y-71870279D01*
X179852550Y-71479651D01*
X179520349Y-71147450D01*
X179129721Y-70886440D01*
X178695679Y-70706654D01*
X178234902Y-70615000D01*
X177765098Y-70615000D01*
X177304321Y-70706654D01*
X176870279Y-70886440D01*
X176479651Y-71147450D01*
X176147450Y-71479651D01*
X175886440Y-71870279D01*
X175706654Y-72304321D01*
X175615000Y-72765098D01*
X159980474Y-72765098D01*
X159933988Y-72750997D01*
X159822335Y-72740000D01*
X159822324Y-72740000D01*
X159785002Y-72736324D01*
X159747680Y-72740000D01*
X156037322Y-72740000D01*
X155999999Y-72736324D01*
X155962676Y-72740000D01*
X155962667Y-72740000D01*
X155851014Y-72750997D01*
X155707753Y-72794454D01*
X155575724Y-72865026D01*
X155459999Y-72959999D01*
X155436201Y-72988997D01*
X152739003Y-75686196D01*
X152709999Y-75709999D01*
X152654871Y-75777174D01*
X152615026Y-75825724D01*
X152545539Y-75955724D01*
X152544454Y-75957754D01*
X152500997Y-76101015D01*
X152490000Y-76212668D01*
X152490000Y-76212678D01*
X152486324Y-76250000D01*
X152490000Y-76287323D01*
X152490001Y-78312634D01*
X151785750Y-78315000D01*
X151627000Y-78473750D01*
X151627000Y-79623000D01*
X151647000Y-79623000D01*
X151647000Y-79877000D01*
X151627000Y-79877000D01*
X151627000Y-79897000D01*
X151373000Y-79897000D01*
X151373000Y-79877000D01*
X149823750Y-79877000D01*
X149665000Y-80035750D01*
X149662794Y-80404990D01*
X149122333Y-80404990D01*
X149085010Y-80401314D01*
X149047687Y-80404990D01*
X149047677Y-80404990D01*
X148936024Y-80415987D01*
X148792763Y-80459444D01*
X148660734Y-80530016D01*
X148545009Y-80624989D01*
X148521211Y-80653987D01*
X146630156Y-82545042D01*
X146551185Y-82448815D01*
X146454494Y-82369463D01*
X146408994Y-82345142D01*
X146466872Y-82287264D01*
X146349766Y-82170158D01*
X146573348Y-82122852D01*
X146674237Y-81901484D01*
X146730000Y-81664687D01*
X146738495Y-81421562D01*
X146699395Y-81181451D01*
X146614202Y-80953582D01*
X146573348Y-80877148D01*
X146349764Y-80829841D01*
X145679605Y-81500000D01*
X145693748Y-81514143D01*
X145514143Y-81693748D01*
X145500000Y-81679605D01*
X145485858Y-81693748D01*
X145306253Y-81514143D01*
X145320395Y-81500000D01*
X144650236Y-80829841D01*
X144426652Y-80877148D01*
X144325763Y-81098516D01*
X144270000Y-81335313D01*
X144261505Y-81578438D01*
X144300605Y-81818549D01*
X144385798Y-82046418D01*
X144426652Y-82122852D01*
X144650234Y-82170158D01*
X144533128Y-82287264D01*
X144591006Y-82345142D01*
X144545506Y-82369463D01*
X144448815Y-82448815D01*
X144369463Y-82545506D01*
X144310498Y-82655820D01*
X144274594Y-82774178D01*
X144207753Y-82794454D01*
X144075724Y-82865026D01*
X143959999Y-82959999D01*
X143936202Y-82988996D01*
X142809991Y-84115208D01*
X142809991Y-82014810D01*
X144174565Y-80650236D01*
X144829841Y-80650236D01*
X145500000Y-81320395D01*
X146170159Y-80650236D01*
X146122852Y-80426652D01*
X145901484Y-80325763D01*
X145664687Y-80270000D01*
X145421562Y-80261505D01*
X145181451Y-80300605D01*
X144953582Y-80385798D01*
X144877148Y-80426652D01*
X144829841Y-80650236D01*
X144174565Y-80650236D01*
X145836730Y-78988072D01*
X146600000Y-78988072D01*
X146724482Y-78975812D01*
X146844180Y-78939502D01*
X146954494Y-78880537D01*
X147051185Y-78801185D01*
X147130537Y-78704494D01*
X147154858Y-78658994D01*
X147212736Y-78716872D01*
X147329842Y-78599766D01*
X147377148Y-78823348D01*
X147598516Y-78924237D01*
X147835313Y-78980000D01*
X148078438Y-78988495D01*
X148314833Y-78950000D01*
X149661928Y-78950000D01*
X149665000Y-79464250D01*
X149823750Y-79623000D01*
X151373000Y-79623000D01*
X151373000Y-78473750D01*
X151214250Y-78315000D01*
X150300000Y-78311928D01*
X150175518Y-78324188D01*
X150055820Y-78360498D01*
X149945506Y-78419463D01*
X149848815Y-78498815D01*
X149769463Y-78595506D01*
X149710498Y-78705820D01*
X149674188Y-78825518D01*
X149661928Y-78950000D01*
X148314833Y-78950000D01*
X148318549Y-78949395D01*
X148546418Y-78864202D01*
X148622852Y-78823348D01*
X148670159Y-78599764D01*
X148000000Y-77929605D01*
X147985858Y-77943748D01*
X147806253Y-77764143D01*
X147820395Y-77750000D01*
X148179605Y-77750000D01*
X148849764Y-78420159D01*
X149073348Y-78372852D01*
X149174237Y-78151484D01*
X149230000Y-77914687D01*
X149238495Y-77671562D01*
X149199395Y-77431451D01*
X149114202Y-77203582D01*
X149073348Y-77127148D01*
X148849764Y-77079841D01*
X148179605Y-77750000D01*
X147820395Y-77750000D01*
X147806253Y-77735858D01*
X147985858Y-77556253D01*
X148000000Y-77570395D01*
X148670159Y-76900236D01*
X148622852Y-76676652D01*
X148401484Y-76575763D01*
X148164687Y-76520000D01*
X147921562Y-76511505D01*
X147681451Y-76550605D01*
X147453582Y-76635798D01*
X147377148Y-76676652D01*
X147329842Y-76900234D01*
X147212736Y-76783128D01*
X147154858Y-76841006D01*
X147130537Y-76795506D01*
X147051185Y-76698815D01*
X146954494Y-76619463D01*
X146844180Y-76560498D01*
X146724482Y-76524188D01*
X146600000Y-76511928D01*
X145400000Y-76511928D01*
X145275518Y-76524188D01*
X145155820Y-76560498D01*
X145045506Y-76619463D01*
X144948815Y-76698815D01*
X144869463Y-76795506D01*
X144810498Y-76905820D01*
X144774188Y-77025518D01*
X144761928Y-77150000D01*
X144761928Y-77913270D01*
X141538994Y-81136205D01*
X141509990Y-81160008D01*
X141455847Y-81225982D01*
X141415017Y-81275733D01*
X141349137Y-81398985D01*
X141344445Y-81407763D01*
X141300988Y-81551024D01*
X141289991Y-81662677D01*
X141289991Y-81662687D01*
X141286315Y-81700009D01*
X141289991Y-81737331D01*
X141289992Y-97649068D01*
X141286315Y-97686401D01*
X141300989Y-97835386D01*
X141344445Y-97978647D01*
X141415017Y-98110677D01*
X141486192Y-98197403D01*
X141509991Y-98226402D01*
X141538989Y-98250200D01*
X144266865Y-100978077D01*
X144129721Y-100886440D01*
X143695679Y-100706654D01*
X143234902Y-100615000D01*
X142765098Y-100615000D01*
X142304321Y-100706654D01*
X141870279Y-100886440D01*
X141479651Y-101147450D01*
X141147450Y-101479651D01*
X140886440Y-101870279D01*
X140706654Y-102304321D01*
X140615000Y-102765098D01*
X140127000Y-102765098D01*
X140127000Y-72765098D01*
X140615000Y-72765098D01*
X140615000Y-73234902D01*
X140706654Y-73695679D01*
X140886440Y-74129721D01*
X141147450Y-74520349D01*
X141479651Y-74852550D01*
X141870279Y-75113560D01*
X142304321Y-75293346D01*
X142765098Y-75385000D01*
X143234902Y-75385000D01*
X143695679Y-75293346D01*
X144129721Y-75113560D01*
X144520349Y-74852550D01*
X144852550Y-74520349D01*
X145113560Y-74129721D01*
X145293346Y-73695679D01*
X145385000Y-73234902D01*
X145385000Y-72765098D01*
X145293346Y-72304321D01*
X145113560Y-71870279D01*
X144852550Y-71479651D01*
X144520349Y-71147450D01*
X144129721Y-70886440D01*
X143695679Y-70706654D01*
X143234902Y-70615000D01*
X142765098Y-70615000D01*
X142304321Y-70706654D01*
X141870279Y-70886440D01*
X141479651Y-71147450D01*
X141147450Y-71479651D01*
X140886440Y-71870279D01*
X140706654Y-72304321D01*
X140615000Y-72765098D01*
X140127000Y-72765098D01*
X140127000Y-70127000D01*
X180873000Y-70127000D01*
X180873000Y-105873000D01*
G37*
%TD.AperFunction*%
%TD*%
M02*
