%TF.GenerationSoftware,KiCad,Pcbnew,(5.1.12)-1*%
%TF.CreationDate,2023-08-26T19:40:57+05:30*%
%TF.ProjectId,clap switch,636c6170-2073-4776-9974-63682e6b6963,rev?*%
%TF.SameCoordinates,Original*%
%TF.FileFunction,Copper,L2,Bot*%
%TF.FilePolarity,Positive*%
%FSLAX46Y46*%
G04 Gerber Fmt 4.6, Leading zero omitted, Abs format (unit mm)*
G04 Created by KiCad (PCBNEW (5.1.12)-1) date 2023-08-26 19:40:57*
%MOMM*%
%LPD*%
G01*
G04 APERTURE LIST*
%TA.AperFunction,ComponentPad*%
%ADD10O,1.700000X1.700000*%
%TD*%
%TA.AperFunction,ComponentPad*%
%ADD11R,1.700000X1.700000*%
%TD*%
%TA.AperFunction,ComponentPad*%
%ADD12C,1.800000*%
%TD*%
%TA.AperFunction,ComponentPad*%
%ADD13R,1.800000X1.800000*%
%TD*%
%TA.AperFunction,ComponentPad*%
%ADD14O,2.400000X1.600000*%
%TD*%
%TA.AperFunction,ComponentPad*%
%ADD15R,2.400000X1.600000*%
%TD*%
%TA.AperFunction,ComponentPad*%
%ADD16R,1.500000X1.050000*%
%TD*%
%TA.AperFunction,ComponentPad*%
%ADD17O,1.500000X1.050000*%
%TD*%
%TA.AperFunction,ComponentPad*%
%ADD18O,1.400000X1.400000*%
%TD*%
%TA.AperFunction,ComponentPad*%
%ADD19C,1.400000*%
%TD*%
%TA.AperFunction,ComponentPad*%
%ADD20R,1.050000X1.500000*%
%TD*%
%TA.AperFunction,ComponentPad*%
%ADD21O,1.050000X1.500000*%
%TD*%
%TA.AperFunction,ComponentPad*%
%ADD22C,1.200000*%
%TD*%
%TA.AperFunction,ComponentPad*%
%ADD23R,1.200000X1.200000*%
%TD*%
%TA.AperFunction,ViaPad*%
%ADD24C,3.500000*%
%TD*%
%TA.AperFunction,Conductor*%
%ADD25C,0.250000*%
%TD*%
%TA.AperFunction,Conductor*%
%ADD26C,0.254000*%
%TD*%
%TA.AperFunction,Conductor*%
%ADD27C,0.100000*%
%TD*%
G04 APERTURE END LIST*
D10*
%TO.P,6V1,2*%
%TO.N,Earth*%
X162290000Y-75750000D03*
D11*
%TO.P,6V1,1*%
%TO.N,Net-(6V1-Pad1)*%
X159750000Y-75750000D03*
%TD*%
D12*
%TO.P,D1,2*%
%TO.N,Net-(D1-Pad2)*%
X156210000Y-97350000D03*
D13*
%TO.P,D1,1*%
%TO.N,Earth*%
X158750000Y-97350000D03*
%TD*%
D14*
%TO.P,U1,8*%
%TO.N,Net-(6V1-Pad1)*%
X159120000Y-79750000D03*
%TO.P,U1,4*%
X151500000Y-87370000D03*
%TO.P,U1,7*%
%TO.N,Net-(C2-Pad1)*%
X159120000Y-82290000D03*
%TO.P,U1,3*%
%TO.N,Net-(R1-Pad1)*%
X151500000Y-84830000D03*
%TO.P,U1,6*%
%TO.N,Net-(C2-Pad1)*%
X159120000Y-84830000D03*
%TO.P,U1,2*%
%TO.N,Net-(C3-Pad1)*%
X151500000Y-82290000D03*
%TO.P,U1,5*%
%TO.N,Net-(C1-Pad1)*%
X159120000Y-87370000D03*
D15*
%TO.P,U1,1*%
%TO.N,Earth*%
X151500000Y-79750000D03*
%TD*%
D10*
%TO.P,MK1,2*%
%TO.N,Net-(6V1-Pad1)*%
X149710000Y-92000000D03*
D11*
%TO.P,MK1,1*%
%TO.N,Net-(MK1-Pad1)*%
X152250000Y-92000000D03*
%TD*%
D16*
%TO.P,Q2,1*%
%TO.N,Net-(C3-Pad2)*%
X169000000Y-80250000D03*
D17*
%TO.P,Q2,3*%
%TO.N,Earth*%
X169000000Y-77710000D03*
%TO.P,Q2,2*%
%TO.N,Net-(Q1-Pad1)*%
X169000000Y-78980000D03*
%TD*%
D18*
%TO.P,R5,2*%
%TO.N,Earth*%
X163670000Y-95000000D03*
D19*
%TO.P,R5,1*%
%TO.N,Net-(MK1-Pad1)*%
X168750000Y-95000000D03*
%TD*%
D18*
%TO.P,R4,2*%
%TO.N,Net-(Q1-Pad1)*%
X163068000Y-86360000D03*
D19*
%TO.P,R4,1*%
%TO.N,Net-(6V1-Pad1)*%
X163068000Y-81280000D03*
%TD*%
D18*
%TO.P,R3,2*%
%TO.N,Net-(C3-Pad2)*%
X168830000Y-92000000D03*
D19*
%TO.P,R3,1*%
%TO.N,Net-(6V1-Pad1)*%
X163750000Y-92000000D03*
%TD*%
D18*
%TO.P,R2,2*%
%TO.N,Net-(C2-Pad1)*%
X149030000Y-98070000D03*
D19*
%TO.P,R2,1*%
%TO.N,Net-(6V1-Pad1)*%
X154110000Y-98070000D03*
%TD*%
D18*
%TO.P,R1,2*%
%TO.N,Net-(D1-Pad2)*%
X153930000Y-95770000D03*
D19*
%TO.P,R1,1*%
%TO.N,Net-(R1-Pad1)*%
X148850000Y-95770000D03*
%TD*%
D20*
%TO.P,Q1,1*%
%TO.N,Net-(Q1-Pad1)*%
X160500000Y-92500000D03*
D21*
%TO.P,Q1,3*%
%TO.N,Earth*%
X157960000Y-92500000D03*
%TO.P,Q1,2*%
%TO.N,Net-(MK1-Pad1)*%
X159230000Y-92500000D03*
%TD*%
D22*
%TO.P,C3,2*%
%TO.N,Net-(C3-Pad2)*%
X167862000Y-86614000D03*
D23*
%TO.P,C3,1*%
%TO.N,Net-(C3-Pad1)*%
X165862000Y-86614000D03*
%TD*%
D22*
%TO.P,C2,2*%
%TO.N,Earth*%
X147000000Y-81000000D03*
D23*
%TO.P,C2,1*%
%TO.N,Net-(C2-Pad1)*%
X147000000Y-83000000D03*
%TD*%
D22*
%TO.P,C1,2*%
%TO.N,Earth*%
X148000000Y-77750000D03*
D23*
%TO.P,C1,1*%
%TO.N,Net-(C1-Pad1)*%
X146000000Y-77750000D03*
%TD*%
D24*
%TO.N,*%
X174000000Y-100000000D03*
X143000000Y-100000000D03*
X143000000Y-74000000D03*
X174000000Y-74000000D03*
%TD*%
D25*
%TO.N,Earth*%
X149500000Y-77750000D02*
X151500000Y-79750000D01*
X148000000Y-77750000D02*
X149500000Y-77750000D01*
X167040000Y-75750000D02*
X169000000Y-77710000D01*
X162290000Y-75750000D02*
X167040000Y-75750000D01*
X172210000Y-77710000D02*
X169000000Y-77710000D01*
X173660000Y-79160000D02*
X172210000Y-77710000D01*
X173660000Y-94690000D02*
X173660000Y-79160000D01*
X169150000Y-99200000D02*
X173660000Y-94690000D01*
X158750000Y-97350000D02*
X158750000Y-98720000D01*
X158750000Y-98720000D02*
X159310000Y-99280000D01*
X159310000Y-99280000D02*
X162840000Y-99280000D01*
X162840000Y-99280000D02*
X163670000Y-98450000D01*
X163670000Y-95000000D02*
X163670000Y-97660000D01*
X163670000Y-97660000D02*
X163670000Y-97250000D01*
X163670000Y-98450000D02*
X163670000Y-97660000D01*
X164420000Y-99200000D02*
X163670000Y-98450000D01*
X169150000Y-99200000D02*
X164420000Y-99200000D01*
X151500000Y-74306000D02*
X151500000Y-79750000D01*
X152596000Y-73210000D02*
X151500000Y-74306000D01*
X161710000Y-73210000D02*
X152596000Y-73210000D01*
X162290000Y-73790000D02*
X161710000Y-73210000D01*
X162290000Y-75750000D02*
X162290000Y-73790000D01*
%TO.N,Net-(6V1-Pad1)*%
X151500000Y-87370000D02*
X149380000Y-87370000D01*
X149380000Y-87370000D02*
X148250000Y-88500000D01*
X148250000Y-90540000D02*
X149710000Y-92000000D01*
X148250000Y-88500000D02*
X148250000Y-90540000D01*
X149710000Y-92960000D02*
X149710000Y-92000000D01*
X159120000Y-76380000D02*
X159750000Y-75750000D01*
X159120000Y-79750000D02*
X159120000Y-76380000D01*
X159120000Y-79750000D02*
X160500000Y-79750000D01*
X152629990Y-94919990D02*
X149710000Y-92000000D01*
X152629990Y-96589990D02*
X152629990Y-94919990D01*
X154110000Y-98070000D02*
X152629990Y-96589990D01*
X160280000Y-79750000D02*
X159120000Y-79750000D01*
X151500000Y-87370000D02*
X152929991Y-88799991D01*
X152929991Y-88799991D02*
X159681013Y-88799991D01*
X159681013Y-88799991D02*
X161670000Y-86811004D01*
X161670000Y-86811004D02*
X161670000Y-80136000D01*
X161670000Y-80136000D02*
X161284000Y-79750000D01*
X161284000Y-79750000D02*
X160280000Y-79750000D01*
X162686000Y-80136000D02*
X161670000Y-80136000D01*
X163068000Y-80518000D02*
X162686000Y-80136000D01*
X163068000Y-81280000D02*
X163068000Y-80518000D01*
X164084000Y-81280000D02*
X163068000Y-81280000D01*
X164338000Y-81534000D02*
X164084000Y-81280000D01*
X164338000Y-91412000D02*
X164338000Y-81534000D01*
X163750000Y-92000000D02*
X164338000Y-91412000D01*
%TO.N,Net-(C1-Pad1)*%
X146000000Y-77750000D02*
X144000000Y-79750000D01*
X144000000Y-79750000D02*
X144000000Y-98000000D01*
X144000000Y-98000000D02*
X146144999Y-100144999D01*
X146144999Y-100144999D02*
X146144999Y-100242001D01*
X158240000Y-88250000D02*
X159120000Y-87370000D01*
X146144999Y-100144999D02*
X149065001Y-100144999D01*
X145500000Y-86750000D02*
X147889999Y-84360001D01*
X149065001Y-100144999D02*
X150190000Y-99020000D01*
X150190000Y-97712998D02*
X149497002Y-97020000D01*
X149497002Y-97020000D02*
X146270000Y-97020000D01*
X149689015Y-84360001D02*
X150483016Y-83566000D01*
X146270000Y-97020000D02*
X145500000Y-96250000D01*
X145500000Y-96250000D02*
X145500000Y-86750000D01*
X150190000Y-99020000D02*
X150190000Y-97712998D01*
X147889999Y-84360001D02*
X149689015Y-84360001D01*
X150483016Y-83566000D02*
X152566000Y-83566000D01*
X152566000Y-83566000D02*
X157250000Y-88250000D01*
X157250000Y-88250000D02*
X158240000Y-88250000D01*
%TO.N,Net-(C2-Pad1)*%
X159120000Y-82290000D02*
X159120000Y-84830000D01*
X145370000Y-98070000D02*
X149030000Y-98070000D01*
X144540000Y-97240000D02*
X145370000Y-98070000D01*
X144540000Y-83460000D02*
X144540000Y-97240000D01*
X145000000Y-83000000D02*
X144540000Y-83460000D01*
X147000000Y-83000000D02*
X145000000Y-83000000D01*
X149000000Y-81000000D02*
X147000000Y-83000000D01*
X152840000Y-81250000D02*
X152590000Y-81000000D01*
X158080000Y-81250000D02*
X152840000Y-81250000D01*
X159120000Y-82290000D02*
X158080000Y-81250000D01*
X152590000Y-81000000D02*
X149000000Y-81000000D01*
%TO.N,Net-(C3-Pad2)*%
X169000000Y-80250000D02*
X170620000Y-80250000D01*
X170620000Y-80250000D02*
X171440000Y-81070000D01*
X171440000Y-81070000D02*
X171440000Y-85354000D01*
X171560000Y-91510000D02*
X171560000Y-85962000D01*
X171070000Y-92000000D02*
X171560000Y-91510000D01*
X168830000Y-92000000D02*
X171070000Y-92000000D01*
X171196000Y-85598000D02*
X171440000Y-85354000D01*
X171560000Y-85962000D02*
X171196000Y-85598000D01*
X171196000Y-85725000D02*
X171196000Y-85598000D01*
X170307000Y-86614000D02*
X171196000Y-85725000D01*
X167862000Y-86614000D02*
X170307000Y-86614000D01*
%TO.N,Net-(C3-Pad1)*%
X156904990Y-86244990D02*
X152950000Y-82290000D01*
X158356400Y-80889989D02*
X159710993Y-80889989D01*
X159710993Y-80889989D02*
X161000000Y-82178996D01*
X158266400Y-80799989D02*
X158356400Y-80889989D01*
X160005010Y-86244990D02*
X156904990Y-86244990D01*
X165862000Y-86614000D02*
X165862000Y-80698002D01*
X153874980Y-80714980D02*
X158093976Y-80714980D01*
X165862000Y-80698002D02*
X162125998Y-76962000D01*
X162125998Y-76962000D02*
X161027000Y-76962000D01*
X161027000Y-76962000D02*
X160925001Y-76860001D01*
X160925001Y-76860001D02*
X160925001Y-74639999D01*
X161000000Y-82178996D02*
X161000000Y-85250000D01*
X153416000Y-74930000D02*
X153416000Y-80256000D01*
X160195002Y-73910000D02*
X154436000Y-73910000D01*
X152950000Y-82290000D02*
X151500000Y-82290000D01*
X154436000Y-73910000D02*
X153416000Y-74930000D01*
X161000000Y-85250000D02*
X160005010Y-86244990D01*
X153416000Y-80256000D02*
X153874980Y-80714980D01*
X158093976Y-80714980D02*
X158178985Y-80799989D01*
X160925001Y-74639999D02*
X160195002Y-73910000D01*
X158178985Y-80799989D02*
X158266400Y-80799989D01*
%TO.N,Net-(D1-Pad2)*%
X153460000Y-96250000D02*
X153080000Y-96250000D01*
X153930000Y-95770000D02*
X153930000Y-94710000D01*
X153930000Y-94710000D02*
X154190000Y-94450000D01*
X154190000Y-94450000D02*
X155790000Y-94450000D01*
X156210000Y-94870000D02*
X156210000Y-97350000D01*
X155790000Y-94450000D02*
X156210000Y-94870000D01*
%TO.N,Net-(MK1-Pad1)*%
X159230000Y-92500000D02*
X159230000Y-90230000D01*
X159230000Y-90230000D02*
X158250000Y-89250000D01*
X158250000Y-89250000D02*
X153750000Y-89250000D01*
X152250000Y-90750000D02*
X152250000Y-92000000D01*
X153750000Y-89250000D02*
X152250000Y-90750000D01*
X168750000Y-95000000D02*
X168750000Y-94070000D01*
X168750000Y-94070000D02*
X168470000Y-93790000D01*
X168470000Y-93790000D02*
X162690000Y-93790000D01*
X162690000Y-93790000D02*
X161470000Y-95010000D01*
X161470000Y-95010000D02*
X160280000Y-95010000D01*
X159230000Y-93960000D02*
X159230000Y-92500000D01*
X160280000Y-95010000D02*
X159230000Y-93960000D01*
%TO.N,Net-(Q1-Pad1)*%
X171350000Y-93200000D02*
X161200000Y-93200000D01*
X161200000Y-93200000D02*
X160500000Y-92500000D01*
X172740000Y-91810000D02*
X171350000Y-93200000D01*
X172740000Y-80450000D02*
X172740000Y-91810000D01*
X171270000Y-78980000D02*
X172740000Y-80450000D01*
X169000000Y-78980000D02*
X171270000Y-78980000D01*
X163068000Y-89932000D02*
X160500000Y-92500000D01*
X163068000Y-86360000D02*
X163068000Y-89932000D01*
%TO.N,Net-(R1-Pad1)*%
X146500000Y-87000000D02*
X148670000Y-84830000D01*
X146500000Y-95510000D02*
X146500000Y-87000000D01*
X148670000Y-84830000D02*
X151500000Y-84830000D01*
X147240000Y-96250000D02*
X146500000Y-95510000D01*
X148370000Y-96250000D02*
X148850000Y-95770000D01*
X147240000Y-96250000D02*
X148370000Y-96250000D01*
%TD*%
D26*
%TO.N,Earth*%
X171886440Y-72870279D02*
X171706654Y-73304321D01*
X171615000Y-73765098D01*
X171615000Y-74234902D01*
X171706654Y-74695679D01*
X171886440Y-75129721D01*
X172147450Y-75520349D01*
X172479651Y-75852550D01*
X172870279Y-76113560D01*
X173304321Y-76293346D01*
X173765098Y-76385000D01*
X174234902Y-76385000D01*
X174695679Y-76293346D01*
X175129721Y-76113560D01*
X175340000Y-75973056D01*
X175340001Y-98026945D01*
X175129721Y-97886440D01*
X174695679Y-97706654D01*
X174234902Y-97615000D01*
X173765098Y-97615000D01*
X173304321Y-97706654D01*
X172870279Y-97886440D01*
X172479651Y-98147450D01*
X172147450Y-98479651D01*
X171886440Y-98870279D01*
X171706654Y-99304321D01*
X171615000Y-99765098D01*
X171615000Y-100234902D01*
X171706654Y-100695679D01*
X171886440Y-101129721D01*
X172026944Y-101340000D01*
X144973056Y-101340000D01*
X145113560Y-101129721D01*
X145293346Y-100695679D01*
X145347687Y-100422489D01*
X145430748Y-100505549D01*
X145439453Y-100534248D01*
X145510025Y-100666277D01*
X145604998Y-100782002D01*
X145720724Y-100876975D01*
X145852753Y-100947547D01*
X145996014Y-100991004D01*
X146144999Y-101005678D01*
X146293985Y-100991004D01*
X146437246Y-100947547D01*
X146516847Y-100904999D01*
X149027679Y-100904999D01*
X149065001Y-100908675D01*
X149102323Y-100904999D01*
X149102334Y-100904999D01*
X149213987Y-100894002D01*
X149357248Y-100850545D01*
X149489277Y-100779973D01*
X149605002Y-100685000D01*
X149628805Y-100655997D01*
X150701004Y-99583798D01*
X150730001Y-99560001D01*
X150824974Y-99444276D01*
X150895546Y-99312247D01*
X150939003Y-99168986D01*
X150950000Y-99057333D01*
X150950000Y-99057323D01*
X150953676Y-99020000D01*
X150950000Y-98982677D01*
X150950000Y-97750320D01*
X150953676Y-97712997D01*
X150950000Y-97675674D01*
X150950000Y-97675665D01*
X150939003Y-97564012D01*
X150895546Y-97420751D01*
X150824974Y-97288722D01*
X150730001Y-97172997D01*
X150701002Y-97149199D01*
X150060805Y-96509002D01*
X150037003Y-96479999D01*
X150000952Y-96450413D01*
X150033061Y-96402359D01*
X150133696Y-96159405D01*
X150185000Y-95901486D01*
X150185000Y-95638514D01*
X150133696Y-95380595D01*
X150033061Y-95137641D01*
X149886962Y-94918987D01*
X149701013Y-94733038D01*
X149482359Y-94586939D01*
X149239405Y-94486304D01*
X148981486Y-94435000D01*
X148718514Y-94435000D01*
X148460595Y-94486304D01*
X148217641Y-94586939D01*
X147998987Y-94733038D01*
X147813038Y-94918987D01*
X147666939Y-95137641D01*
X147566304Y-95380595D01*
X147546244Y-95481442D01*
X147260000Y-95195199D01*
X147260000Y-87314801D01*
X148984803Y-85590000D01*
X149879099Y-85590000D01*
X149901068Y-85631101D01*
X150080392Y-85849608D01*
X150298899Y-86028932D01*
X150431858Y-86100000D01*
X150298899Y-86171068D01*
X150080392Y-86350392D01*
X149901068Y-86568899D01*
X149879099Y-86610000D01*
X149417322Y-86610000D01*
X149379999Y-86606324D01*
X149342676Y-86610000D01*
X149342667Y-86610000D01*
X149231014Y-86620997D01*
X149087753Y-86664454D01*
X148955724Y-86735026D01*
X148839999Y-86829999D01*
X148816201Y-86858997D01*
X147739002Y-87936196D01*
X147709999Y-87959999D01*
X147654871Y-88027174D01*
X147615026Y-88075724D01*
X147601508Y-88101015D01*
X147544454Y-88207754D01*
X147500997Y-88351015D01*
X147490000Y-88462668D01*
X147490000Y-88462678D01*
X147486324Y-88500000D01*
X147490000Y-88537323D01*
X147490001Y-90502668D01*
X147486324Y-90540000D01*
X147490001Y-90577333D01*
X147500998Y-90688986D01*
X147508182Y-90712668D01*
X147544454Y-90832246D01*
X147615026Y-90964276D01*
X147665287Y-91025518D01*
X147710000Y-91080001D01*
X147738998Y-91103799D01*
X148268791Y-91633592D01*
X148225000Y-91853740D01*
X148225000Y-92146260D01*
X148282068Y-92433158D01*
X148394010Y-92703411D01*
X148556525Y-92946632D01*
X148763368Y-93153475D01*
X149006589Y-93315990D01*
X149047608Y-93332981D01*
X149075026Y-93384275D01*
X149169999Y-93500001D01*
X149285724Y-93594974D01*
X149417753Y-93665546D01*
X149561014Y-93709003D01*
X149710000Y-93723677D01*
X149858985Y-93709003D01*
X150002246Y-93665546D01*
X150134275Y-93594974D01*
X150186946Y-93551748D01*
X151869991Y-95234794D01*
X151869990Y-96552667D01*
X151866314Y-96589990D01*
X151869990Y-96627312D01*
X151869990Y-96627322D01*
X151880987Y-96738975D01*
X151921040Y-96871013D01*
X151924444Y-96882236D01*
X151995016Y-97014266D01*
X152010422Y-97033038D01*
X152089989Y-97129991D01*
X152118993Y-97153794D01*
X152796355Y-97831157D01*
X152775000Y-97938514D01*
X152775000Y-98201486D01*
X152826304Y-98459405D01*
X152926939Y-98702359D01*
X153073038Y-98921013D01*
X153258987Y-99106962D01*
X153477641Y-99253061D01*
X153720595Y-99353696D01*
X153978514Y-99405000D01*
X154241486Y-99405000D01*
X154499405Y-99353696D01*
X154742359Y-99253061D01*
X154961013Y-99106962D01*
X155146962Y-98921013D01*
X155293061Y-98702359D01*
X155331638Y-98609226D01*
X155482905Y-98710299D01*
X155762257Y-98826011D01*
X156058816Y-98885000D01*
X156361184Y-98885000D01*
X156657743Y-98826011D01*
X156937095Y-98710299D01*
X157188505Y-98542312D01*
X157254944Y-98475873D01*
X157260498Y-98494180D01*
X157319463Y-98604494D01*
X157398815Y-98701185D01*
X157495506Y-98780537D01*
X157605820Y-98839502D01*
X157725518Y-98875812D01*
X157850000Y-98888072D01*
X158464250Y-98885000D01*
X158623000Y-98726250D01*
X158623000Y-97477000D01*
X158877000Y-97477000D01*
X158877000Y-98726250D01*
X159035750Y-98885000D01*
X159650000Y-98888072D01*
X159774482Y-98875812D01*
X159894180Y-98839502D01*
X160004494Y-98780537D01*
X160101185Y-98701185D01*
X160180537Y-98604494D01*
X160239502Y-98494180D01*
X160275812Y-98374482D01*
X160288072Y-98250000D01*
X160285000Y-97635750D01*
X160126250Y-97477000D01*
X158877000Y-97477000D01*
X158623000Y-97477000D01*
X158603000Y-97477000D01*
X158603000Y-97223000D01*
X158623000Y-97223000D01*
X158623000Y-95973750D01*
X158877000Y-95973750D01*
X158877000Y-97223000D01*
X160126250Y-97223000D01*
X160285000Y-97064250D01*
X160288072Y-96450000D01*
X160275812Y-96325518D01*
X160239502Y-96205820D01*
X160180537Y-96095506D01*
X160101185Y-95998815D01*
X160004494Y-95919463D01*
X159894180Y-95860498D01*
X159774482Y-95824188D01*
X159650000Y-95811928D01*
X159035750Y-95815000D01*
X158877000Y-95973750D01*
X158623000Y-95973750D01*
X158464250Y-95815000D01*
X157850000Y-95811928D01*
X157725518Y-95824188D01*
X157605820Y-95860498D01*
X157495506Y-95919463D01*
X157398815Y-95998815D01*
X157319463Y-96095506D01*
X157260498Y-96205820D01*
X157254944Y-96224127D01*
X157188505Y-96157688D01*
X156970000Y-96011687D01*
X156970000Y-94907325D01*
X156973676Y-94870000D01*
X156970000Y-94832675D01*
X156970000Y-94832667D01*
X156959003Y-94721014D01*
X156915546Y-94577753D01*
X156844974Y-94445724D01*
X156750001Y-94329999D01*
X156720998Y-94306197D01*
X156353804Y-93939003D01*
X156330001Y-93909999D01*
X156214276Y-93815026D01*
X156082247Y-93744454D01*
X155938986Y-93700997D01*
X155827333Y-93690000D01*
X155827322Y-93690000D01*
X155790000Y-93686324D01*
X155752678Y-93690000D01*
X154227333Y-93690000D01*
X154190000Y-93686323D01*
X154152667Y-93690000D01*
X154041014Y-93700997D01*
X153897753Y-93744454D01*
X153765724Y-93815026D01*
X153649999Y-93909999D01*
X153626196Y-93939003D01*
X153418998Y-94146201D01*
X153390000Y-94169999D01*
X153366202Y-94198997D01*
X153366201Y-94198998D01*
X153295026Y-94285724D01*
X153224454Y-94417754D01*
X153218120Y-94438634D01*
X153193789Y-94408986D01*
X153193785Y-94408982D01*
X153169991Y-94379989D01*
X153140998Y-94356195D01*
X152272874Y-93488072D01*
X153100000Y-93488072D01*
X153224482Y-93475812D01*
X153344180Y-93439502D01*
X153454494Y-93380537D01*
X153551185Y-93301185D01*
X153630537Y-93204494D01*
X153689502Y-93094180D01*
X153725812Y-92974482D01*
X153738072Y-92850000D01*
X153738072Y-92810507D01*
X156793669Y-92810507D01*
X156832761Y-93036404D01*
X156915172Y-93250334D01*
X157037736Y-93444076D01*
X157195742Y-93610184D01*
X157383118Y-93742275D01*
X157592663Y-93835272D01*
X157654190Y-93843964D01*
X157833000Y-93718163D01*
X157833000Y-92627000D01*
X156953402Y-92627000D01*
X156793669Y-92810507D01*
X153738072Y-92810507D01*
X153738072Y-92189493D01*
X156793669Y-92189493D01*
X156953402Y-92373000D01*
X157833000Y-92373000D01*
X157833000Y-91281837D01*
X157654190Y-91156036D01*
X157592663Y-91164728D01*
X157383118Y-91257725D01*
X157195742Y-91389816D01*
X157037736Y-91555924D01*
X156915172Y-91749666D01*
X156832761Y-91963596D01*
X156793669Y-92189493D01*
X153738072Y-92189493D01*
X153738072Y-91150000D01*
X153725812Y-91025518D01*
X153689502Y-90905820D01*
X153630537Y-90795506D01*
X153551185Y-90698815D01*
X153454958Y-90619844D01*
X154064802Y-90010000D01*
X157935199Y-90010000D01*
X158470001Y-90544803D01*
X158470001Y-91228043D01*
X158327337Y-91164728D01*
X158265810Y-91156036D01*
X158087000Y-91281837D01*
X158087000Y-92046891D01*
X158086785Y-92047600D01*
X158070000Y-92218021D01*
X158070000Y-92781978D01*
X158086785Y-92952399D01*
X158087000Y-92953108D01*
X158087000Y-93718163D01*
X158265810Y-93843964D01*
X158327337Y-93835272D01*
X158470000Y-93771957D01*
X158470000Y-93922677D01*
X158466324Y-93960000D01*
X158470000Y-93997322D01*
X158470000Y-93997332D01*
X158480997Y-94108985D01*
X158523773Y-94250000D01*
X158524454Y-94252246D01*
X158595026Y-94384276D01*
X158622500Y-94417753D01*
X158689999Y-94500001D01*
X158719002Y-94523804D01*
X159716201Y-95521003D01*
X159739999Y-95550001D01*
X159855724Y-95644974D01*
X159987753Y-95715546D01*
X160131014Y-95759003D01*
X160242667Y-95770000D01*
X160242676Y-95770000D01*
X160279999Y-95773676D01*
X160317322Y-95770000D01*
X161432678Y-95770000D01*
X161470000Y-95773676D01*
X161507322Y-95770000D01*
X161507333Y-95770000D01*
X161618986Y-95759003D01*
X161762247Y-95715546D01*
X161894276Y-95644974D01*
X162010001Y-95550001D01*
X162033804Y-95520997D01*
X162427800Y-95127002D01*
X162500625Y-95127002D01*
X162377284Y-95333329D01*
X162409953Y-95441044D01*
X162520208Y-95678392D01*
X162674649Y-95889670D01*
X162867340Y-96066759D01*
X163090877Y-96202853D01*
X163336670Y-96292722D01*
X163543000Y-96170201D01*
X163543000Y-95127000D01*
X163797000Y-95127000D01*
X163797000Y-96170201D01*
X164003330Y-96292722D01*
X164249123Y-96202853D01*
X164472660Y-96066759D01*
X164665351Y-95889670D01*
X164819792Y-95678392D01*
X164930047Y-95441044D01*
X164962716Y-95333329D01*
X164839374Y-95127000D01*
X163797000Y-95127000D01*
X163543000Y-95127000D01*
X163523000Y-95127000D01*
X163523000Y-94873000D01*
X163543000Y-94873000D01*
X163543000Y-94853000D01*
X163797000Y-94853000D01*
X163797000Y-94873000D01*
X164839374Y-94873000D01*
X164962716Y-94666671D01*
X164930047Y-94558956D01*
X164925887Y-94550000D01*
X167491403Y-94550000D01*
X167466304Y-94610595D01*
X167415000Y-94868514D01*
X167415000Y-95131486D01*
X167466304Y-95389405D01*
X167566939Y-95632359D01*
X167713038Y-95851013D01*
X167898987Y-96036962D01*
X168117641Y-96183061D01*
X168360595Y-96283696D01*
X168618514Y-96335000D01*
X168881486Y-96335000D01*
X169139405Y-96283696D01*
X169382359Y-96183061D01*
X169601013Y-96036962D01*
X169786962Y-95851013D01*
X169933061Y-95632359D01*
X170033696Y-95389405D01*
X170085000Y-95131486D01*
X170085000Y-94868514D01*
X170033696Y-94610595D01*
X169933061Y-94367641D01*
X169786962Y-94148987D01*
X169601013Y-93963038D01*
X169596466Y-93960000D01*
X171312678Y-93960000D01*
X171350000Y-93963676D01*
X171387322Y-93960000D01*
X171387333Y-93960000D01*
X171498986Y-93949003D01*
X171642247Y-93905546D01*
X171774276Y-93834974D01*
X171890001Y-93740001D01*
X171913804Y-93710997D01*
X173251003Y-92373799D01*
X173280001Y-92350001D01*
X173374974Y-92234276D01*
X173445546Y-92102247D01*
X173489003Y-91958986D01*
X173500000Y-91847333D01*
X173500000Y-91847323D01*
X173503676Y-91810000D01*
X173500000Y-91772677D01*
X173500000Y-80487323D01*
X173503676Y-80450000D01*
X173500000Y-80412677D01*
X173500000Y-80412667D01*
X173489003Y-80301014D01*
X173445546Y-80157753D01*
X173418426Y-80107015D01*
X173374974Y-80025723D01*
X173303799Y-79938997D01*
X173280001Y-79909999D01*
X173251004Y-79886202D01*
X171833804Y-78469003D01*
X171810001Y-78439999D01*
X171694276Y-78345026D01*
X171562247Y-78274454D01*
X171418986Y-78230997D01*
X171307333Y-78220000D01*
X171307322Y-78220000D01*
X171270000Y-78216324D01*
X171232678Y-78220000D01*
X170271958Y-78220000D01*
X170335272Y-78077337D01*
X170343964Y-78015810D01*
X170218163Y-77837000D01*
X169453109Y-77837000D01*
X169452400Y-77836785D01*
X169281979Y-77820000D01*
X168718021Y-77820000D01*
X168547600Y-77836785D01*
X168546891Y-77837000D01*
X167781837Y-77837000D01*
X167656036Y-78015810D01*
X167664728Y-78077337D01*
X167757725Y-78286882D01*
X167798929Y-78345331D01*
X167698115Y-78533940D01*
X167631785Y-78752600D01*
X167609388Y-78980000D01*
X167631785Y-79207400D01*
X167695093Y-79416098D01*
X167660498Y-79480820D01*
X167624188Y-79600518D01*
X167611928Y-79725000D01*
X167611928Y-80775000D01*
X167624188Y-80899482D01*
X167660498Y-81019180D01*
X167719463Y-81129494D01*
X167798815Y-81226185D01*
X167895506Y-81305537D01*
X168005820Y-81364502D01*
X168125518Y-81400812D01*
X168250000Y-81413072D01*
X169750000Y-81413072D01*
X169874482Y-81400812D01*
X169994180Y-81364502D01*
X170104494Y-81305537D01*
X170201185Y-81226185D01*
X170280537Y-81129494D01*
X170330751Y-81035552D01*
X170680000Y-81384802D01*
X170680001Y-85038301D01*
X170655999Y-85057999D01*
X170561026Y-85173724D01*
X170490454Y-85305753D01*
X170468687Y-85377512D01*
X169992199Y-85854000D01*
X168839506Y-85854000D01*
X168821287Y-85826733D01*
X168649267Y-85654713D01*
X168446992Y-85519557D01*
X168222236Y-85426460D01*
X167983637Y-85379000D01*
X167740363Y-85379000D01*
X167501764Y-85426460D01*
X167277008Y-85519557D01*
X167074733Y-85654713D01*
X167019499Y-85709947D01*
X166992537Y-85659506D01*
X166913185Y-85562815D01*
X166816494Y-85483463D01*
X166706180Y-85424498D01*
X166622000Y-85398962D01*
X166622000Y-80735327D01*
X166625676Y-80698002D01*
X166622000Y-80660677D01*
X166622000Y-80660669D01*
X166611003Y-80549016D01*
X166567546Y-80405755D01*
X166496974Y-80273726D01*
X166402001Y-80158001D01*
X166373003Y-80134203D01*
X163642990Y-77404190D01*
X167656036Y-77404190D01*
X167781837Y-77583000D01*
X168873000Y-77583000D01*
X168873000Y-76703402D01*
X169127000Y-76703402D01*
X169127000Y-77583000D01*
X170218163Y-77583000D01*
X170343964Y-77404190D01*
X170335272Y-77342663D01*
X170242275Y-77133118D01*
X170110184Y-76945742D01*
X169944076Y-76787736D01*
X169750334Y-76665172D01*
X169536404Y-76582761D01*
X169310507Y-76543669D01*
X169127000Y-76703402D01*
X168873000Y-76703402D01*
X168689493Y-76543669D01*
X168463596Y-76582761D01*
X168249666Y-76665172D01*
X168055924Y-76787736D01*
X167889816Y-76945742D01*
X167757725Y-77133118D01*
X167664728Y-77342663D01*
X167656036Y-77404190D01*
X163642990Y-77404190D01*
X163173491Y-76934692D01*
X163290269Y-76847588D01*
X163485178Y-76631355D01*
X163634157Y-76381252D01*
X163731481Y-76106891D01*
X163610814Y-75877000D01*
X162417000Y-75877000D01*
X162417000Y-75897000D01*
X162163000Y-75897000D01*
X162163000Y-75877000D01*
X162143000Y-75877000D01*
X162143000Y-75623000D01*
X162163000Y-75623000D01*
X162163000Y-74429845D01*
X162417000Y-74429845D01*
X162417000Y-75623000D01*
X163610814Y-75623000D01*
X163731481Y-75393109D01*
X163634157Y-75118748D01*
X163485178Y-74868645D01*
X163290269Y-74652412D01*
X163056920Y-74478359D01*
X162794099Y-74353175D01*
X162646890Y-74308524D01*
X162417000Y-74429845D01*
X162163000Y-74429845D01*
X161933110Y-74308524D01*
X161785901Y-74353175D01*
X161651597Y-74417145D01*
X161630547Y-74347752D01*
X161559975Y-74215723D01*
X161531476Y-74180997D01*
X161488800Y-74128995D01*
X161488796Y-74128991D01*
X161465002Y-74099998D01*
X161436009Y-74076204D01*
X160758805Y-73399002D01*
X160735003Y-73369999D01*
X160619278Y-73275026D01*
X160487249Y-73204454D01*
X160343988Y-73160997D01*
X160232335Y-73150000D01*
X160232324Y-73150000D01*
X160195002Y-73146324D01*
X160157680Y-73150000D01*
X154473323Y-73150000D01*
X154436000Y-73146324D01*
X154398677Y-73150000D01*
X154398667Y-73150000D01*
X154287014Y-73160997D01*
X154143753Y-73204454D01*
X154011724Y-73275026D01*
X153895999Y-73369999D01*
X153872201Y-73398997D01*
X152905002Y-74366196D01*
X152875999Y-74389999D01*
X152826757Y-74450001D01*
X152781026Y-74505724D01*
X152759762Y-74545506D01*
X152710454Y-74637754D01*
X152666997Y-74781015D01*
X152656000Y-74892668D01*
X152656000Y-74892678D01*
X152652324Y-74930000D01*
X152656000Y-74967323D01*
X152656001Y-78312076D01*
X151785750Y-78315000D01*
X151627000Y-78473750D01*
X151627000Y-79623000D01*
X151647000Y-79623000D01*
X151647000Y-79877000D01*
X151627000Y-79877000D01*
X151627000Y-79897000D01*
X151373000Y-79897000D01*
X151373000Y-79877000D01*
X149823750Y-79877000D01*
X149665000Y-80035750D01*
X149663780Y-80240000D01*
X149037322Y-80240000D01*
X148999999Y-80236324D01*
X148962676Y-80240000D01*
X148962667Y-80240000D01*
X148851014Y-80250997D01*
X148711449Y-80293333D01*
X148707753Y-80294454D01*
X148575723Y-80365026D01*
X148498690Y-80428246D01*
X148459999Y-80459999D01*
X148436201Y-80488997D01*
X148205606Y-80719592D01*
X148199395Y-80681451D01*
X148114202Y-80453582D01*
X148073348Y-80377148D01*
X147849764Y-80329841D01*
X147179605Y-81000000D01*
X147193748Y-81014143D01*
X147014143Y-81193748D01*
X147000000Y-81179605D01*
X146985858Y-81193748D01*
X146806253Y-81014143D01*
X146820395Y-81000000D01*
X146150236Y-80329841D01*
X145926652Y-80377148D01*
X145825763Y-80598516D01*
X145770000Y-80835313D01*
X145761505Y-81078438D01*
X145800605Y-81318549D01*
X145885798Y-81546418D01*
X145926652Y-81622852D01*
X146150234Y-81670158D01*
X146033128Y-81787264D01*
X146091006Y-81845142D01*
X146045506Y-81869463D01*
X145948815Y-81948815D01*
X145869463Y-82045506D01*
X145810498Y-82155820D01*
X145784962Y-82240000D01*
X145037322Y-82240000D01*
X144999999Y-82236324D01*
X144962676Y-82240000D01*
X144962667Y-82240000D01*
X144851014Y-82250997D01*
X144760000Y-82278605D01*
X144760000Y-80150236D01*
X146329841Y-80150236D01*
X147000000Y-80820395D01*
X147670159Y-80150236D01*
X147622852Y-79926652D01*
X147401484Y-79825763D01*
X147164687Y-79770000D01*
X146921562Y-79761505D01*
X146681451Y-79800605D01*
X146453582Y-79885798D01*
X146377148Y-79926652D01*
X146329841Y-80150236D01*
X144760000Y-80150236D01*
X144760000Y-80064801D01*
X145836730Y-78988072D01*
X146600000Y-78988072D01*
X146724482Y-78975812D01*
X146844180Y-78939502D01*
X146954494Y-78880537D01*
X147051185Y-78801185D01*
X147130537Y-78704494D01*
X147154858Y-78658994D01*
X147212736Y-78716872D01*
X147329842Y-78599766D01*
X147377148Y-78823348D01*
X147598516Y-78924237D01*
X147835313Y-78980000D01*
X148078438Y-78988495D01*
X148314833Y-78950000D01*
X149661928Y-78950000D01*
X149665000Y-79464250D01*
X149823750Y-79623000D01*
X151373000Y-79623000D01*
X151373000Y-78473750D01*
X151214250Y-78315000D01*
X150300000Y-78311928D01*
X150175518Y-78324188D01*
X150055820Y-78360498D01*
X149945506Y-78419463D01*
X149848815Y-78498815D01*
X149769463Y-78595506D01*
X149710498Y-78705820D01*
X149674188Y-78825518D01*
X149661928Y-78950000D01*
X148314833Y-78950000D01*
X148318549Y-78949395D01*
X148546418Y-78864202D01*
X148622852Y-78823348D01*
X148670159Y-78599764D01*
X148000000Y-77929605D01*
X147985858Y-77943748D01*
X147806253Y-77764143D01*
X147820395Y-77750000D01*
X148179605Y-77750000D01*
X148849764Y-78420159D01*
X149073348Y-78372852D01*
X149174237Y-78151484D01*
X149230000Y-77914687D01*
X149238495Y-77671562D01*
X149199395Y-77431451D01*
X149114202Y-77203582D01*
X149073348Y-77127148D01*
X148849764Y-77079841D01*
X148179605Y-77750000D01*
X147820395Y-77750000D01*
X147806253Y-77735858D01*
X147985858Y-77556253D01*
X148000000Y-77570395D01*
X148670159Y-76900236D01*
X148622852Y-76676652D01*
X148401484Y-76575763D01*
X148164687Y-76520000D01*
X147921562Y-76511505D01*
X147681451Y-76550605D01*
X147453582Y-76635798D01*
X147377148Y-76676652D01*
X147329842Y-76900234D01*
X147212736Y-76783128D01*
X147154858Y-76841006D01*
X147130537Y-76795506D01*
X147051185Y-76698815D01*
X146954494Y-76619463D01*
X146844180Y-76560498D01*
X146724482Y-76524188D01*
X146600000Y-76511928D01*
X145400000Y-76511928D01*
X145275518Y-76524188D01*
X145155820Y-76560498D01*
X145045506Y-76619463D01*
X144948815Y-76698815D01*
X144869463Y-76795506D01*
X144810498Y-76905820D01*
X144774188Y-77025518D01*
X144761928Y-77150000D01*
X144761928Y-77913270D01*
X143489003Y-79186196D01*
X143459999Y-79209999D01*
X143408915Y-79272246D01*
X143365026Y-79325724D01*
X143340118Y-79372323D01*
X143294454Y-79457754D01*
X143250997Y-79601015D01*
X143240000Y-79712668D01*
X143240000Y-79712678D01*
X143236324Y-79750000D01*
X143240000Y-79787322D01*
X143240001Y-97616014D01*
X143234902Y-97615000D01*
X142765098Y-97615000D01*
X142304321Y-97706654D01*
X141870279Y-97886440D01*
X141660000Y-98026944D01*
X141660000Y-75973056D01*
X141870279Y-76113560D01*
X142304321Y-76293346D01*
X142765098Y-76385000D01*
X143234902Y-76385000D01*
X143695679Y-76293346D01*
X144129721Y-76113560D01*
X144520349Y-75852550D01*
X144852550Y-75520349D01*
X145113560Y-75129721D01*
X145293346Y-74695679D01*
X145385000Y-74234902D01*
X145385000Y-73765098D01*
X145293346Y-73304321D01*
X145113560Y-72870279D01*
X144973056Y-72660000D01*
X172026944Y-72660000D01*
X171886440Y-72870279D01*
%TA.AperFunction,Conductor*%
D27*
G36*
X171886440Y-72870279D02*
G01*
X171706654Y-73304321D01*
X171615000Y-73765098D01*
X171615000Y-74234902D01*
X171706654Y-74695679D01*
X171886440Y-75129721D01*
X172147450Y-75520349D01*
X172479651Y-75852550D01*
X172870279Y-76113560D01*
X173304321Y-76293346D01*
X173765098Y-76385000D01*
X174234902Y-76385000D01*
X174695679Y-76293346D01*
X175129721Y-76113560D01*
X175340000Y-75973056D01*
X175340001Y-98026945D01*
X175129721Y-97886440D01*
X174695679Y-97706654D01*
X174234902Y-97615000D01*
X173765098Y-97615000D01*
X173304321Y-97706654D01*
X172870279Y-97886440D01*
X172479651Y-98147450D01*
X172147450Y-98479651D01*
X171886440Y-98870279D01*
X171706654Y-99304321D01*
X171615000Y-99765098D01*
X171615000Y-100234902D01*
X171706654Y-100695679D01*
X171886440Y-101129721D01*
X172026944Y-101340000D01*
X144973056Y-101340000D01*
X145113560Y-101129721D01*
X145293346Y-100695679D01*
X145347687Y-100422489D01*
X145430748Y-100505549D01*
X145439453Y-100534248D01*
X145510025Y-100666277D01*
X145604998Y-100782002D01*
X145720724Y-100876975D01*
X145852753Y-100947547D01*
X145996014Y-100991004D01*
X146144999Y-101005678D01*
X146293985Y-100991004D01*
X146437246Y-100947547D01*
X146516847Y-100904999D01*
X149027679Y-100904999D01*
X149065001Y-100908675D01*
X149102323Y-100904999D01*
X149102334Y-100904999D01*
X149213987Y-100894002D01*
X149357248Y-100850545D01*
X149489277Y-100779973D01*
X149605002Y-100685000D01*
X149628805Y-100655997D01*
X150701004Y-99583798D01*
X150730001Y-99560001D01*
X150824974Y-99444276D01*
X150895546Y-99312247D01*
X150939003Y-99168986D01*
X150950000Y-99057333D01*
X150950000Y-99057323D01*
X150953676Y-99020000D01*
X150950000Y-98982677D01*
X150950000Y-97750320D01*
X150953676Y-97712997D01*
X150950000Y-97675674D01*
X150950000Y-97675665D01*
X150939003Y-97564012D01*
X150895546Y-97420751D01*
X150824974Y-97288722D01*
X150730001Y-97172997D01*
X150701002Y-97149199D01*
X150060805Y-96509002D01*
X150037003Y-96479999D01*
X150000952Y-96450413D01*
X150033061Y-96402359D01*
X150133696Y-96159405D01*
X150185000Y-95901486D01*
X150185000Y-95638514D01*
X150133696Y-95380595D01*
X150033061Y-95137641D01*
X149886962Y-94918987D01*
X149701013Y-94733038D01*
X149482359Y-94586939D01*
X149239405Y-94486304D01*
X148981486Y-94435000D01*
X148718514Y-94435000D01*
X148460595Y-94486304D01*
X148217641Y-94586939D01*
X147998987Y-94733038D01*
X147813038Y-94918987D01*
X147666939Y-95137641D01*
X147566304Y-95380595D01*
X147546244Y-95481442D01*
X147260000Y-95195199D01*
X147260000Y-87314801D01*
X148984803Y-85590000D01*
X149879099Y-85590000D01*
X149901068Y-85631101D01*
X150080392Y-85849608D01*
X150298899Y-86028932D01*
X150431858Y-86100000D01*
X150298899Y-86171068D01*
X150080392Y-86350392D01*
X149901068Y-86568899D01*
X149879099Y-86610000D01*
X149417322Y-86610000D01*
X149379999Y-86606324D01*
X149342676Y-86610000D01*
X149342667Y-86610000D01*
X149231014Y-86620997D01*
X149087753Y-86664454D01*
X148955724Y-86735026D01*
X148839999Y-86829999D01*
X148816201Y-86858997D01*
X147739002Y-87936196D01*
X147709999Y-87959999D01*
X147654871Y-88027174D01*
X147615026Y-88075724D01*
X147601508Y-88101015D01*
X147544454Y-88207754D01*
X147500997Y-88351015D01*
X147490000Y-88462668D01*
X147490000Y-88462678D01*
X147486324Y-88500000D01*
X147490000Y-88537323D01*
X147490001Y-90502668D01*
X147486324Y-90540000D01*
X147490001Y-90577333D01*
X147500998Y-90688986D01*
X147508182Y-90712668D01*
X147544454Y-90832246D01*
X147615026Y-90964276D01*
X147665287Y-91025518D01*
X147710000Y-91080001D01*
X147738998Y-91103799D01*
X148268791Y-91633592D01*
X148225000Y-91853740D01*
X148225000Y-92146260D01*
X148282068Y-92433158D01*
X148394010Y-92703411D01*
X148556525Y-92946632D01*
X148763368Y-93153475D01*
X149006589Y-93315990D01*
X149047608Y-93332981D01*
X149075026Y-93384275D01*
X149169999Y-93500001D01*
X149285724Y-93594974D01*
X149417753Y-93665546D01*
X149561014Y-93709003D01*
X149710000Y-93723677D01*
X149858985Y-93709003D01*
X150002246Y-93665546D01*
X150134275Y-93594974D01*
X150186946Y-93551748D01*
X151869991Y-95234794D01*
X151869990Y-96552667D01*
X151866314Y-96589990D01*
X151869990Y-96627312D01*
X151869990Y-96627322D01*
X151880987Y-96738975D01*
X151921040Y-96871013D01*
X151924444Y-96882236D01*
X151995016Y-97014266D01*
X152010422Y-97033038D01*
X152089989Y-97129991D01*
X152118993Y-97153794D01*
X152796355Y-97831157D01*
X152775000Y-97938514D01*
X152775000Y-98201486D01*
X152826304Y-98459405D01*
X152926939Y-98702359D01*
X153073038Y-98921013D01*
X153258987Y-99106962D01*
X153477641Y-99253061D01*
X153720595Y-99353696D01*
X153978514Y-99405000D01*
X154241486Y-99405000D01*
X154499405Y-99353696D01*
X154742359Y-99253061D01*
X154961013Y-99106962D01*
X155146962Y-98921013D01*
X155293061Y-98702359D01*
X155331638Y-98609226D01*
X155482905Y-98710299D01*
X155762257Y-98826011D01*
X156058816Y-98885000D01*
X156361184Y-98885000D01*
X156657743Y-98826011D01*
X156937095Y-98710299D01*
X157188505Y-98542312D01*
X157254944Y-98475873D01*
X157260498Y-98494180D01*
X157319463Y-98604494D01*
X157398815Y-98701185D01*
X157495506Y-98780537D01*
X157605820Y-98839502D01*
X157725518Y-98875812D01*
X157850000Y-98888072D01*
X158464250Y-98885000D01*
X158623000Y-98726250D01*
X158623000Y-97477000D01*
X158877000Y-97477000D01*
X158877000Y-98726250D01*
X159035750Y-98885000D01*
X159650000Y-98888072D01*
X159774482Y-98875812D01*
X159894180Y-98839502D01*
X160004494Y-98780537D01*
X160101185Y-98701185D01*
X160180537Y-98604494D01*
X160239502Y-98494180D01*
X160275812Y-98374482D01*
X160288072Y-98250000D01*
X160285000Y-97635750D01*
X160126250Y-97477000D01*
X158877000Y-97477000D01*
X158623000Y-97477000D01*
X158603000Y-97477000D01*
X158603000Y-97223000D01*
X158623000Y-97223000D01*
X158623000Y-95973750D01*
X158877000Y-95973750D01*
X158877000Y-97223000D01*
X160126250Y-97223000D01*
X160285000Y-97064250D01*
X160288072Y-96450000D01*
X160275812Y-96325518D01*
X160239502Y-96205820D01*
X160180537Y-96095506D01*
X160101185Y-95998815D01*
X160004494Y-95919463D01*
X159894180Y-95860498D01*
X159774482Y-95824188D01*
X159650000Y-95811928D01*
X159035750Y-95815000D01*
X158877000Y-95973750D01*
X158623000Y-95973750D01*
X158464250Y-95815000D01*
X157850000Y-95811928D01*
X157725518Y-95824188D01*
X157605820Y-95860498D01*
X157495506Y-95919463D01*
X157398815Y-95998815D01*
X157319463Y-96095506D01*
X157260498Y-96205820D01*
X157254944Y-96224127D01*
X157188505Y-96157688D01*
X156970000Y-96011687D01*
X156970000Y-94907325D01*
X156973676Y-94870000D01*
X156970000Y-94832675D01*
X156970000Y-94832667D01*
X156959003Y-94721014D01*
X156915546Y-94577753D01*
X156844974Y-94445724D01*
X156750001Y-94329999D01*
X156720998Y-94306197D01*
X156353804Y-93939003D01*
X156330001Y-93909999D01*
X156214276Y-93815026D01*
X156082247Y-93744454D01*
X155938986Y-93700997D01*
X155827333Y-93690000D01*
X155827322Y-93690000D01*
X155790000Y-93686324D01*
X155752678Y-93690000D01*
X154227333Y-93690000D01*
X154190000Y-93686323D01*
X154152667Y-93690000D01*
X154041014Y-93700997D01*
X153897753Y-93744454D01*
X153765724Y-93815026D01*
X153649999Y-93909999D01*
X153626196Y-93939003D01*
X153418998Y-94146201D01*
X153390000Y-94169999D01*
X153366202Y-94198997D01*
X153366201Y-94198998D01*
X153295026Y-94285724D01*
X153224454Y-94417754D01*
X153218120Y-94438634D01*
X153193789Y-94408986D01*
X153193785Y-94408982D01*
X153169991Y-94379989D01*
X153140998Y-94356195D01*
X152272874Y-93488072D01*
X153100000Y-93488072D01*
X153224482Y-93475812D01*
X153344180Y-93439502D01*
X153454494Y-93380537D01*
X153551185Y-93301185D01*
X153630537Y-93204494D01*
X153689502Y-93094180D01*
X153725812Y-92974482D01*
X153738072Y-92850000D01*
X153738072Y-92810507D01*
X156793669Y-92810507D01*
X156832761Y-93036404D01*
X156915172Y-93250334D01*
X157037736Y-93444076D01*
X157195742Y-93610184D01*
X157383118Y-93742275D01*
X157592663Y-93835272D01*
X157654190Y-93843964D01*
X157833000Y-93718163D01*
X157833000Y-92627000D01*
X156953402Y-92627000D01*
X156793669Y-92810507D01*
X153738072Y-92810507D01*
X153738072Y-92189493D01*
X156793669Y-92189493D01*
X156953402Y-92373000D01*
X157833000Y-92373000D01*
X157833000Y-91281837D01*
X157654190Y-91156036D01*
X157592663Y-91164728D01*
X157383118Y-91257725D01*
X157195742Y-91389816D01*
X157037736Y-91555924D01*
X156915172Y-91749666D01*
X156832761Y-91963596D01*
X156793669Y-92189493D01*
X153738072Y-92189493D01*
X153738072Y-91150000D01*
X153725812Y-91025518D01*
X153689502Y-90905820D01*
X153630537Y-90795506D01*
X153551185Y-90698815D01*
X153454958Y-90619844D01*
X154064802Y-90010000D01*
X157935199Y-90010000D01*
X158470001Y-90544803D01*
X158470001Y-91228043D01*
X158327337Y-91164728D01*
X158265810Y-91156036D01*
X158087000Y-91281837D01*
X158087000Y-92046891D01*
X158086785Y-92047600D01*
X158070000Y-92218021D01*
X158070000Y-92781978D01*
X158086785Y-92952399D01*
X158087000Y-92953108D01*
X158087000Y-93718163D01*
X158265810Y-93843964D01*
X158327337Y-93835272D01*
X158470000Y-93771957D01*
X158470000Y-93922677D01*
X158466324Y-93960000D01*
X158470000Y-93997322D01*
X158470000Y-93997332D01*
X158480997Y-94108985D01*
X158523773Y-94250000D01*
X158524454Y-94252246D01*
X158595026Y-94384276D01*
X158622500Y-94417753D01*
X158689999Y-94500001D01*
X158719002Y-94523804D01*
X159716201Y-95521003D01*
X159739999Y-95550001D01*
X159855724Y-95644974D01*
X159987753Y-95715546D01*
X160131014Y-95759003D01*
X160242667Y-95770000D01*
X160242676Y-95770000D01*
X160279999Y-95773676D01*
X160317322Y-95770000D01*
X161432678Y-95770000D01*
X161470000Y-95773676D01*
X161507322Y-95770000D01*
X161507333Y-95770000D01*
X161618986Y-95759003D01*
X161762247Y-95715546D01*
X161894276Y-95644974D01*
X162010001Y-95550001D01*
X162033804Y-95520997D01*
X162427800Y-95127002D01*
X162500625Y-95127002D01*
X162377284Y-95333329D01*
X162409953Y-95441044D01*
X162520208Y-95678392D01*
X162674649Y-95889670D01*
X162867340Y-96066759D01*
X163090877Y-96202853D01*
X163336670Y-96292722D01*
X163543000Y-96170201D01*
X163543000Y-95127000D01*
X163797000Y-95127000D01*
X163797000Y-96170201D01*
X164003330Y-96292722D01*
X164249123Y-96202853D01*
X164472660Y-96066759D01*
X164665351Y-95889670D01*
X164819792Y-95678392D01*
X164930047Y-95441044D01*
X164962716Y-95333329D01*
X164839374Y-95127000D01*
X163797000Y-95127000D01*
X163543000Y-95127000D01*
X163523000Y-95127000D01*
X163523000Y-94873000D01*
X163543000Y-94873000D01*
X163543000Y-94853000D01*
X163797000Y-94853000D01*
X163797000Y-94873000D01*
X164839374Y-94873000D01*
X164962716Y-94666671D01*
X164930047Y-94558956D01*
X164925887Y-94550000D01*
X167491403Y-94550000D01*
X167466304Y-94610595D01*
X167415000Y-94868514D01*
X167415000Y-95131486D01*
X167466304Y-95389405D01*
X167566939Y-95632359D01*
X167713038Y-95851013D01*
X167898987Y-96036962D01*
X168117641Y-96183061D01*
X168360595Y-96283696D01*
X168618514Y-96335000D01*
X168881486Y-96335000D01*
X169139405Y-96283696D01*
X169382359Y-96183061D01*
X169601013Y-96036962D01*
X169786962Y-95851013D01*
X169933061Y-95632359D01*
X170033696Y-95389405D01*
X170085000Y-95131486D01*
X170085000Y-94868514D01*
X170033696Y-94610595D01*
X169933061Y-94367641D01*
X169786962Y-94148987D01*
X169601013Y-93963038D01*
X169596466Y-93960000D01*
X171312678Y-93960000D01*
X171350000Y-93963676D01*
X171387322Y-93960000D01*
X171387333Y-93960000D01*
X171498986Y-93949003D01*
X171642247Y-93905546D01*
X171774276Y-93834974D01*
X171890001Y-93740001D01*
X171913804Y-93710997D01*
X173251003Y-92373799D01*
X173280001Y-92350001D01*
X173374974Y-92234276D01*
X173445546Y-92102247D01*
X173489003Y-91958986D01*
X173500000Y-91847333D01*
X173500000Y-91847323D01*
X173503676Y-91810000D01*
X173500000Y-91772677D01*
X173500000Y-80487323D01*
X173503676Y-80450000D01*
X173500000Y-80412677D01*
X173500000Y-80412667D01*
X173489003Y-80301014D01*
X173445546Y-80157753D01*
X173418426Y-80107015D01*
X173374974Y-80025723D01*
X173303799Y-79938997D01*
X173280001Y-79909999D01*
X173251004Y-79886202D01*
X171833804Y-78469003D01*
X171810001Y-78439999D01*
X171694276Y-78345026D01*
X171562247Y-78274454D01*
X171418986Y-78230997D01*
X171307333Y-78220000D01*
X171307322Y-78220000D01*
X171270000Y-78216324D01*
X171232678Y-78220000D01*
X170271958Y-78220000D01*
X170335272Y-78077337D01*
X170343964Y-78015810D01*
X170218163Y-77837000D01*
X169453109Y-77837000D01*
X169452400Y-77836785D01*
X169281979Y-77820000D01*
X168718021Y-77820000D01*
X168547600Y-77836785D01*
X168546891Y-77837000D01*
X167781837Y-77837000D01*
X167656036Y-78015810D01*
X167664728Y-78077337D01*
X167757725Y-78286882D01*
X167798929Y-78345331D01*
X167698115Y-78533940D01*
X167631785Y-78752600D01*
X167609388Y-78980000D01*
X167631785Y-79207400D01*
X167695093Y-79416098D01*
X167660498Y-79480820D01*
X167624188Y-79600518D01*
X167611928Y-79725000D01*
X167611928Y-80775000D01*
X167624188Y-80899482D01*
X167660498Y-81019180D01*
X167719463Y-81129494D01*
X167798815Y-81226185D01*
X167895506Y-81305537D01*
X168005820Y-81364502D01*
X168125518Y-81400812D01*
X168250000Y-81413072D01*
X169750000Y-81413072D01*
X169874482Y-81400812D01*
X169994180Y-81364502D01*
X170104494Y-81305537D01*
X170201185Y-81226185D01*
X170280537Y-81129494D01*
X170330751Y-81035552D01*
X170680000Y-81384802D01*
X170680001Y-85038301D01*
X170655999Y-85057999D01*
X170561026Y-85173724D01*
X170490454Y-85305753D01*
X170468687Y-85377512D01*
X169992199Y-85854000D01*
X168839506Y-85854000D01*
X168821287Y-85826733D01*
X168649267Y-85654713D01*
X168446992Y-85519557D01*
X168222236Y-85426460D01*
X167983637Y-85379000D01*
X167740363Y-85379000D01*
X167501764Y-85426460D01*
X167277008Y-85519557D01*
X167074733Y-85654713D01*
X167019499Y-85709947D01*
X166992537Y-85659506D01*
X166913185Y-85562815D01*
X166816494Y-85483463D01*
X166706180Y-85424498D01*
X166622000Y-85398962D01*
X166622000Y-80735327D01*
X166625676Y-80698002D01*
X166622000Y-80660677D01*
X166622000Y-80660669D01*
X166611003Y-80549016D01*
X166567546Y-80405755D01*
X166496974Y-80273726D01*
X166402001Y-80158001D01*
X166373003Y-80134203D01*
X163642990Y-77404190D01*
X167656036Y-77404190D01*
X167781837Y-77583000D01*
X168873000Y-77583000D01*
X168873000Y-76703402D01*
X169127000Y-76703402D01*
X169127000Y-77583000D01*
X170218163Y-77583000D01*
X170343964Y-77404190D01*
X170335272Y-77342663D01*
X170242275Y-77133118D01*
X170110184Y-76945742D01*
X169944076Y-76787736D01*
X169750334Y-76665172D01*
X169536404Y-76582761D01*
X169310507Y-76543669D01*
X169127000Y-76703402D01*
X168873000Y-76703402D01*
X168689493Y-76543669D01*
X168463596Y-76582761D01*
X168249666Y-76665172D01*
X168055924Y-76787736D01*
X167889816Y-76945742D01*
X167757725Y-77133118D01*
X167664728Y-77342663D01*
X167656036Y-77404190D01*
X163642990Y-77404190D01*
X163173491Y-76934692D01*
X163290269Y-76847588D01*
X163485178Y-76631355D01*
X163634157Y-76381252D01*
X163731481Y-76106891D01*
X163610814Y-75877000D01*
X162417000Y-75877000D01*
X162417000Y-75897000D01*
X162163000Y-75897000D01*
X162163000Y-75877000D01*
X162143000Y-75877000D01*
X162143000Y-75623000D01*
X162163000Y-75623000D01*
X162163000Y-74429845D01*
X162417000Y-74429845D01*
X162417000Y-75623000D01*
X163610814Y-75623000D01*
X163731481Y-75393109D01*
X163634157Y-75118748D01*
X163485178Y-74868645D01*
X163290269Y-74652412D01*
X163056920Y-74478359D01*
X162794099Y-74353175D01*
X162646890Y-74308524D01*
X162417000Y-74429845D01*
X162163000Y-74429845D01*
X161933110Y-74308524D01*
X161785901Y-74353175D01*
X161651597Y-74417145D01*
X161630547Y-74347752D01*
X161559975Y-74215723D01*
X161531476Y-74180997D01*
X161488800Y-74128995D01*
X161488796Y-74128991D01*
X161465002Y-74099998D01*
X161436009Y-74076204D01*
X160758805Y-73399002D01*
X160735003Y-73369999D01*
X160619278Y-73275026D01*
X160487249Y-73204454D01*
X160343988Y-73160997D01*
X160232335Y-73150000D01*
X160232324Y-73150000D01*
X160195002Y-73146324D01*
X160157680Y-73150000D01*
X154473323Y-73150000D01*
X154436000Y-73146324D01*
X154398677Y-73150000D01*
X154398667Y-73150000D01*
X154287014Y-73160997D01*
X154143753Y-73204454D01*
X154011724Y-73275026D01*
X153895999Y-73369999D01*
X153872201Y-73398997D01*
X152905002Y-74366196D01*
X152875999Y-74389999D01*
X152826757Y-74450001D01*
X152781026Y-74505724D01*
X152759762Y-74545506D01*
X152710454Y-74637754D01*
X152666997Y-74781015D01*
X152656000Y-74892668D01*
X152656000Y-74892678D01*
X152652324Y-74930000D01*
X152656000Y-74967323D01*
X152656001Y-78312076D01*
X151785750Y-78315000D01*
X151627000Y-78473750D01*
X151627000Y-79623000D01*
X151647000Y-79623000D01*
X151647000Y-79877000D01*
X151627000Y-79877000D01*
X151627000Y-79897000D01*
X151373000Y-79897000D01*
X151373000Y-79877000D01*
X149823750Y-79877000D01*
X149665000Y-80035750D01*
X149663780Y-80240000D01*
X149037322Y-80240000D01*
X148999999Y-80236324D01*
X148962676Y-80240000D01*
X148962667Y-80240000D01*
X148851014Y-80250997D01*
X148711449Y-80293333D01*
X148707753Y-80294454D01*
X148575723Y-80365026D01*
X148498690Y-80428246D01*
X148459999Y-80459999D01*
X148436201Y-80488997D01*
X148205606Y-80719592D01*
X148199395Y-80681451D01*
X148114202Y-80453582D01*
X148073348Y-80377148D01*
X147849764Y-80329841D01*
X147179605Y-81000000D01*
X147193748Y-81014143D01*
X147014143Y-81193748D01*
X147000000Y-81179605D01*
X146985858Y-81193748D01*
X146806253Y-81014143D01*
X146820395Y-81000000D01*
X146150236Y-80329841D01*
X145926652Y-80377148D01*
X145825763Y-80598516D01*
X145770000Y-80835313D01*
X145761505Y-81078438D01*
X145800605Y-81318549D01*
X145885798Y-81546418D01*
X145926652Y-81622852D01*
X146150234Y-81670158D01*
X146033128Y-81787264D01*
X146091006Y-81845142D01*
X146045506Y-81869463D01*
X145948815Y-81948815D01*
X145869463Y-82045506D01*
X145810498Y-82155820D01*
X145784962Y-82240000D01*
X145037322Y-82240000D01*
X144999999Y-82236324D01*
X144962676Y-82240000D01*
X144962667Y-82240000D01*
X144851014Y-82250997D01*
X144760000Y-82278605D01*
X144760000Y-80150236D01*
X146329841Y-80150236D01*
X147000000Y-80820395D01*
X147670159Y-80150236D01*
X147622852Y-79926652D01*
X147401484Y-79825763D01*
X147164687Y-79770000D01*
X146921562Y-79761505D01*
X146681451Y-79800605D01*
X146453582Y-79885798D01*
X146377148Y-79926652D01*
X146329841Y-80150236D01*
X144760000Y-80150236D01*
X144760000Y-80064801D01*
X145836730Y-78988072D01*
X146600000Y-78988072D01*
X146724482Y-78975812D01*
X146844180Y-78939502D01*
X146954494Y-78880537D01*
X147051185Y-78801185D01*
X147130537Y-78704494D01*
X147154858Y-78658994D01*
X147212736Y-78716872D01*
X147329842Y-78599766D01*
X147377148Y-78823348D01*
X147598516Y-78924237D01*
X147835313Y-78980000D01*
X148078438Y-78988495D01*
X148314833Y-78950000D01*
X149661928Y-78950000D01*
X149665000Y-79464250D01*
X149823750Y-79623000D01*
X151373000Y-79623000D01*
X151373000Y-78473750D01*
X151214250Y-78315000D01*
X150300000Y-78311928D01*
X150175518Y-78324188D01*
X150055820Y-78360498D01*
X149945506Y-78419463D01*
X149848815Y-78498815D01*
X149769463Y-78595506D01*
X149710498Y-78705820D01*
X149674188Y-78825518D01*
X149661928Y-78950000D01*
X148314833Y-78950000D01*
X148318549Y-78949395D01*
X148546418Y-78864202D01*
X148622852Y-78823348D01*
X148670159Y-78599764D01*
X148000000Y-77929605D01*
X147985858Y-77943748D01*
X147806253Y-77764143D01*
X147820395Y-77750000D01*
X148179605Y-77750000D01*
X148849764Y-78420159D01*
X149073348Y-78372852D01*
X149174237Y-78151484D01*
X149230000Y-77914687D01*
X149238495Y-77671562D01*
X149199395Y-77431451D01*
X149114202Y-77203582D01*
X149073348Y-77127148D01*
X148849764Y-77079841D01*
X148179605Y-77750000D01*
X147820395Y-77750000D01*
X147806253Y-77735858D01*
X147985858Y-77556253D01*
X148000000Y-77570395D01*
X148670159Y-76900236D01*
X148622852Y-76676652D01*
X148401484Y-76575763D01*
X148164687Y-76520000D01*
X147921562Y-76511505D01*
X147681451Y-76550605D01*
X147453582Y-76635798D01*
X147377148Y-76676652D01*
X147329842Y-76900234D01*
X147212736Y-76783128D01*
X147154858Y-76841006D01*
X147130537Y-76795506D01*
X147051185Y-76698815D01*
X146954494Y-76619463D01*
X146844180Y-76560498D01*
X146724482Y-76524188D01*
X146600000Y-76511928D01*
X145400000Y-76511928D01*
X145275518Y-76524188D01*
X145155820Y-76560498D01*
X145045506Y-76619463D01*
X144948815Y-76698815D01*
X144869463Y-76795506D01*
X144810498Y-76905820D01*
X144774188Y-77025518D01*
X144761928Y-77150000D01*
X144761928Y-77913270D01*
X143489003Y-79186196D01*
X143459999Y-79209999D01*
X143408915Y-79272246D01*
X143365026Y-79325724D01*
X143340118Y-79372323D01*
X143294454Y-79457754D01*
X143250997Y-79601015D01*
X143240000Y-79712668D01*
X143240000Y-79712678D01*
X143236324Y-79750000D01*
X143240000Y-79787322D01*
X143240001Y-97616014D01*
X143234902Y-97615000D01*
X142765098Y-97615000D01*
X142304321Y-97706654D01*
X141870279Y-97886440D01*
X141660000Y-98026944D01*
X141660000Y-75973056D01*
X141870279Y-76113560D01*
X142304321Y-76293346D01*
X142765098Y-76385000D01*
X143234902Y-76385000D01*
X143695679Y-76293346D01*
X144129721Y-76113560D01*
X144520349Y-75852550D01*
X144852550Y-75520349D01*
X145113560Y-75129721D01*
X145293346Y-74695679D01*
X145385000Y-74234902D01*
X145385000Y-73765098D01*
X145293346Y-73304321D01*
X145113560Y-72870279D01*
X144973056Y-72660000D01*
X172026944Y-72660000D01*
X171886440Y-72870279D01*
G37*
%TD.AperFunction*%
%TD*%
M02*
