%TF.GenerationSoftware,KiCad,Pcbnew,(5.1.12)-1*%
%TF.CreationDate,2023-08-26T19:40:57+05:30*%
%TF.ProjectId,clap switch,636c6170-2073-4776-9974-63682e6b6963,rev?*%
%TF.SameCoordinates,Original*%
%TF.FileFunction,Legend,Top*%
%TF.FilePolarity,Positive*%
%FSLAX46Y46*%
G04 Gerber Fmt 4.6, Leading zero omitted, Abs format (unit mm)*
G04 Created by KiCad (PCBNEW (5.1.12)-1) date 2023-08-26 19:40:57*
%MOMM*%
%LPD*%
G01*
G04 APERTURE LIST*
%ADD10C,0.120000*%
%ADD11C,0.150000*%
G04 APERTURE END LIST*
D10*
%TO.C,6V1*%
X161020000Y-77080000D02*
X161020000Y-74420000D01*
X161020000Y-77080000D02*
X163620000Y-77080000D01*
X163620000Y-77080000D02*
X163620000Y-74420000D01*
X161020000Y-74420000D02*
X163620000Y-74420000D01*
X158420000Y-74420000D02*
X159750000Y-74420000D01*
X158420000Y-75750000D02*
X158420000Y-74420000D01*
%TO.C,D1*%
X159040000Y-98586000D02*
X159040000Y-98430000D01*
X159040000Y-96270000D02*
X159040000Y-96114000D01*
X156438870Y-96270163D02*
G75*
G02*
X158520961Y-96270000I1041130J-1079837D01*
G01*
X156438870Y-98429837D02*
G75*
G03*
X158520961Y-98430000I1041130J1079837D01*
G01*
X155807665Y-96271392D02*
G75*
G02*
X159040000Y-96114484I1672335J-1078608D01*
G01*
X155807665Y-98428608D02*
G75*
G03*
X159040000Y-98585516I1672335J1078608D01*
G01*
%TO.C,U1*%
X154310000Y-78420000D02*
X153060000Y-78420000D01*
X153060000Y-78420000D02*
X153060000Y-88700000D01*
X153060000Y-88700000D02*
X157560000Y-88700000D01*
X157560000Y-88700000D02*
X157560000Y-78420000D01*
X157560000Y-78420000D02*
X156310000Y-78420000D01*
X156310000Y-78420000D02*
G75*
G02*
X154310000Y-78420000I-1000000J0D01*
G01*
%TO.C,MK1*%
X150980000Y-90670000D02*
X150980000Y-93330000D01*
X150980000Y-90670000D02*
X148380000Y-90670000D01*
X148380000Y-90670000D02*
X148380000Y-93330000D01*
X150980000Y-93330000D02*
X148380000Y-93330000D01*
X153580000Y-93330000D02*
X152250000Y-93330000D01*
X153580000Y-92000000D02*
X153580000Y-93330000D01*
%TO.C,Q2*%
X170850000Y-80780000D02*
X170850000Y-77180000D01*
X170838478Y-77141522D02*
G75*
G03*
X166400000Y-78980000I-1838478J-1838478D01*
G01*
X170838478Y-80818478D02*
G75*
G02*
X166400000Y-78980000I-1838478J1838478D01*
G01*
%TO.C,R5*%
X168130000Y-95920000D02*
X164290000Y-95920000D01*
X168130000Y-94080000D02*
X164290000Y-94080000D01*
%TO.C,R4*%
X163988000Y-81900000D02*
X163988000Y-85740000D01*
X162148000Y-81900000D02*
X162148000Y-85740000D01*
%TO.C,R3*%
X164370000Y-91080000D02*
X168210000Y-91080000D01*
X164370000Y-92920000D02*
X168210000Y-92920000D01*
%TO.C,R2*%
X153490000Y-98990000D02*
X149650000Y-98990000D01*
X153490000Y-97150000D02*
X149650000Y-97150000D01*
%TO.C,R1*%
X149470000Y-94850000D02*
X153310000Y-94850000D01*
X149470000Y-96690000D02*
X153310000Y-96690000D01*
%TO.C,Q1*%
X161030000Y-90650000D02*
X157430000Y-90650000D01*
X157391522Y-90661522D02*
G75*
G03*
X159230000Y-95100000I1838478J-1838478D01*
G01*
X161068478Y-90661522D02*
G75*
G02*
X159230000Y-95100000I-1838478J-1838478D01*
G01*
%TO.C,C3*%
X168982000Y-86614000D02*
G75*
G03*
X168982000Y-86614000I-2120000J0D01*
G01*
X166862000Y-84534000D02*
X166862000Y-88694000D01*
X166902000Y-84534000D02*
X166902000Y-88694000D01*
X166942000Y-84535000D02*
X166942000Y-88693000D01*
X166982000Y-84537000D02*
X166982000Y-88691000D01*
X167022000Y-84540000D02*
X167022000Y-88688000D01*
X167062000Y-84543000D02*
X167062000Y-85774000D01*
X167062000Y-87454000D02*
X167062000Y-88685000D01*
X167102000Y-84547000D02*
X167102000Y-85774000D01*
X167102000Y-87454000D02*
X167102000Y-88681000D01*
X167142000Y-84552000D02*
X167142000Y-85774000D01*
X167142000Y-87454000D02*
X167142000Y-88676000D01*
X167182000Y-84558000D02*
X167182000Y-85774000D01*
X167182000Y-87454000D02*
X167182000Y-88670000D01*
X167222000Y-84564000D02*
X167222000Y-85774000D01*
X167222000Y-87454000D02*
X167222000Y-88664000D01*
X167262000Y-84572000D02*
X167262000Y-85774000D01*
X167262000Y-87454000D02*
X167262000Y-88656000D01*
X167302000Y-84580000D02*
X167302000Y-85774000D01*
X167302000Y-87454000D02*
X167302000Y-88648000D01*
X167342000Y-84589000D02*
X167342000Y-85774000D01*
X167342000Y-87454000D02*
X167342000Y-88639000D01*
X167382000Y-84598000D02*
X167382000Y-85774000D01*
X167382000Y-87454000D02*
X167382000Y-88630000D01*
X167422000Y-84609000D02*
X167422000Y-85774000D01*
X167422000Y-87454000D02*
X167422000Y-88619000D01*
X167462000Y-84620000D02*
X167462000Y-85774000D01*
X167462000Y-87454000D02*
X167462000Y-88608000D01*
X167502000Y-84632000D02*
X167502000Y-85774000D01*
X167502000Y-87454000D02*
X167502000Y-88596000D01*
X167542000Y-84646000D02*
X167542000Y-85774000D01*
X167542000Y-87454000D02*
X167542000Y-88582000D01*
X167583000Y-84660000D02*
X167583000Y-85774000D01*
X167583000Y-87454000D02*
X167583000Y-88568000D01*
X167623000Y-84674000D02*
X167623000Y-85774000D01*
X167623000Y-87454000D02*
X167623000Y-88554000D01*
X167663000Y-84690000D02*
X167663000Y-85774000D01*
X167663000Y-87454000D02*
X167663000Y-88538000D01*
X167703000Y-84707000D02*
X167703000Y-85774000D01*
X167703000Y-87454000D02*
X167703000Y-88521000D01*
X167743000Y-84725000D02*
X167743000Y-85774000D01*
X167743000Y-87454000D02*
X167743000Y-88503000D01*
X167783000Y-84744000D02*
X167783000Y-85774000D01*
X167783000Y-87454000D02*
X167783000Y-88484000D01*
X167823000Y-84763000D02*
X167823000Y-85774000D01*
X167823000Y-87454000D02*
X167823000Y-88465000D01*
X167863000Y-84784000D02*
X167863000Y-85774000D01*
X167863000Y-87454000D02*
X167863000Y-88444000D01*
X167903000Y-84806000D02*
X167903000Y-85774000D01*
X167903000Y-87454000D02*
X167903000Y-88422000D01*
X167943000Y-84829000D02*
X167943000Y-85774000D01*
X167943000Y-87454000D02*
X167943000Y-88399000D01*
X167983000Y-84854000D02*
X167983000Y-85774000D01*
X167983000Y-87454000D02*
X167983000Y-88374000D01*
X168023000Y-84879000D02*
X168023000Y-85774000D01*
X168023000Y-87454000D02*
X168023000Y-88349000D01*
X168063000Y-84906000D02*
X168063000Y-85774000D01*
X168063000Y-87454000D02*
X168063000Y-88322000D01*
X168103000Y-84934000D02*
X168103000Y-85774000D01*
X168103000Y-87454000D02*
X168103000Y-88294000D01*
X168143000Y-84964000D02*
X168143000Y-85774000D01*
X168143000Y-87454000D02*
X168143000Y-88264000D01*
X168183000Y-84995000D02*
X168183000Y-85774000D01*
X168183000Y-87454000D02*
X168183000Y-88233000D01*
X168223000Y-85027000D02*
X168223000Y-85774000D01*
X168223000Y-87454000D02*
X168223000Y-88201000D01*
X168263000Y-85062000D02*
X168263000Y-85774000D01*
X168263000Y-87454000D02*
X168263000Y-88166000D01*
X168303000Y-85098000D02*
X168303000Y-85774000D01*
X168303000Y-87454000D02*
X168303000Y-88130000D01*
X168343000Y-85136000D02*
X168343000Y-85774000D01*
X168343000Y-87454000D02*
X168343000Y-88092000D01*
X168383000Y-85176000D02*
X168383000Y-85774000D01*
X168383000Y-87454000D02*
X168383000Y-88052000D01*
X168423000Y-85218000D02*
X168423000Y-85774000D01*
X168423000Y-87454000D02*
X168423000Y-88010000D01*
X168463000Y-85263000D02*
X168463000Y-85774000D01*
X168463000Y-87454000D02*
X168463000Y-87965000D01*
X168503000Y-85310000D02*
X168503000Y-85774000D01*
X168503000Y-87454000D02*
X168503000Y-87918000D01*
X168543000Y-85360000D02*
X168543000Y-85774000D01*
X168543000Y-87454000D02*
X168543000Y-87868000D01*
X168583000Y-85414000D02*
X168583000Y-85774000D01*
X168583000Y-87454000D02*
X168583000Y-87814000D01*
X168623000Y-85472000D02*
X168623000Y-85774000D01*
X168623000Y-87454000D02*
X168623000Y-87756000D01*
X168663000Y-85534000D02*
X168663000Y-85774000D01*
X168663000Y-87454000D02*
X168663000Y-87694000D01*
X168703000Y-85601000D02*
X168703000Y-87627000D01*
X168743000Y-85674000D02*
X168743000Y-87554000D01*
X168783000Y-85755000D02*
X168783000Y-87473000D01*
X168823000Y-85846000D02*
X168823000Y-87382000D01*
X168863000Y-85950000D02*
X168863000Y-87278000D01*
X168903000Y-86077000D02*
X168903000Y-87151000D01*
X168943000Y-86244000D02*
X168943000Y-86984000D01*
X164592199Y-85419000D02*
X164992199Y-85419000D01*
X164792199Y-85219000D02*
X164792199Y-85619000D01*
%TO.C,C2*%
X149120000Y-82000000D02*
G75*
G03*
X149120000Y-82000000I-2120000J0D01*
G01*
X144920000Y-82000000D02*
X149080000Y-82000000D01*
X144920000Y-81960000D02*
X149080000Y-81960000D01*
X144921000Y-81920000D02*
X149079000Y-81920000D01*
X144923000Y-81880000D02*
X149077000Y-81880000D01*
X144926000Y-81840000D02*
X149074000Y-81840000D01*
X144929000Y-81800000D02*
X146160000Y-81800000D01*
X147840000Y-81800000D02*
X149071000Y-81800000D01*
X144933000Y-81760000D02*
X146160000Y-81760000D01*
X147840000Y-81760000D02*
X149067000Y-81760000D01*
X144938000Y-81720000D02*
X146160000Y-81720000D01*
X147840000Y-81720000D02*
X149062000Y-81720000D01*
X144944000Y-81680000D02*
X146160000Y-81680000D01*
X147840000Y-81680000D02*
X149056000Y-81680000D01*
X144950000Y-81640000D02*
X146160000Y-81640000D01*
X147840000Y-81640000D02*
X149050000Y-81640000D01*
X144958000Y-81600000D02*
X146160000Y-81600000D01*
X147840000Y-81600000D02*
X149042000Y-81600000D01*
X144966000Y-81560000D02*
X146160000Y-81560000D01*
X147840000Y-81560000D02*
X149034000Y-81560000D01*
X144975000Y-81520000D02*
X146160000Y-81520000D01*
X147840000Y-81520000D02*
X149025000Y-81520000D01*
X144984000Y-81480000D02*
X146160000Y-81480000D01*
X147840000Y-81480000D02*
X149016000Y-81480000D01*
X144995000Y-81440000D02*
X146160000Y-81440000D01*
X147840000Y-81440000D02*
X149005000Y-81440000D01*
X145006000Y-81400000D02*
X146160000Y-81400000D01*
X147840000Y-81400000D02*
X148994000Y-81400000D01*
X145018000Y-81360000D02*
X146160000Y-81360000D01*
X147840000Y-81360000D02*
X148982000Y-81360000D01*
X145032000Y-81320000D02*
X146160000Y-81320000D01*
X147840000Y-81320000D02*
X148968000Y-81320000D01*
X145046000Y-81279000D02*
X146160000Y-81279000D01*
X147840000Y-81279000D02*
X148954000Y-81279000D01*
X145060000Y-81239000D02*
X146160000Y-81239000D01*
X147840000Y-81239000D02*
X148940000Y-81239000D01*
X145076000Y-81199000D02*
X146160000Y-81199000D01*
X147840000Y-81199000D02*
X148924000Y-81199000D01*
X145093000Y-81159000D02*
X146160000Y-81159000D01*
X147840000Y-81159000D02*
X148907000Y-81159000D01*
X145111000Y-81119000D02*
X146160000Y-81119000D01*
X147840000Y-81119000D02*
X148889000Y-81119000D01*
X145130000Y-81079000D02*
X146160000Y-81079000D01*
X147840000Y-81079000D02*
X148870000Y-81079000D01*
X145149000Y-81039000D02*
X146160000Y-81039000D01*
X147840000Y-81039000D02*
X148851000Y-81039000D01*
X145170000Y-80999000D02*
X146160000Y-80999000D01*
X147840000Y-80999000D02*
X148830000Y-80999000D01*
X145192000Y-80959000D02*
X146160000Y-80959000D01*
X147840000Y-80959000D02*
X148808000Y-80959000D01*
X145215000Y-80919000D02*
X146160000Y-80919000D01*
X147840000Y-80919000D02*
X148785000Y-80919000D01*
X145240000Y-80879000D02*
X146160000Y-80879000D01*
X147840000Y-80879000D02*
X148760000Y-80879000D01*
X145265000Y-80839000D02*
X146160000Y-80839000D01*
X147840000Y-80839000D02*
X148735000Y-80839000D01*
X145292000Y-80799000D02*
X146160000Y-80799000D01*
X147840000Y-80799000D02*
X148708000Y-80799000D01*
X145320000Y-80759000D02*
X146160000Y-80759000D01*
X147840000Y-80759000D02*
X148680000Y-80759000D01*
X145350000Y-80719000D02*
X146160000Y-80719000D01*
X147840000Y-80719000D02*
X148650000Y-80719000D01*
X145381000Y-80679000D02*
X146160000Y-80679000D01*
X147840000Y-80679000D02*
X148619000Y-80679000D01*
X145413000Y-80639000D02*
X146160000Y-80639000D01*
X147840000Y-80639000D02*
X148587000Y-80639000D01*
X145448000Y-80599000D02*
X146160000Y-80599000D01*
X147840000Y-80599000D02*
X148552000Y-80599000D01*
X145484000Y-80559000D02*
X146160000Y-80559000D01*
X147840000Y-80559000D02*
X148516000Y-80559000D01*
X145522000Y-80519000D02*
X146160000Y-80519000D01*
X147840000Y-80519000D02*
X148478000Y-80519000D01*
X145562000Y-80479000D02*
X146160000Y-80479000D01*
X147840000Y-80479000D02*
X148438000Y-80479000D01*
X145604000Y-80439000D02*
X146160000Y-80439000D01*
X147840000Y-80439000D02*
X148396000Y-80439000D01*
X145649000Y-80399000D02*
X146160000Y-80399000D01*
X147840000Y-80399000D02*
X148351000Y-80399000D01*
X145696000Y-80359000D02*
X146160000Y-80359000D01*
X147840000Y-80359000D02*
X148304000Y-80359000D01*
X145746000Y-80319000D02*
X146160000Y-80319000D01*
X147840000Y-80319000D02*
X148254000Y-80319000D01*
X145800000Y-80279000D02*
X146160000Y-80279000D01*
X147840000Y-80279000D02*
X148200000Y-80279000D01*
X145858000Y-80239000D02*
X146160000Y-80239000D01*
X147840000Y-80239000D02*
X148142000Y-80239000D01*
X145920000Y-80199000D02*
X146160000Y-80199000D01*
X147840000Y-80199000D02*
X148080000Y-80199000D01*
X145987000Y-80159000D02*
X148013000Y-80159000D01*
X146060000Y-80119000D02*
X147940000Y-80119000D01*
X146141000Y-80079000D02*
X147859000Y-80079000D01*
X146232000Y-80039000D02*
X147768000Y-80039000D01*
X146336000Y-79999000D02*
X147664000Y-79999000D01*
X146463000Y-79959000D02*
X147537000Y-79959000D01*
X146630000Y-79919000D02*
X147370000Y-79919000D01*
X145805000Y-84269801D02*
X145805000Y-83869801D01*
X145605000Y-84069801D02*
X146005000Y-84069801D01*
%TO.C,C1*%
X149120000Y-77750000D02*
G75*
G03*
X149120000Y-77750000I-2120000J0D01*
G01*
X147000000Y-75670000D02*
X147000000Y-79830000D01*
X147040000Y-75670000D02*
X147040000Y-79830000D01*
X147080000Y-75671000D02*
X147080000Y-79829000D01*
X147120000Y-75673000D02*
X147120000Y-79827000D01*
X147160000Y-75676000D02*
X147160000Y-79824000D01*
X147200000Y-75679000D02*
X147200000Y-76910000D01*
X147200000Y-78590000D02*
X147200000Y-79821000D01*
X147240000Y-75683000D02*
X147240000Y-76910000D01*
X147240000Y-78590000D02*
X147240000Y-79817000D01*
X147280000Y-75688000D02*
X147280000Y-76910000D01*
X147280000Y-78590000D02*
X147280000Y-79812000D01*
X147320000Y-75694000D02*
X147320000Y-76910000D01*
X147320000Y-78590000D02*
X147320000Y-79806000D01*
X147360000Y-75700000D02*
X147360000Y-76910000D01*
X147360000Y-78590000D02*
X147360000Y-79800000D01*
X147400000Y-75708000D02*
X147400000Y-76910000D01*
X147400000Y-78590000D02*
X147400000Y-79792000D01*
X147440000Y-75716000D02*
X147440000Y-76910000D01*
X147440000Y-78590000D02*
X147440000Y-79784000D01*
X147480000Y-75725000D02*
X147480000Y-76910000D01*
X147480000Y-78590000D02*
X147480000Y-79775000D01*
X147520000Y-75734000D02*
X147520000Y-76910000D01*
X147520000Y-78590000D02*
X147520000Y-79766000D01*
X147560000Y-75745000D02*
X147560000Y-76910000D01*
X147560000Y-78590000D02*
X147560000Y-79755000D01*
X147600000Y-75756000D02*
X147600000Y-76910000D01*
X147600000Y-78590000D02*
X147600000Y-79744000D01*
X147640000Y-75768000D02*
X147640000Y-76910000D01*
X147640000Y-78590000D02*
X147640000Y-79732000D01*
X147680000Y-75782000D02*
X147680000Y-76910000D01*
X147680000Y-78590000D02*
X147680000Y-79718000D01*
X147721000Y-75796000D02*
X147721000Y-76910000D01*
X147721000Y-78590000D02*
X147721000Y-79704000D01*
X147761000Y-75810000D02*
X147761000Y-76910000D01*
X147761000Y-78590000D02*
X147761000Y-79690000D01*
X147801000Y-75826000D02*
X147801000Y-76910000D01*
X147801000Y-78590000D02*
X147801000Y-79674000D01*
X147841000Y-75843000D02*
X147841000Y-76910000D01*
X147841000Y-78590000D02*
X147841000Y-79657000D01*
X147881000Y-75861000D02*
X147881000Y-76910000D01*
X147881000Y-78590000D02*
X147881000Y-79639000D01*
X147921000Y-75880000D02*
X147921000Y-76910000D01*
X147921000Y-78590000D02*
X147921000Y-79620000D01*
X147961000Y-75899000D02*
X147961000Y-76910000D01*
X147961000Y-78590000D02*
X147961000Y-79601000D01*
X148001000Y-75920000D02*
X148001000Y-76910000D01*
X148001000Y-78590000D02*
X148001000Y-79580000D01*
X148041000Y-75942000D02*
X148041000Y-76910000D01*
X148041000Y-78590000D02*
X148041000Y-79558000D01*
X148081000Y-75965000D02*
X148081000Y-76910000D01*
X148081000Y-78590000D02*
X148081000Y-79535000D01*
X148121000Y-75990000D02*
X148121000Y-76910000D01*
X148121000Y-78590000D02*
X148121000Y-79510000D01*
X148161000Y-76015000D02*
X148161000Y-76910000D01*
X148161000Y-78590000D02*
X148161000Y-79485000D01*
X148201000Y-76042000D02*
X148201000Y-76910000D01*
X148201000Y-78590000D02*
X148201000Y-79458000D01*
X148241000Y-76070000D02*
X148241000Y-76910000D01*
X148241000Y-78590000D02*
X148241000Y-79430000D01*
X148281000Y-76100000D02*
X148281000Y-76910000D01*
X148281000Y-78590000D02*
X148281000Y-79400000D01*
X148321000Y-76131000D02*
X148321000Y-76910000D01*
X148321000Y-78590000D02*
X148321000Y-79369000D01*
X148361000Y-76163000D02*
X148361000Y-76910000D01*
X148361000Y-78590000D02*
X148361000Y-79337000D01*
X148401000Y-76198000D02*
X148401000Y-76910000D01*
X148401000Y-78590000D02*
X148401000Y-79302000D01*
X148441000Y-76234000D02*
X148441000Y-76910000D01*
X148441000Y-78590000D02*
X148441000Y-79266000D01*
X148481000Y-76272000D02*
X148481000Y-76910000D01*
X148481000Y-78590000D02*
X148481000Y-79228000D01*
X148521000Y-76312000D02*
X148521000Y-76910000D01*
X148521000Y-78590000D02*
X148521000Y-79188000D01*
X148561000Y-76354000D02*
X148561000Y-76910000D01*
X148561000Y-78590000D02*
X148561000Y-79146000D01*
X148601000Y-76399000D02*
X148601000Y-76910000D01*
X148601000Y-78590000D02*
X148601000Y-79101000D01*
X148641000Y-76446000D02*
X148641000Y-76910000D01*
X148641000Y-78590000D02*
X148641000Y-79054000D01*
X148681000Y-76496000D02*
X148681000Y-76910000D01*
X148681000Y-78590000D02*
X148681000Y-79004000D01*
X148721000Y-76550000D02*
X148721000Y-76910000D01*
X148721000Y-78590000D02*
X148721000Y-78950000D01*
X148761000Y-76608000D02*
X148761000Y-76910000D01*
X148761000Y-78590000D02*
X148761000Y-78892000D01*
X148801000Y-76670000D02*
X148801000Y-76910000D01*
X148801000Y-78590000D02*
X148801000Y-78830000D01*
X148841000Y-76737000D02*
X148841000Y-78763000D01*
X148881000Y-76810000D02*
X148881000Y-78690000D01*
X148921000Y-76891000D02*
X148921000Y-78609000D01*
X148961000Y-76982000D02*
X148961000Y-78518000D01*
X149001000Y-77086000D02*
X149001000Y-78414000D01*
X149041000Y-77213000D02*
X149041000Y-78287000D01*
X149081000Y-77380000D02*
X149081000Y-78120000D01*
X144730199Y-76555000D02*
X145130199Y-76555000D01*
X144930199Y-76355000D02*
X144930199Y-76755000D01*
%TO.C,6V1*%
D11*
X156596666Y-76250000D02*
X156596666Y-76383333D01*
X156630000Y-76450000D01*
X156663333Y-76483333D01*
X156763333Y-76550000D01*
X156896666Y-76583333D01*
X157163333Y-76583333D01*
X157230000Y-76550000D01*
X157263333Y-76516666D01*
X157296666Y-76450000D01*
X157296666Y-76316666D01*
X157263333Y-76250000D01*
X157230000Y-76216666D01*
X157163333Y-76183333D01*
X156996666Y-76183333D01*
X156930000Y-76216666D01*
X156896666Y-76250000D01*
X156863333Y-76316666D01*
X156863333Y-76450000D01*
X156896666Y-76516666D01*
X156930000Y-76550000D01*
X156996666Y-76583333D01*
X156596666Y-75983333D02*
X157296666Y-75750000D01*
X156596666Y-75516666D01*
X157296666Y-74916666D02*
X157296666Y-75316666D01*
X157296666Y-75116666D02*
X156596666Y-75116666D01*
X156696666Y-75183333D01*
X156763333Y-75250000D01*
X156796666Y-75316666D01*
%TO.C,D1*%
X156043333Y-95116666D02*
X156043333Y-94416666D01*
X156210000Y-94416666D01*
X156310000Y-94450000D01*
X156376666Y-94516666D01*
X156410000Y-94583333D01*
X156443333Y-94716666D01*
X156443333Y-94816666D01*
X156410000Y-94950000D01*
X156376666Y-95016666D01*
X156310000Y-95083333D01*
X156210000Y-95116666D01*
X156043333Y-95116666D01*
X157110000Y-95116666D02*
X156710000Y-95116666D01*
X156910000Y-95116666D02*
X156910000Y-94416666D01*
X156843333Y-94516666D01*
X156776666Y-94583333D01*
X156710000Y-94616666D01*
%TO.C,U1*%
X154776666Y-77036666D02*
X154776666Y-77603333D01*
X154810000Y-77670000D01*
X154843333Y-77703333D01*
X154910000Y-77736666D01*
X155043333Y-77736666D01*
X155110000Y-77703333D01*
X155143333Y-77670000D01*
X155176666Y-77603333D01*
X155176666Y-77036666D01*
X155876666Y-77736666D02*
X155476666Y-77736666D01*
X155676666Y-77736666D02*
X155676666Y-77036666D01*
X155610000Y-77136666D01*
X155543333Y-77203333D01*
X155476666Y-77236666D01*
%TO.C,MK1*%
X155166666Y-93046666D02*
X154466666Y-93046666D01*
X154966666Y-92813333D01*
X154466666Y-92580000D01*
X155166666Y-92580000D01*
X155166666Y-92246666D02*
X154466666Y-92246666D01*
X155166666Y-91846666D02*
X154766666Y-92146666D01*
X154466666Y-91846666D02*
X154866666Y-92246666D01*
X155166666Y-91180000D02*
X155166666Y-91580000D01*
X155166666Y-91380000D02*
X154466666Y-91380000D01*
X154566666Y-91446666D01*
X154633333Y-91513333D01*
X154666666Y-91580000D01*
%TO.C,Q2*%
X165823333Y-79046666D02*
X165790000Y-79113333D01*
X165723333Y-79180000D01*
X165623333Y-79280000D01*
X165590000Y-79346666D01*
X165590000Y-79413333D01*
X165756666Y-79380000D02*
X165723333Y-79446666D01*
X165656666Y-79513333D01*
X165523333Y-79546666D01*
X165290000Y-79546666D01*
X165156666Y-79513333D01*
X165090000Y-79446666D01*
X165056666Y-79380000D01*
X165056666Y-79246666D01*
X165090000Y-79180000D01*
X165156666Y-79113333D01*
X165290000Y-79080000D01*
X165523333Y-79080000D01*
X165656666Y-79113333D01*
X165723333Y-79180000D01*
X165756666Y-79246666D01*
X165756666Y-79380000D01*
X165123333Y-78813333D02*
X165090000Y-78780000D01*
X165056666Y-78713333D01*
X165056666Y-78546666D01*
X165090000Y-78480000D01*
X165123333Y-78446666D01*
X165190000Y-78413333D01*
X165256666Y-78413333D01*
X165356666Y-78446666D01*
X165756666Y-78846666D01*
X165756666Y-78413333D01*
%TO.C,R5*%
X166293333Y-96956666D02*
X166060000Y-96623333D01*
X165893333Y-96956666D02*
X165893333Y-96256666D01*
X166160000Y-96256666D01*
X166226666Y-96290000D01*
X166260000Y-96323333D01*
X166293333Y-96390000D01*
X166293333Y-96490000D01*
X166260000Y-96556666D01*
X166226666Y-96590000D01*
X166160000Y-96623333D01*
X165893333Y-96623333D01*
X166926666Y-96256666D02*
X166593333Y-96256666D01*
X166560000Y-96590000D01*
X166593333Y-96556666D01*
X166660000Y-96523333D01*
X166826666Y-96523333D01*
X166893333Y-96556666D01*
X166926666Y-96590000D01*
X166960000Y-96656666D01*
X166960000Y-96823333D01*
X166926666Y-96890000D01*
X166893333Y-96923333D01*
X166826666Y-96956666D01*
X166660000Y-96956666D01*
X166593333Y-96923333D01*
X166560000Y-96890000D01*
%TO.C,R4*%
X165440380Y-83986666D02*
X164964190Y-84320000D01*
X165440380Y-84558095D02*
X164440380Y-84558095D01*
X164440380Y-84177142D01*
X164488000Y-84081904D01*
X164535619Y-84034285D01*
X164630857Y-83986666D01*
X164773714Y-83986666D01*
X164868952Y-84034285D01*
X164916571Y-84081904D01*
X164964190Y-84177142D01*
X164964190Y-84558095D01*
X164773714Y-83129523D02*
X165440380Y-83129523D01*
X164392761Y-83367619D02*
X165107047Y-83605714D01*
X165107047Y-82986666D01*
%TO.C,R3*%
X165283333Y-90586666D02*
X165050000Y-90253333D01*
X164883333Y-90586666D02*
X164883333Y-89886666D01*
X165150000Y-89886666D01*
X165216666Y-89920000D01*
X165250000Y-89953333D01*
X165283333Y-90020000D01*
X165283333Y-90120000D01*
X165250000Y-90186666D01*
X165216666Y-90220000D01*
X165150000Y-90253333D01*
X164883333Y-90253333D01*
X165516666Y-89886666D02*
X165950000Y-89886666D01*
X165716666Y-90153333D01*
X165816666Y-90153333D01*
X165883333Y-90186666D01*
X165916666Y-90220000D01*
X165950000Y-90286666D01*
X165950000Y-90453333D01*
X165916666Y-90520000D01*
X165883333Y-90553333D01*
X165816666Y-90586666D01*
X165616666Y-90586666D01*
X165550000Y-90553333D01*
X165516666Y-90520000D01*
%TO.C,R2*%
X150873333Y-100066666D02*
X150640000Y-99733333D01*
X150473333Y-100066666D02*
X150473333Y-99366666D01*
X150740000Y-99366666D01*
X150806666Y-99400000D01*
X150840000Y-99433333D01*
X150873333Y-99500000D01*
X150873333Y-99600000D01*
X150840000Y-99666666D01*
X150806666Y-99700000D01*
X150740000Y-99733333D01*
X150473333Y-99733333D01*
X151140000Y-99433333D02*
X151173333Y-99400000D01*
X151240000Y-99366666D01*
X151406666Y-99366666D01*
X151473333Y-99400000D01*
X151506666Y-99433333D01*
X151540000Y-99500000D01*
X151540000Y-99566666D01*
X151506666Y-99666666D01*
X151106666Y-100066666D01*
X151540000Y-100066666D01*
%TO.C,R1*%
X150683333Y-94316666D02*
X150450000Y-93983333D01*
X150283333Y-94316666D02*
X150283333Y-93616666D01*
X150550000Y-93616666D01*
X150616666Y-93650000D01*
X150650000Y-93683333D01*
X150683333Y-93750000D01*
X150683333Y-93850000D01*
X150650000Y-93916666D01*
X150616666Y-93950000D01*
X150550000Y-93983333D01*
X150283333Y-93983333D01*
X151350000Y-94316666D02*
X150950000Y-94316666D01*
X151150000Y-94316666D02*
X151150000Y-93616666D01*
X151083333Y-93716666D01*
X151016666Y-93783333D01*
X150950000Y-93816666D01*
%TO.C,Q1*%
X159134761Y-96607619D02*
X159039523Y-96560000D01*
X158944285Y-96464761D01*
X158801428Y-96321904D01*
X158706190Y-96274285D01*
X158610952Y-96274285D01*
X158658571Y-96512380D02*
X158563333Y-96464761D01*
X158468095Y-96369523D01*
X158420476Y-96179047D01*
X158420476Y-95845714D01*
X158468095Y-95655238D01*
X158563333Y-95560000D01*
X158658571Y-95512380D01*
X158849047Y-95512380D01*
X158944285Y-95560000D01*
X159039523Y-95655238D01*
X159087142Y-95845714D01*
X159087142Y-96179047D01*
X159039523Y-96369523D01*
X158944285Y-96464761D01*
X158849047Y-96512380D01*
X158658571Y-96512380D01*
X160039523Y-96512380D02*
X159468095Y-96512380D01*
X159753809Y-96512380D02*
X159753809Y-95512380D01*
X159658571Y-95655238D01*
X159563333Y-95750476D01*
X159468095Y-95798095D01*
%TO.C,C3*%
X166745333Y-83614000D02*
X166712000Y-83647333D01*
X166612000Y-83680666D01*
X166545333Y-83680666D01*
X166445333Y-83647333D01*
X166378666Y-83580666D01*
X166345333Y-83514000D01*
X166312000Y-83380666D01*
X166312000Y-83280666D01*
X166345333Y-83147333D01*
X166378666Y-83080666D01*
X166445333Y-83014000D01*
X166545333Y-82980666D01*
X166612000Y-82980666D01*
X166712000Y-83014000D01*
X166745333Y-83047333D01*
X166978666Y-82980666D02*
X167412000Y-82980666D01*
X167178666Y-83247333D01*
X167278666Y-83247333D01*
X167345333Y-83280666D01*
X167378666Y-83314000D01*
X167412000Y-83380666D01*
X167412000Y-83547333D01*
X167378666Y-83614000D01*
X167345333Y-83647333D01*
X167278666Y-83680666D01*
X167078666Y-83680666D01*
X167012000Y-83647333D01*
X166978666Y-83614000D01*
%TO.C,C2*%
X143590000Y-82116666D02*
X143623333Y-82150000D01*
X143656666Y-82250000D01*
X143656666Y-82316666D01*
X143623333Y-82416666D01*
X143556666Y-82483333D01*
X143490000Y-82516666D01*
X143356666Y-82550000D01*
X143256666Y-82550000D01*
X143123333Y-82516666D01*
X143056666Y-82483333D01*
X142990000Y-82416666D01*
X142956666Y-82316666D01*
X142956666Y-82250000D01*
X142990000Y-82150000D01*
X143023333Y-82116666D01*
X143023333Y-81850000D02*
X142990000Y-81816666D01*
X142956666Y-81750000D01*
X142956666Y-81583333D01*
X142990000Y-81516666D01*
X143023333Y-81483333D01*
X143090000Y-81450000D01*
X143156666Y-81450000D01*
X143256666Y-81483333D01*
X143656666Y-81883333D01*
X143656666Y-81450000D01*
%TO.C,C1*%
X146953333Y-75170000D02*
X146920000Y-75203333D01*
X146820000Y-75236666D01*
X146753333Y-75236666D01*
X146653333Y-75203333D01*
X146586666Y-75136666D01*
X146553333Y-75070000D01*
X146520000Y-74936666D01*
X146520000Y-74836666D01*
X146553333Y-74703333D01*
X146586666Y-74636666D01*
X146653333Y-74570000D01*
X146753333Y-74536666D01*
X146820000Y-74536666D01*
X146920000Y-74570000D01*
X146953333Y-74603333D01*
X147620000Y-75236666D02*
X147220000Y-75236666D01*
X147420000Y-75236666D02*
X147420000Y-74536666D01*
X147353333Y-74636666D01*
X147286666Y-74703333D01*
X147220000Y-74736666D01*
%TD*%
M02*
