M48
; DRILL file {KiCad (5.1.12)-1} date 08/26/23 19:41:07
; FORMAT={-:-/ absolute / inch / decimal}
; #@! TF.CreationDate,2023-08-26T19:41:07+05:30
; #@! TF.GenerationSoftware,Kicad,Pcbnew,(5.1.12)-1
; #@! TF.FileFunction,Plated,1,2,PTH
FMAT,2
INCH
T1C0.0236
T2C0.0276
T3C0.0295
T4C0.0315
T5C0.0354
T6C0.0394
T7C0.1339
%
G90
G05
T1
X5.748Y-3.061
X5.7874Y-3.189
X5.7874Y-3.2677
X5.8268Y-3.061
X6.53Y-3.41
X6.6087Y-3.41
T2
X5.8602Y-3.7705
X5.8673Y-3.861
X6.0602Y-3.7705
X6.0673Y-3.861
X6.42Y-3.2
X6.42Y-3.4
X6.4437Y-3.7402
X6.4469Y-3.622
X6.6437Y-3.7402
X6.6469Y-3.622
T3
X6.2189Y-3.6417
X6.2689Y-3.6417
X6.3189Y-3.6417
X6.6535Y-3.0594
X6.6535Y-3.1094
X6.6535Y-3.1594
T4
X5.9646Y-3.1398
X5.9646Y-3.2398
X5.9646Y-3.3398
X5.9646Y-3.4398
X6.2646Y-3.1398
X6.2646Y-3.2398
X6.2646Y-3.3398
X6.2646Y-3.4398
T5
X6.15Y-3.8327
X6.25Y-3.8327
T6
X5.8941Y-3.622
X5.9941Y-3.622
X6.2894Y-2.9823
X6.3894Y-2.9823
T7
X5.6299Y-2.9134
X5.6299Y-3.937
X6.8504Y-2.9134
X6.8504Y-3.937
T0
M30
