M48
; DRILL file {KiCad (5.1.12)-1} date 08/26/23 19:38:28
; FORMAT={-:-/ absolute / inch / decimal}
; #@! TF.CreationDate,2023-08-26T19:38:28+05:30
; #@! TF.GenerationSoftware,Kicad,Pcbnew,(5.1.12)-1
; #@! TF.FileFunction,Plated,1,2,PTH
FMAT,2
INCH
T1C0.0236
T2C0.0276
T3C0.0295
T4C0.0390
T5C0.0394
T6C0.1339
%
G90
G05
T1
X5.34Y-2.75
X5.4187Y-2.75
X5.59Y-2.7013
X5.59Y-2.78
T2
X5.14Y-2.96
X5.14Y-3.16
X5.42Y-2.9
X5.62Y-2.9
T3
X4.9Y-3.05
X4.95Y-3.05
X5.0Y-3.05
X5.26Y-3.09
X5.31Y-3.09
X5.36Y-3.09
T4
X4.782Y-2.7014
X4.782Y-2.8786
X5.038Y-2.7014
X5.038Y-2.8786
T5
X5.19Y-2.73
X5.19Y-2.83
X5.74Y-2.91
X5.74Y-3.01
T6
X4.7638Y-2.5197
X4.7638Y-3.189
X5.7874Y-2.5197
X5.7874Y-3.189
T0
M30
