%TF.GenerationSoftware,KiCad,Pcbnew,(5.1.12)-1*%
%TF.CreationDate,2023-08-26T19:38:22+05:30*%
%TF.ProjectId,BURGLAR  ALARAM,42555247-4c41-4522-9020-414c4152414d,rev?*%
%TF.SameCoordinates,Original*%
%TF.FileFunction,Legend,Top*%
%TF.FilePolarity,Positive*%
%FSLAX46Y46*%
G04 Gerber Fmt 4.6, Leading zero omitted, Abs format (unit mm)*
G04 Created by KiCad (PCBNEW (5.1.12)-1) date 2023-08-26 19:38:22*
%MOMM*%
%LPD*%
G01*
G04 APERTURE LIST*
%ADD10C,0.120000*%
%ADD11C,0.127000*%
%ADD12C,0.400000*%
%ADD13C,0.150000*%
G04 APERTURE END LIST*
D10*
%TO.C,SP1*%
X130496000Y-73212000D02*
X133156000Y-73212000D01*
X130496000Y-70612000D02*
X130496000Y-73212000D01*
X133156000Y-70612000D02*
X133156000Y-73212000D01*
X130496000Y-70612000D02*
X133156000Y-70612000D01*
X130496000Y-69342000D02*
X130496000Y-68012000D01*
X130496000Y-68012000D02*
X131826000Y-68012000D01*
D11*
%TO.C,S1*%
X127714000Y-71866000D02*
X127714000Y-69866000D01*
X121714000Y-71866000D02*
X121714000Y-69866000D01*
X126714000Y-73866000D02*
X122714000Y-73866000D01*
X126714000Y-67866000D02*
X122714000Y-67866000D01*
X126464000Y-70866000D02*
G75*
G03*
X126464000Y-70866000I-1750000J0D01*
G01*
D12*
X129664000Y-73116000D02*
G75*
G03*
X129664000Y-73116000I-200000J0D01*
G01*
D10*
%TO.C,R2*%
X131476000Y-75804000D02*
X131476000Y-79644000D01*
X129636000Y-75804000D02*
X129636000Y-79644000D01*
%TO.C,R1*%
X142128000Y-74580000D02*
X138288000Y-74580000D01*
X142128000Y-72740000D02*
X138288000Y-72740000D01*
%TO.C,Q2*%
X133074000Y-80336000D02*
X136674000Y-80336000D01*
X136712478Y-80324478D02*
G75*
G03*
X134874000Y-75886000I-1838478J1838478D01*
G01*
X133035522Y-80324478D02*
G75*
G02*
X134874000Y-75886000I1838478J1838478D01*
G01*
%TO.C,Q1*%
X123930000Y-79320000D02*
X127530000Y-79320000D01*
X127568478Y-79308478D02*
G75*
G03*
X125730000Y-74870000I-1838478J1838478D01*
G01*
X123891522Y-79308478D02*
G75*
G02*
X125730000Y-74870000I1838478J1838478D01*
G01*
%TO.C,C2*%
X144106000Y-69612000D02*
G75*
G03*
X144106000Y-69612000I-2120000J0D01*
G01*
X139906000Y-69612000D02*
X144066000Y-69612000D01*
X139906000Y-69572000D02*
X144066000Y-69572000D01*
X139907000Y-69532000D02*
X144065000Y-69532000D01*
X139909000Y-69492000D02*
X144063000Y-69492000D01*
X139912000Y-69452000D02*
X144060000Y-69452000D01*
X139915000Y-69412000D02*
X141146000Y-69412000D01*
X142826000Y-69412000D02*
X144057000Y-69412000D01*
X139919000Y-69372000D02*
X141146000Y-69372000D01*
X142826000Y-69372000D02*
X144053000Y-69372000D01*
X139924000Y-69332000D02*
X141146000Y-69332000D01*
X142826000Y-69332000D02*
X144048000Y-69332000D01*
X139930000Y-69292000D02*
X141146000Y-69292000D01*
X142826000Y-69292000D02*
X144042000Y-69292000D01*
X139936000Y-69252000D02*
X141146000Y-69252000D01*
X142826000Y-69252000D02*
X144036000Y-69252000D01*
X139944000Y-69212000D02*
X141146000Y-69212000D01*
X142826000Y-69212000D02*
X144028000Y-69212000D01*
X139952000Y-69172000D02*
X141146000Y-69172000D01*
X142826000Y-69172000D02*
X144020000Y-69172000D01*
X139961000Y-69132000D02*
X141146000Y-69132000D01*
X142826000Y-69132000D02*
X144011000Y-69132000D01*
X139970000Y-69092000D02*
X141146000Y-69092000D01*
X142826000Y-69092000D02*
X144002000Y-69092000D01*
X139981000Y-69052000D02*
X141146000Y-69052000D01*
X142826000Y-69052000D02*
X143991000Y-69052000D01*
X139992000Y-69012000D02*
X141146000Y-69012000D01*
X142826000Y-69012000D02*
X143980000Y-69012000D01*
X140004000Y-68972000D02*
X141146000Y-68972000D01*
X142826000Y-68972000D02*
X143968000Y-68972000D01*
X140018000Y-68932000D02*
X141146000Y-68932000D01*
X142826000Y-68932000D02*
X143954000Y-68932000D01*
X140032000Y-68891000D02*
X141146000Y-68891000D01*
X142826000Y-68891000D02*
X143940000Y-68891000D01*
X140046000Y-68851000D02*
X141146000Y-68851000D01*
X142826000Y-68851000D02*
X143926000Y-68851000D01*
X140062000Y-68811000D02*
X141146000Y-68811000D01*
X142826000Y-68811000D02*
X143910000Y-68811000D01*
X140079000Y-68771000D02*
X141146000Y-68771000D01*
X142826000Y-68771000D02*
X143893000Y-68771000D01*
X140097000Y-68731000D02*
X141146000Y-68731000D01*
X142826000Y-68731000D02*
X143875000Y-68731000D01*
X140116000Y-68691000D02*
X141146000Y-68691000D01*
X142826000Y-68691000D02*
X143856000Y-68691000D01*
X140135000Y-68651000D02*
X141146000Y-68651000D01*
X142826000Y-68651000D02*
X143837000Y-68651000D01*
X140156000Y-68611000D02*
X141146000Y-68611000D01*
X142826000Y-68611000D02*
X143816000Y-68611000D01*
X140178000Y-68571000D02*
X141146000Y-68571000D01*
X142826000Y-68571000D02*
X143794000Y-68571000D01*
X140201000Y-68531000D02*
X141146000Y-68531000D01*
X142826000Y-68531000D02*
X143771000Y-68531000D01*
X140226000Y-68491000D02*
X141146000Y-68491000D01*
X142826000Y-68491000D02*
X143746000Y-68491000D01*
X140251000Y-68451000D02*
X141146000Y-68451000D01*
X142826000Y-68451000D02*
X143721000Y-68451000D01*
X140278000Y-68411000D02*
X141146000Y-68411000D01*
X142826000Y-68411000D02*
X143694000Y-68411000D01*
X140306000Y-68371000D02*
X141146000Y-68371000D01*
X142826000Y-68371000D02*
X143666000Y-68371000D01*
X140336000Y-68331000D02*
X141146000Y-68331000D01*
X142826000Y-68331000D02*
X143636000Y-68331000D01*
X140367000Y-68291000D02*
X141146000Y-68291000D01*
X142826000Y-68291000D02*
X143605000Y-68291000D01*
X140399000Y-68251000D02*
X141146000Y-68251000D01*
X142826000Y-68251000D02*
X143573000Y-68251000D01*
X140434000Y-68211000D02*
X141146000Y-68211000D01*
X142826000Y-68211000D02*
X143538000Y-68211000D01*
X140470000Y-68171000D02*
X141146000Y-68171000D01*
X142826000Y-68171000D02*
X143502000Y-68171000D01*
X140508000Y-68131000D02*
X141146000Y-68131000D01*
X142826000Y-68131000D02*
X143464000Y-68131000D01*
X140548000Y-68091000D02*
X141146000Y-68091000D01*
X142826000Y-68091000D02*
X143424000Y-68091000D01*
X140590000Y-68051000D02*
X141146000Y-68051000D01*
X142826000Y-68051000D02*
X143382000Y-68051000D01*
X140635000Y-68011000D02*
X141146000Y-68011000D01*
X142826000Y-68011000D02*
X143337000Y-68011000D01*
X140682000Y-67971000D02*
X141146000Y-67971000D01*
X142826000Y-67971000D02*
X143290000Y-67971000D01*
X140732000Y-67931000D02*
X141146000Y-67931000D01*
X142826000Y-67931000D02*
X143240000Y-67931000D01*
X140786000Y-67891000D02*
X141146000Y-67891000D01*
X142826000Y-67891000D02*
X143186000Y-67891000D01*
X140844000Y-67851000D02*
X141146000Y-67851000D01*
X142826000Y-67851000D02*
X143128000Y-67851000D01*
X140906000Y-67811000D02*
X141146000Y-67811000D01*
X142826000Y-67811000D02*
X143066000Y-67811000D01*
X140973000Y-67771000D02*
X142999000Y-67771000D01*
X141046000Y-67731000D02*
X142926000Y-67731000D01*
X141127000Y-67691000D02*
X142845000Y-67691000D01*
X141218000Y-67651000D02*
X142754000Y-67651000D01*
X141322000Y-67611000D02*
X142650000Y-67611000D01*
X141449000Y-67571000D02*
X142523000Y-67571000D01*
X141616000Y-67531000D02*
X142356000Y-67531000D01*
X140791000Y-71881801D02*
X140791000Y-71481801D01*
X140591000Y-71681801D02*
X140991000Y-71681801D01*
%TO.C,C1*%
X138756000Y-69850000D02*
G75*
G03*
X138756000Y-69850000I-2120000J0D01*
G01*
X136636000Y-67770000D02*
X136636000Y-71930000D01*
X136676000Y-67770000D02*
X136676000Y-71930000D01*
X136716000Y-67771000D02*
X136716000Y-71929000D01*
X136756000Y-67773000D02*
X136756000Y-71927000D01*
X136796000Y-67776000D02*
X136796000Y-71924000D01*
X136836000Y-67779000D02*
X136836000Y-69010000D01*
X136836000Y-70690000D02*
X136836000Y-71921000D01*
X136876000Y-67783000D02*
X136876000Y-69010000D01*
X136876000Y-70690000D02*
X136876000Y-71917000D01*
X136916000Y-67788000D02*
X136916000Y-69010000D01*
X136916000Y-70690000D02*
X136916000Y-71912000D01*
X136956000Y-67794000D02*
X136956000Y-69010000D01*
X136956000Y-70690000D02*
X136956000Y-71906000D01*
X136996000Y-67800000D02*
X136996000Y-69010000D01*
X136996000Y-70690000D02*
X136996000Y-71900000D01*
X137036000Y-67808000D02*
X137036000Y-69010000D01*
X137036000Y-70690000D02*
X137036000Y-71892000D01*
X137076000Y-67816000D02*
X137076000Y-69010000D01*
X137076000Y-70690000D02*
X137076000Y-71884000D01*
X137116000Y-67825000D02*
X137116000Y-69010000D01*
X137116000Y-70690000D02*
X137116000Y-71875000D01*
X137156000Y-67834000D02*
X137156000Y-69010000D01*
X137156000Y-70690000D02*
X137156000Y-71866000D01*
X137196000Y-67845000D02*
X137196000Y-69010000D01*
X137196000Y-70690000D02*
X137196000Y-71855000D01*
X137236000Y-67856000D02*
X137236000Y-69010000D01*
X137236000Y-70690000D02*
X137236000Y-71844000D01*
X137276000Y-67868000D02*
X137276000Y-69010000D01*
X137276000Y-70690000D02*
X137276000Y-71832000D01*
X137316000Y-67882000D02*
X137316000Y-69010000D01*
X137316000Y-70690000D02*
X137316000Y-71818000D01*
X137357000Y-67896000D02*
X137357000Y-69010000D01*
X137357000Y-70690000D02*
X137357000Y-71804000D01*
X137397000Y-67910000D02*
X137397000Y-69010000D01*
X137397000Y-70690000D02*
X137397000Y-71790000D01*
X137437000Y-67926000D02*
X137437000Y-69010000D01*
X137437000Y-70690000D02*
X137437000Y-71774000D01*
X137477000Y-67943000D02*
X137477000Y-69010000D01*
X137477000Y-70690000D02*
X137477000Y-71757000D01*
X137517000Y-67961000D02*
X137517000Y-69010000D01*
X137517000Y-70690000D02*
X137517000Y-71739000D01*
X137557000Y-67980000D02*
X137557000Y-69010000D01*
X137557000Y-70690000D02*
X137557000Y-71720000D01*
X137597000Y-67999000D02*
X137597000Y-69010000D01*
X137597000Y-70690000D02*
X137597000Y-71701000D01*
X137637000Y-68020000D02*
X137637000Y-69010000D01*
X137637000Y-70690000D02*
X137637000Y-71680000D01*
X137677000Y-68042000D02*
X137677000Y-69010000D01*
X137677000Y-70690000D02*
X137677000Y-71658000D01*
X137717000Y-68065000D02*
X137717000Y-69010000D01*
X137717000Y-70690000D02*
X137717000Y-71635000D01*
X137757000Y-68090000D02*
X137757000Y-69010000D01*
X137757000Y-70690000D02*
X137757000Y-71610000D01*
X137797000Y-68115000D02*
X137797000Y-69010000D01*
X137797000Y-70690000D02*
X137797000Y-71585000D01*
X137837000Y-68142000D02*
X137837000Y-69010000D01*
X137837000Y-70690000D02*
X137837000Y-71558000D01*
X137877000Y-68170000D02*
X137877000Y-69010000D01*
X137877000Y-70690000D02*
X137877000Y-71530000D01*
X137917000Y-68200000D02*
X137917000Y-69010000D01*
X137917000Y-70690000D02*
X137917000Y-71500000D01*
X137957000Y-68231000D02*
X137957000Y-69010000D01*
X137957000Y-70690000D02*
X137957000Y-71469000D01*
X137997000Y-68263000D02*
X137997000Y-69010000D01*
X137997000Y-70690000D02*
X137997000Y-71437000D01*
X138037000Y-68298000D02*
X138037000Y-69010000D01*
X138037000Y-70690000D02*
X138037000Y-71402000D01*
X138077000Y-68334000D02*
X138077000Y-69010000D01*
X138077000Y-70690000D02*
X138077000Y-71366000D01*
X138117000Y-68372000D02*
X138117000Y-69010000D01*
X138117000Y-70690000D02*
X138117000Y-71328000D01*
X138157000Y-68412000D02*
X138157000Y-69010000D01*
X138157000Y-70690000D02*
X138157000Y-71288000D01*
X138197000Y-68454000D02*
X138197000Y-69010000D01*
X138197000Y-70690000D02*
X138197000Y-71246000D01*
X138237000Y-68499000D02*
X138237000Y-69010000D01*
X138237000Y-70690000D02*
X138237000Y-71201000D01*
X138277000Y-68546000D02*
X138277000Y-69010000D01*
X138277000Y-70690000D02*
X138277000Y-71154000D01*
X138317000Y-68596000D02*
X138317000Y-69010000D01*
X138317000Y-70690000D02*
X138317000Y-71104000D01*
X138357000Y-68650000D02*
X138357000Y-69010000D01*
X138357000Y-70690000D02*
X138357000Y-71050000D01*
X138397000Y-68708000D02*
X138397000Y-69010000D01*
X138397000Y-70690000D02*
X138397000Y-70992000D01*
X138437000Y-68770000D02*
X138437000Y-69010000D01*
X138437000Y-70690000D02*
X138437000Y-70930000D01*
X138477000Y-68837000D02*
X138477000Y-70863000D01*
X138517000Y-68910000D02*
X138517000Y-70790000D01*
X138557000Y-68991000D02*
X138557000Y-70709000D01*
X138597000Y-69082000D02*
X138597000Y-70618000D01*
X138637000Y-69186000D02*
X138637000Y-70514000D01*
X138677000Y-69313000D02*
X138677000Y-70387000D01*
X138717000Y-69480000D02*
X138717000Y-70220000D01*
X134366199Y-68655000D02*
X134766199Y-68655000D01*
X134566199Y-68455000D02*
X134566199Y-68855000D01*
%TO.C,3V1*%
X147126000Y-72584000D02*
X144466000Y-72584000D01*
X147126000Y-75184000D02*
X147126000Y-72584000D01*
X144466000Y-75184000D02*
X144466000Y-72584000D01*
X147126000Y-75184000D02*
X144466000Y-75184000D01*
X147126000Y-76454000D02*
X147126000Y-77784000D01*
X147126000Y-77784000D02*
X145796000Y-77784000D01*
%TO.C,SP1*%
D13*
X130564095Y-67416761D02*
X130706952Y-67464380D01*
X130945047Y-67464380D01*
X131040285Y-67416761D01*
X131087904Y-67369142D01*
X131135523Y-67273904D01*
X131135523Y-67178666D01*
X131087904Y-67083428D01*
X131040285Y-67035809D01*
X130945047Y-66988190D01*
X130754571Y-66940571D01*
X130659333Y-66892952D01*
X130611714Y-66845333D01*
X130564095Y-66750095D01*
X130564095Y-66654857D01*
X130611714Y-66559619D01*
X130659333Y-66512000D01*
X130754571Y-66464380D01*
X130992666Y-66464380D01*
X131135523Y-66512000D01*
X131564095Y-67464380D02*
X131564095Y-66464380D01*
X131945047Y-66464380D01*
X132040285Y-66512000D01*
X132087904Y-66559619D01*
X132135523Y-66654857D01*
X132135523Y-66797714D01*
X132087904Y-66892952D01*
X132040285Y-66940571D01*
X131945047Y-66988190D01*
X131564095Y-66988190D01*
X133087904Y-67464380D02*
X132516476Y-67464380D01*
X132802190Y-67464380D02*
X132802190Y-66464380D01*
X132706952Y-66607238D01*
X132611714Y-66702476D01*
X132516476Y-66750095D01*
%TO.C,S1*%
X125816144Y-75204304D02*
X125930600Y-75242456D01*
X126121362Y-75242456D01*
X126197666Y-75204304D01*
X126235818Y-75166151D01*
X126273971Y-75089847D01*
X126273971Y-75013542D01*
X126235818Y-74937238D01*
X126197666Y-74899086D01*
X126121362Y-74860933D01*
X125968753Y-74822781D01*
X125892448Y-74784629D01*
X125854296Y-74746477D01*
X125816144Y-74670172D01*
X125816144Y-74593868D01*
X125854296Y-74517563D01*
X125892448Y-74479411D01*
X125968753Y-74441259D01*
X126159514Y-74441259D01*
X126273971Y-74479411D01*
X127037015Y-75242456D02*
X126579188Y-75242456D01*
X126808102Y-75242456D02*
X126808102Y-74441259D01*
X126731797Y-74555715D01*
X126655493Y-74632020D01*
X126579188Y-74670172D01*
%TO.C,R2*%
X132928380Y-77890666D02*
X132452190Y-78224000D01*
X132928380Y-78462095D02*
X131928380Y-78462095D01*
X131928380Y-78081142D01*
X131976000Y-77985904D01*
X132023619Y-77938285D01*
X132118857Y-77890666D01*
X132261714Y-77890666D01*
X132356952Y-77938285D01*
X132404571Y-77985904D01*
X132452190Y-78081142D01*
X132452190Y-78462095D01*
X132023619Y-77509714D02*
X131976000Y-77462095D01*
X131928380Y-77366857D01*
X131928380Y-77128761D01*
X131976000Y-77033523D01*
X132023619Y-76985904D01*
X132118857Y-76938285D01*
X132214095Y-76938285D01*
X132356952Y-76985904D01*
X132928380Y-77557333D01*
X132928380Y-76938285D01*
%TO.C,R1*%
X140041333Y-76032380D02*
X139708000Y-75556190D01*
X139469904Y-76032380D02*
X139469904Y-75032380D01*
X139850857Y-75032380D01*
X139946095Y-75080000D01*
X139993714Y-75127619D01*
X140041333Y-75222857D01*
X140041333Y-75365714D01*
X139993714Y-75460952D01*
X139946095Y-75508571D01*
X139850857Y-75556190D01*
X139469904Y-75556190D01*
X140993714Y-76032380D02*
X140422285Y-76032380D01*
X140708000Y-76032380D02*
X140708000Y-75032380D01*
X140612761Y-75175238D01*
X140517523Y-75270476D01*
X140422285Y-75318095D01*
%TO.C,Q2*%
X134778761Y-75473619D02*
X134683523Y-75426000D01*
X134588285Y-75330761D01*
X134445428Y-75187904D01*
X134350190Y-75140285D01*
X134254952Y-75140285D01*
X134302571Y-75378380D02*
X134207333Y-75330761D01*
X134112095Y-75235523D01*
X134064476Y-75045047D01*
X134064476Y-74711714D01*
X134112095Y-74521238D01*
X134207333Y-74426000D01*
X134302571Y-74378380D01*
X134493047Y-74378380D01*
X134588285Y-74426000D01*
X134683523Y-74521238D01*
X134731142Y-74711714D01*
X134731142Y-75045047D01*
X134683523Y-75235523D01*
X134588285Y-75330761D01*
X134493047Y-75378380D01*
X134302571Y-75378380D01*
X135112095Y-74473619D02*
X135159714Y-74426000D01*
X135254952Y-74378380D01*
X135493047Y-74378380D01*
X135588285Y-74426000D01*
X135635904Y-74473619D01*
X135683523Y-74568857D01*
X135683523Y-74664095D01*
X135635904Y-74806952D01*
X135064476Y-75378380D01*
X135683523Y-75378380D01*
%TO.C,Q1*%
X125634761Y-74457619D02*
X125539523Y-74410000D01*
X125444285Y-74314761D01*
X125301428Y-74171904D01*
X125206190Y-74124285D01*
X125110952Y-74124285D01*
X125158571Y-74362380D02*
X125063333Y-74314761D01*
X124968095Y-74219523D01*
X124920476Y-74029047D01*
X124920476Y-73695714D01*
X124968095Y-73505238D01*
X125063333Y-73410000D01*
X125158571Y-73362380D01*
X125349047Y-73362380D01*
X125444285Y-73410000D01*
X125539523Y-73505238D01*
X125587142Y-73695714D01*
X125587142Y-74029047D01*
X125539523Y-74219523D01*
X125444285Y-74314761D01*
X125349047Y-74362380D01*
X125158571Y-74362380D01*
X126539523Y-74362380D02*
X125968095Y-74362380D01*
X126253809Y-74362380D02*
X126253809Y-73362380D01*
X126158571Y-73505238D01*
X126063333Y-73600476D01*
X125968095Y-73648095D01*
%TO.C,C2*%
X139093142Y-69778666D02*
X139140761Y-69826285D01*
X139188380Y-69969142D01*
X139188380Y-70064380D01*
X139140761Y-70207238D01*
X139045523Y-70302476D01*
X138950285Y-70350095D01*
X138759809Y-70397714D01*
X138616952Y-70397714D01*
X138426476Y-70350095D01*
X138331238Y-70302476D01*
X138236000Y-70207238D01*
X138188380Y-70064380D01*
X138188380Y-69969142D01*
X138236000Y-69826285D01*
X138283619Y-69778666D01*
X138283619Y-69397714D02*
X138236000Y-69350095D01*
X138188380Y-69254857D01*
X138188380Y-69016761D01*
X138236000Y-68921523D01*
X138283619Y-68873904D01*
X138378857Y-68826285D01*
X138474095Y-68826285D01*
X138616952Y-68873904D01*
X139188380Y-69445333D01*
X139188380Y-68826285D01*
%TO.C,C1*%
X136469333Y-66957142D02*
X136421714Y-67004761D01*
X136278857Y-67052380D01*
X136183619Y-67052380D01*
X136040761Y-67004761D01*
X135945523Y-66909523D01*
X135897904Y-66814285D01*
X135850285Y-66623809D01*
X135850285Y-66480952D01*
X135897904Y-66290476D01*
X135945523Y-66195238D01*
X136040761Y-66100000D01*
X136183619Y-66052380D01*
X136278857Y-66052380D01*
X136421714Y-66100000D01*
X136469333Y-66147619D01*
X137421714Y-67052380D02*
X136850285Y-67052380D01*
X137136000Y-67052380D02*
X137136000Y-66052380D01*
X137040761Y-66195238D01*
X136945523Y-66290476D01*
X136850285Y-66338095D01*
%TO.C,3V1*%
X144929333Y-78400666D02*
X145362666Y-78400666D01*
X145129333Y-78667333D01*
X145229333Y-78667333D01*
X145296000Y-78700666D01*
X145329333Y-78734000D01*
X145362666Y-78800666D01*
X145362666Y-78967333D01*
X145329333Y-79034000D01*
X145296000Y-79067333D01*
X145229333Y-79100666D01*
X145029333Y-79100666D01*
X144962666Y-79067333D01*
X144929333Y-79034000D01*
X145562666Y-78400666D02*
X145796000Y-79100666D01*
X146029333Y-78400666D01*
X146629333Y-79100666D02*
X146229333Y-79100666D01*
X146429333Y-79100666D02*
X146429333Y-78400666D01*
X146362666Y-78500666D01*
X146296000Y-78567333D01*
X146229333Y-78600666D01*
%TD*%
M02*
